<?xml version="1.0" encoding="iso-8859-1"?>
<!-- Generator: Adobe Illustrator 19.0.0, SVG Export Plug-In . SVG Version: 6.00 Build 0)  -->
<svg version="1.1" id="Capa_1" xmlns="http://www.w3.org/2000/svg" xmlns:xlink="http://www.w3.org/1999/xlink" x="0px" y="0px"
	 viewBox="0 0 512.225 512.225" style="enable-background:new 0 0 512.225 512.225;" xml:space="preserve">
<g transform="translate(0 -1)">
	<g>
		<g>
			<path d="M274.4,293.782c5.047-0.005,9.138-4.095,9.143-9.143v-12.095c-6.03,1.281-12.139,2.154-18.286,2.613v9.482
				C265.262,289.686,269.352,293.777,274.4,293.782z"/>
			<path d="M246.496,151.935c-2.274-18.205-17.749-31.867-36.096-31.867c-18.346,0-33.822,13.662-36.096,31.867
				C194.961,133.826,225.838,133.826,246.496,151.935z"/>
			<path d="M210.4,156.639c-13.04,0.035-25.089,6.968-31.672,18.224c0.11,0.191,0.199,0.398,0.313,0.586
				c0.433,0.713,0.915,1.384,1.393,2.061c0.487,0.692,0.973,1.382,1.502,2.036c0.54,0.667,1.118,1.297,1.701,1.922
				c0.559,0.598,1.127,1.185,1.723,1.742c0.614,0.577,1.25,1.128,1.902,1.661c0.652,0.532,1.321,1.037,2.007,1.522
				c0.658,0.468,1.326,0.922,2.013,1.345c0.757,0.465,1.54,0.886,2.33,1.295c0.677,0.352,1.35,0.708,2.049,1.017
				c0.879,0.388,1.786,0.711,2.696,1.03c0.661,0.232,1.313,0.489,1.989,0.683c0.297,0.085,0.609,0.127,0.911,0.204v-7.899
				c0-5.049,4.093-9.143,9.143-9.143s9.143,4.093,9.143,9.143v7.898c0.304-0.079,0.62-0.12,0.922-0.207
				c0.65-0.187,1.276-0.435,1.912-0.657c0.945-0.33,1.889-0.667,2.802-1.072c0.649-0.288,1.275-0.62,1.904-0.945
				c0.857-0.441,1.703-0.898,2.521-1.405c0.613-0.379,1.209-0.786,1.798-1.201c0.781-0.549,1.542-1.128,2.281-1.736
				c0.556-0.459,1.103-0.93,1.632-1.422c0.71-0.66,1.385-1.358,2.045-2.075c0.481-0.525,0.962-1.047,1.415-1.6
				c0.638-0.782,1.225-1.61,1.804-2.448c0.388-0.565,0.792-1.116,1.152-1.705c0.124-0.204,0.219-0.429,0.339-0.636
				C235.485,163.604,223.438,156.674,210.4,156.639z"/>
			<path d="M237.828,293.782c5.047-0.005,9.138-4.095,9.143-9.143v-9.482c-6.147-0.46-12.256-1.333-18.286-2.613v12.095
				C228.69,289.686,232.781,293.777,237.828,293.782z"/>
			<path d="M96.032,419.051C82.431,445.718,82.4,470.618,82.4,494.835c0,1.96,3.554,6.371,13.339,10.5
				c10.553,4.114,21.672,6.595,32.973,7.357l4.67,0.259c12.886,0.79,25.82-0.133,38.464-2.745c2.429-0.451,4.625-1.027,6.661-1.598
				c7.055-1.65,13.685-4.76,19.464-9.129c0.756-0.641,1.442-1.361,2.047-2.146c-19.654-4.622-38.435-12.382-55.618-22.983
				C123.098,461.182,106.246,441.916,96.032,419.051z"/>
			<path d="M301.828,156.639c-13.04,0.035-25.089,6.968-31.672,18.224c0.11,0.191,0.199,0.398,0.313,0.586
				c0.433,0.713,0.915,1.384,1.393,2.061c0.487,0.692,0.973,1.382,1.502,2.036c0.54,0.667,1.118,1.297,1.701,1.922
				c0.559,0.598,1.127,1.185,1.723,1.742c0.614,0.577,1.25,1.128,1.902,1.661c0.652,0.532,1.321,1.037,2.007,1.522
				c0.658,0.468,1.326,0.922,2.013,1.345c0.757,0.465,1.54,0.886,2.33,1.295c0.677,0.352,1.35,0.708,2.049,1.017
				c0.879,0.388,1.786,0.711,2.696,1.03c0.661,0.232,1.313,0.489,1.989,0.683c0.297,0.085,0.609,0.127,0.911,0.204v-7.899
				c0-5.049,4.093-9.143,9.143-9.143s9.143,4.093,9.143,9.143v7.898c0.304-0.079,0.621-0.12,0.922-0.207
				c0.649-0.187,1.276-0.435,1.912-0.657c0.945-0.33,1.889-0.667,2.802-1.072c0.649-0.288,1.275-0.62,1.904-0.945
				c0.857-0.441,1.703-0.898,2.521-1.405c0.613-0.379,1.209-0.786,1.798-1.201c0.781-0.549,1.542-1.128,2.281-1.736
				c0.556-0.459,1.103-0.93,1.632-1.422c0.71-0.66,1.385-1.358,2.045-2.075c0.481-0.525,0.962-1.047,1.415-1.6
				c0.638-0.782,1.225-1.61,1.803-2.448c0.388-0.565,0.792-1.116,1.152-1.705c0.124-0.204,0.219-0.429,0.339-0.636
				C326.913,163.604,314.867,156.674,301.828,156.639z"/>
			<path d="M337.924,151.935c-2.274-18.205-17.75-31.867-36.096-31.867c-18.347,0-33.822,13.662-36.096,31.867
				C286.39,133.826,317.267,133.826,337.924,151.935z"/>
			<path d="M196.275,404.51c-4.491-2.281-9.982-0.511-12.295,3.964l-6.1,11.845c4.73,3.969,9.736,7.596,14.98,10.854l7.397-14.392
				C202.538,412.293,200.757,406.804,196.275,404.51z"/>
			<path d="M367.828,474.349c-17.188,10.603-35.973,18.365-55.632,22.986c0.57,0.742,1.215,1.423,1.926,2.032
				c5.807,4.424,12.482,7.573,19.589,9.241c2.045,0.571,4.241,1.147,6.438,1.554c9.952,2.051,20.089,3.072,30.25,3.049
				c3,0,5.733-0.085,8.375-0.254l4.965-0.277c11.212-0.774,22.243-3.244,32.714-7.326c9.821-4.147,13.375-8.558,13.375-10.518
				c0-24.217-0.031-49.117-13.632-75.783C405.982,441.916,389.13,461.182,367.828,474.349z"/>
			<path d="M483.971,131.559c-1.537-8.515-7.23-15.698-15.17-19.138c-15.467-4.222-31.472,4.697-36.018,20.072
				c-6.76,14.41-0.839,31.583,13.366,38.763c4.582,1.796,6.919,6.898,5.286,11.54l-23.589,67.201
				c-1.491,4.23-5.825,6.758-10.241,5.973l-28.111-5.056c-0.391,6.159-0.4,12.336-0.026,18.496l40.154,7.234
				c4.383,0.765,8.685-1.713,10.223-5.888l19.447-55.205c3.759-10.656,7.545-21.384,11.277-32.112
				c1.777-4.705,3.295-9.178,4.813-13.652c0.982-2.714,1.991-5.281,3.018-7.866c2.224-5.174,4.027-10.518,5.393-15.982
				C484.895,141.215,484.956,136.308,483.971,131.559z"/>
			<path d="M403.087,382.009c-2.279-10.157-5.656-20.037-10.072-29.464l-0.973-2.299c-10.108-22.559-16.878-46.47-20.096-70.98
				c-0.037-0.154-0.029-0.313-0.058-0.469c-1.27-11.208-1.409-22.516-0.417-33.752c0.192-2.041,0.426-4.118,0.634-6.17
				c0.018-0.131-0.032-0.252-0.009-0.384c0.011-0.06,0.052-0.103,0.065-0.162c0.441-4.363,0.873-8.717,1.346-13.119
				c4.331-28.253,4.865-56.958,1.589-85.353c-7.955-47.705-37.733-56.313-39-56.656c-4.893-1.248-7.848-6.225-6.6-11.118
				c1.248-4.893,6.225-7.848,11.118-6.601c4.846,1.446,9.463,3.572,13.712,6.314c10.286-8.213,22.733-13.267,35.833-14.55
				c-18.475-9.751-39.346-14.039-60.169-12.361c-0.437-0.036-0.871-0.103-1.299-0.201c-0.491,0.014-0.983-0.014-1.469-0.084
				c-0.161-0.042-0.272-0.16-0.429-0.21c-0.631-0.224-1.235-0.519-1.799-0.88c-0.439-0.218-0.859-0.472-1.257-0.76
				c-0.519-0.464-0.981-0.988-1.376-1.561c-0.302-0.348-0.576-0.719-0.82-1.109c-0.26-0.552-0.463-1.13-0.606-1.724
				c-0.2-0.557-0.344-1.132-0.43-1.718c-0.013-0.15-0.097-0.271-0.105-0.423c0.032-0.462,0.101-0.921,0.208-1.372
				c-0.012-0.468,0.014-0.936,0.078-1.4c0.056-0.214,0.163-0.38,0.221-0.593c0.052-0.153,0.107-0.296,0.167-0.446
				c3.632-12.95,12.029-24.046,23.504-31.06c-31.998-2.123-62.689,13.02-80.474,39.705c-0.176,0.263-0.367,0.516-0.571,0.758
				c-0.163,0.232-0.319,0.449-0.503,0.667c-0.682,0.831-1.505,1.535-2.432,2.079l-0.038,0.032c-0.454,0.229-0.927,0.418-1.413,0.566
				c-0.239,0.085-0.46,0.218-0.705,0.283c-0.757,0.202-1.536,0.305-2.319,0.307l-0.009-0.001l-0.009,0.001
				c-0.78-0.002-1.557-0.105-2.311-0.306c-0.262-0.069-0.499-0.209-0.753-0.302c-0.472-0.145-0.931-0.328-1.373-0.549l-0.035-0.03
				c-0.922-0.542-1.742-1.242-2.421-2.068c-0.192-0.225-0.355-0.451-0.525-0.693c-0.194-0.231-0.377-0.472-0.547-0.722
				C230.627,14.001,199.674-1.28,167.533,1.277c11.533,7.007,19.975,18.132,23.62,31.124c0.06,0.151,0.116,0.294,0.169,0.449
				c0.058,0.212,0.165,0.377,0.221,0.591c0.064,0.464,0.09,0.932,0.078,1.4c0.106,0.451,0.176,0.91,0.208,1.372
				c-0.007,0.143-0.093,0.259-0.107,0.401c-0.099,0.747-0.294,1.477-0.58,2.174c-0.109,0.394-0.244,0.779-0.405,1.155
				c-0.422,0.751-0.95,1.437-1.568,2.038c-0.213,0.223-0.368,0.483-0.602,0.684c-0.527,0.403-1.097,0.746-1.7,1.023
				c-0.492,0.304-1.012,0.559-1.554,0.761c-0.113,0.034-0.191,0.119-0.305,0.149c-0.427,0.058-0.857,0.083-1.288,0.076
				c-0.485,0.117-0.981,0.187-1.48,0.209c-20.823-1.676-41.693,2.612-60.17,12.361c13.1,1.283,25.547,6.338,35.833,14.55
				c4.249-2.742,8.866-4.868,13.712-6.314c4.884-1.22,9.836,1.738,11.077,6.617c1.241,4.879-1.695,9.843-6.568,11.106
				c-1.429,0.388-31.063,9.085-38.991,56.652c-3.276,28.395-2.742,57.1,1.589,85.353c0.473,4.402,0.905,8.756,1.346,13.119
				c0.012,0.059,0.054,0.103,0.065,0.162c0.023,0.132-0.027,0.253-0.009,0.384c0.208,2.051,0.442,4.128,0.634,6.17
				c0.992,11.237,0.852,22.546-0.419,33.755c-0.029,0.155-0.021,0.311-0.057,0.464c-3.218,24.51-9.988,48.422-20.096,70.982
				l-0.973,2.299c-4.414,9.426-7.791,19.304-10.071,29.46c-5.464,29.96,18.688,60.21,45.045,76.897
				c30.817,18.26,66.115,27.569,101.929,26.88c35.814,0.689,71.111-8.619,101.929-26.88
				C384.4,442.215,408.552,411.965,403.087,382.009z M210.4,101.782c18.4,0.009,35.569,9.248,45.714,24.598
				c13.347-20.195,38.358-29.247,61.539-22.272s39.044,28.324,39.033,52.531c0.002,7.518-1.523,14.959-4.482,21.871l-0.048,0.09
				l-0.006,0.026c-8.056,18.418-25.542,30.954-45.571,32.67c-20.029,1.716-39.393-7.662-50.465-24.441
				c-11.072,16.779-30.435,26.157-50.465,24.441c-20.029-1.716-37.515-14.252-45.571-32.67c-2.991-6.944-4.534-14.426-4.536-21.987
				C155.576,126.356,180.117,101.815,210.4,101.782z M256.114,467.496c-22.149,0.134-43.992-5.164-63.618-15.431l-0.078-0.029
				l-0.048-0.038c-21.613-11.644-40.21-28.172-54.309-48.27c-7.109-10.177-6.532-23.852,1.411-33.393
				c23.383-28.385,37.81-93.751,42.135-115.713c-4.581-2.531-9.009-5.331-13.26-8.385c-4.041-3.025-4.865-8.754-1.839-12.795
				c3.025-4.041,8.754-4.865,12.795-1.839c22.643,15.676,49.292,24.56,76.813,25.607c27.526-0.994,54.185-9.88,76.804-25.598
				c2.612-1.97,6.077-2.393,9.087-1.11c3.009,1.283,5.103,4.076,5.491,7.324c0.388,3.248-0.99,6.456-3.613,8.411
				c-4.251,3.054-8.679,5.854-13.26,8.385c4.325,21.962,18.752,87.329,42.135,115.713c7.943,9.543,8.52,23.219,1.411,33.397
				C347.715,443.128,303.564,466.975,256.114,467.496z"/>
			<path d="M322.926,403.306c-2.309-0.747-4.821-0.545-6.982,0.561c-4.514,2.346-6.279,7.903-3.947,12.424l7.583,14.751
				c5.244-3.272,10.25-6.911,14.98-10.891l-6.304-12.302C327.154,405.687,325.236,404.053,322.926,403.306z"/>
			<path d="M122.759,269.409c0.374-6.16,0.366-12.337-0.026-18.496l-28.111,5.056c-4.417,0.792-8.756-1.739-10.241-5.973
				l-23.589-67.201c-1.633-4.642,0.704-9.744,5.286-11.54c14.211-7.187,20.129-24.372,13.357-38.786
				c-4.547-15.368-20.55-24.278-36.009-20.049c-7.937,3.439-13.63,10.618-15.17,19.13c-0.981,4.705-0.929,9.567,0.152,14.25
				c1.365,5.512,3.178,10.903,5.42,16.121c1.027,2.585,2.036,5.152,2.955,7.71c1.58,4.629,3.098,9.103,4.795,13.571
				c3.813,10.964,7.598,21.692,11.357,32.348l19.429,55.156c1.527,4.213,5.864,6.717,10.277,5.933L122.759,269.409z"/>
			<path d="M313.646,262.974c-3.68,1.574-7.626,3.096-11.818,4.527v17.138c0.047,10.84-6.321,20.681-16.228,25.08
				c-9.907,4.398-21.478,2.521-29.486-4.785c-8.008,7.306-19.579,9.183-29.486,4.785c-9.907-4.398-16.276-14.24-16.228-25.08
				v-17.138c-4.192-1.431-8.138-2.953-11.818-4.527c-5.689,27.81-20.454,89.192-45.003,118.987
				c-2.735,3.151-2.985,7.755-0.607,11.183c3.451,4.848,7.186,9.487,11.184,13.894l3.557-6.908
				c6.9-13.482,23.422-18.817,36.904-11.917c13.482,6.9,18.817,23.422,11.917,36.904l-7.475,14.546
				c30.158,12.766,64.209,12.729,94.339-0.103l-7.694-14.969c-4.485-8.724-3.974-19.178,1.342-27.422
				c5.316-8.244,14.627-13.024,24.424-12.538c9.797,0.486,18.59,6.163,23.064,14.893l3.741,7.301
				c3.923-4.342,7.59-8.908,10.982-13.676c2.378-3.43,2.128-8.035-0.607-11.188C334.101,352.166,319.335,290.784,313.646,262.974z"
				/>
		</g>
	</g>
</g>
<g>
</g>
<g>
</g>
<g>
</g>
<g>
</g>
<g>
</g>
<g>
</g>
<g>
</g>
<g>
</g>
<g>
</g>
<g>
</g>
<g>
</g>
<g>
</g>
<g>
</g>
<g>
</g>
<g>
</g>
</svg>
