<?xml version="1.0" encoding="iso-8859-1"?>
<!-- Generator: Adobe Illustrator 19.0.0, SVG Export Plug-In . SVG Version: 6.00 Build 0)  -->
<svg version="1.1" id="Capa_1" xmlns="http://www.w3.org/2000/svg" xmlns:xlink="http://www.w3.org/1999/xlink" x="0px" y="0px"
	 viewBox="0 0 512.016 512.016" style="enable-background:new 0 0 512.016 512.016;" xml:space="preserve">
<g>
	<g>
		<g>
			<path d="M174.918,257.293c8.82,2.169,17.767,3.787,26.789,4.846l-11.52-19.2L174.918,257.293z"/>
			<path d="M321.844,242.939l-11.52,19.2c9.02-1.067,17.966-2.685,26.789-4.846L321.844,242.939z"/>
			<path d="M238.004,17.476C228.221,5.59,218.256-0.353,208.016,0.104c-13.989,0.549-27.52,12.8-37.851,25.6
				C192.275,19.768,215.116,16.997,238.004,17.476z"/>
			<path d="M292.711,149.098c0.02,0.251,0.032,0.503,0.057,0.752c0.053,0.535,0.122,1.065,0.197,1.592
				c0.008,0.059,0.014,0.118,0.022,0.176c0.616,4.153,1.933,8.075,3.822,11.649c0.034,0.064,0.064,0.128,0.098,0.192
				c0.214,0.4,0.44,0.792,0.669,1.183c0.078,0.133,0.151,0.269,0.231,0.402c0.186,0.31,0.383,0.612,0.578,0.915
				c0.133,0.207,0.261,0.416,0.398,0.62c0.143,0.212,0.294,0.418,0.441,0.627c0.201,0.286,0.399,0.574,0.608,0.855
				c0.074,0.099,0.153,0.194,0.228,0.292c0.99,1.301,2.065,2.547,3.235,3.716c1.164,1.164,2.405,2.235,3.7,3.222
				c0.104,0.08,0.205,0.163,0.31,0.242c0.278,0.207,0.563,0.403,0.847,0.602c0.211,0.148,0.419,0.301,0.633,0.445
				c0.203,0.136,0.411,0.264,0.617,0.396c0.305,0.196,0.609,0.394,0.919,0.581c0.131,0.079,0.265,0.151,0.397,0.228
				c0.392,0.229,0.786,0.456,1.187,0.671c0.063,0.034,0.127,0.064,0.19,0.097c3.575,1.889,7.497,3.207,11.65,3.823
				c0.058,0.009,0.118,0.014,0.176,0.022c0.528,0.076,1.058,0.145,1.592,0.197c0.246,0.025,0.493,0.037,0.74,0.056
				c0.354,0.028,0.705,0.061,1.062,0.079c0.612,0.031,1.226,0.047,1.842,0.047c20.198,0,36.571-16.374,36.571-36.571
				c0-0.616-0.016-1.231-0.047-1.843c-0.017-0.352-0.05-0.699-0.078-1.048c-0.02-0.251-0.032-0.503-0.057-0.752
				c-0.052-0.528-0.12-1.051-0.195-1.572c-0.009-0.066-0.015-0.132-0.025-0.198c-0.534-3.601-1.595-7.028-3.098-10.206
				c-0.002-0.003-0.003-0.007-0.005-0.01c-0.227-0.48-0.467-0.953-0.715-1.422c-0.035-0.067-0.068-0.136-0.104-0.203
				c-0.212-0.396-0.436-0.784-0.662-1.17c-0.08-0.138-0.156-0.277-0.238-0.414c-0.183-0.305-0.377-0.602-0.569-0.9
				c-0.136-0.212-0.267-0.427-0.408-0.636c-0.138-0.205-0.284-0.405-0.427-0.607c-0.205-0.293-0.408-0.588-0.622-0.875
				c-0.068-0.091-0.14-0.177-0.208-0.267c-0.995-1.31-2.076-2.563-3.252-3.739c-1.175-1.175-2.426-2.254-3.733-3.248
				c-0.092-0.07-0.181-0.144-0.273-0.213c-0.287-0.214-0.581-0.416-0.874-0.621c-0.203-0.142-0.402-0.289-0.607-0.427
				c-0.21-0.141-0.425-0.272-0.637-0.409c-0.298-0.192-0.595-0.385-0.899-0.568c-0.137-0.082-0.277-0.158-0.415-0.239
				c-0.386-0.226-0.774-0.449-1.169-0.661c-0.068-0.036-0.137-0.069-0.205-0.105c-0.468-0.247-0.94-0.486-1.419-0.713
				c-0.003-0.002-0.006-0.003-0.01-0.004c-3.178-1.504-6.606-2.564-10.207-3.098c-0.066-0.01-0.132-0.016-0.198-0.025
				c-0.521-0.074-1.044-0.143-1.572-0.195c-0.25-0.025-0.502-0.037-0.752-0.057c-0.349-0.027-0.696-0.06-1.048-0.078
				c-0.612-0.031-1.227-0.047-1.843-0.047c-20.198,0-36.571,16.374-36.571,36.571c0,0.616,0.016,1.231,0.047,1.843
				C292.651,148.402,292.684,148.749,292.711,149.098z M320.016,137.064c0-5.049,4.093-9.143,9.143-9.143s9.143,4.093,9.143,9.143
				c5.049,0,9.143,4.093,9.143,9.143c0,5.049-4.093,9.143-9.143,9.143c0,5.049-4.093,9.143-9.143,9.143s-9.143-4.093-9.143-9.143
				c-5.049,0-9.143-4.093-9.143-9.143C310.873,141.158,314.966,137.064,320.016,137.064z"/>
			<path d="M441.067,119.053c18.651,4.663,39.863-13.623,53.12-28.8c-12.151-1.313-23.435-6.922-31.817-15.817
				c-4.728-5.074-10.677-8.851-17.28-10.971c-15.086-5.12-35.291,0.091-48,4.846c8.375,15.538,15.736,31.602,22.034,48.091
				C426.527,116.237,433.916,117.13,441.067,119.053z"/>
			<path d="M341.867,25.704c-10.331-12.8-23.863-25.051-37.851-25.6c-12.173,0.749-23.283,7.185-29.989,17.371
				C296.916,16.997,319.757,19.768,341.867,25.704z"/>
			<path d="M70.964,119.053c7.151-1.923,14.54-2.815,21.943-2.651c6.26-16.505,13.622-32.572,22.034-48.091
				c-11.52-4.297-32.091-10.149-48-4.846c-6.603,2.12-12.552,5.898-17.28,10.971C41.279,83.33,29.996,88.94,17.844,90.253
				C31.101,105.43,52.313,123.716,70.964,119.053z"/>
			<path d="M429.382,494.542c-5.058,1.936-8.504,6.668-8.795,12.076v5.303h27.429v-4.571c-0.001-3.636-1.449-7.123-4.023-9.691
				C440.165,493.827,434.44,492.606,429.382,494.542z"/>
			<path d="M339.124,449.11c12.491-9.021,23.241-20.236,31.726-33.097c-14.08-23.771-61.989-41.234-114.834-41.234
				s-100.754,17.463-114.834,41.234c8.485,12.862,19.235,24.076,31.726,33.097c11.929,8.614,19.029,22.406,19.109,37.12
				c-0.042,3.709-0.565,7.397-1.554,10.971c20.388,9.998,42.849,15.042,65.554,14.72c22.705,0.322,45.166-4.722,65.554-14.72
				c-0.989-3.575-1.512-7.263-1.554-10.971C320.095,471.516,327.195,457.724,339.124,449.11z"/>
			<path d="M388.587,493.636c-3.639-0.005-7.13,1.438-9.703,4.011c-2.573,2.573-4.016,6.064-4.011,9.703v4.571h27.429v-4.571
				c0.005-3.639-1.438-7.13-4.011-9.703C395.717,495.074,392.226,493.631,388.587,493.636z"/>
			<path d="M451.764,137.704c-1.515,0.213-3.042,0.335-4.571,0.366c-3.545,0.02-7.078-0.41-10.514-1.28
				c-3.666-0.912-7.394-1.554-11.154-1.92c18.103,56.594,23.771,124.16-27.52,156.251c-74.514,46.537-139.246,47.086-141.989,47.086
				c-2.743,0-67.474-0.549-141.989-47.086c-51.291-32.091-45.623-99.657-27.52-156.251c-3.761,0.359-7.49,1-11.154,1.92
				c-3.436,0.87-6.969,1.3-10.514,1.28c-1.53-0.031-3.056-0.153-4.571-0.366C48.107,163.396,0.016,269.91,0.016,347.35
				c-0.239,29.578,2.271,59.115,7.497,88.229c6.4,31.909,17.737,60.983,38.217,71.771c0.027-12.94,7.829-24.596,19.782-29.554
				c11.953-4.957,25.715-2.244,34.892,6.879c0.091,0.091,0.091,0.183,0.183,0.274c9.102-9.284,22.915-12.14,34.952-7.225
				s19.904,16.624,19.905,29.625v3.383c10.824-3.253,18.248-13.201,18.286-24.503c-0.076-8.866-4.393-17.16-11.611-22.309
				c-16.64-12.16-45.623-38.583-52.297-78.537c-0.808-4.999,2.59-9.706,7.589-10.514c4.999-0.808,9.706,2.59,10.514,7.589
				c0.947,5.204,2.354,10.314,4.206,15.269c22.126-24.869,69.577-41.234,123.886-41.234s101.76,16.366,123.886,41.234
				c1.852-4.955,3.259-10.064,4.206-15.269c0.808-4.999,5.515-8.396,10.514-7.589c4.999,0.808,8.396,5.515,7.589,10.514
				c-6.674,39.954-35.657,66.377-52.297,78.537c-7.218,5.149-11.535,13.442-11.611,22.309c0.038,11.302,7.462,21.25,18.286,24.503
				v-3.383c-0.024-13.016,7.851-24.744,19.908-29.647c12.057-4.903,25.883-2,34.949,7.339c9.055-9.369,22.897-12.291,34.967-7.383
				c12.07,4.908,19.943,16.662,19.89,29.691c40.869-21.669,45.714-116.297,45.714-160
				C512.016,269.819,463.924,163.396,451.764,137.704z"/>
			<path d="M72.419,494.703c-5.093,2.137-8.406,7.123-8.403,12.647v4.571h27.429v-5.76c-0.307-3.262-1.766-6.309-4.114-8.594
				C83.391,493.695,77.512,492.566,72.419,494.703z"/>
			<path d="M123.444,493.636c-3.639-0.005-7.13,1.438-9.703,4.011c-2.573,2.573-4.016,6.064-4.011,9.703v4.571h27.429v-4.571
				c0.005-3.639-1.438-7.13-4.011-9.703S127.083,493.631,123.444,493.636z"/>
			<path d="M107.719,128.287v0.274c-0.091,0.183-0.183,0.274-0.274,0.457c-0.3,0.823-0.598,1.649-0.893,2.478
				c-18.608,52.222-27.653,116.092,17.167,144.082c37.113,24.224,79.464,39.155,123.474,43.595c2.934,0.296,5.875,0.545,8.823,0.748
				c47.141-3.345,92.662-18.603,132.297-44.343c45.531-28.434,35.474-93.897,16.274-146.56c-0.091-0.183-0.183-0.274-0.274-0.457
				v-0.274c-7.617-20.688-17.041-40.666-28.16-59.703c-20.023-33.463-92.891-34.56-119.314-32.091h-1.646
				c-5.029-0.457-11.703-0.823-19.383-0.823c-32.823,0-83.749,5.943-99.931,32.914c-9.515,16.257-17.768,33.222-24.686,50.743
				C110.005,122.253,108.816,125.27,107.719,128.287z M320.014,92.122c27.058-4.587,53.343,11.526,61.533,37.719
				c1.656,5.297,2.489,10.816,2.469,16.366c-0.024,30.287-24.57,54.833-54.857,54.857c-1.862,0.002-3.724-0.089-5.577-0.274
				c-27.301-2.802-48.331-25.347-49.232-52.776C273.449,120.584,292.956,96.709,320.014,92.122z M256.016,265.064
				c11.794,0,22.309-0.366,31.726-0.914l24.229-40.411c1.457-2.329,3.864-3.9,6.583-4.297c0.423-0.073,0.851-0.103,1.28-0.091
				c2.317-0.03,4.552,0.857,6.217,2.469l30.446,28.617c3.887-1.602,7.335-4.11,10.057-7.314c0.743-2.252,2.375-4.101,4.516-5.12
				c2.141-1.019,4.606-1.118,6.821-0.274c4.827,1.792,7.343,7.108,5.669,11.977c-1.006,2.834-5.486,11.794-24.96,19.749
				c-0.167,0.102-0.354,0.164-0.549,0.183c-18.194,7.314-49.189,13.714-102.034,13.714s-83.84-6.4-102.034-13.714
				c-0.183-0.091-0.366-0.091-0.457-0.183c-19.566-7.954-24.046-16.823-25.051-19.749c-1.57-4.794,0.993-9.961,5.76-11.611
				c4.537-1.542,9.493,0.697,11.337,5.12c2.729,3.135,6.137,5.605,9.966,7.223l30.446-28.617c1.675-1.597,3.903-2.482,6.217-2.469
				c0.429-0.015,0.858,0.015,1.28,0.091c2.719,0.397,5.126,1.968,6.583,4.297l24.229,40.411
				C233.707,264.79,244.221,265.064,256.016,265.064z M195.185,92.666c25.985,5.987,43.902,29.791,42.466,56.417
				s-21.809,48.366-48.287,51.524c-2.147,0.337-4.319,0.49-6.491,0.457c-30.287-0.024-54.833-24.57-54.857-54.857
				c0.003-7.345,1.463-14.617,4.297-21.394C142.673,100.242,169.2,86.679,195.185,92.666z"/>
			<path d="M146.427,149.111c0.02,0.246,0.032,0.494,0.056,0.74c0.053,0.535,0.122,1.065,0.197,1.592
				c0.008,0.059,0.014,0.118,0.022,0.176c0.616,4.153,1.934,8.076,3.823,11.65c0.033,0.063,0.064,0.127,0.097,0.19
				c0.215,0.401,0.442,0.795,0.671,1.187c0.077,0.132,0.149,0.266,0.228,0.397c0.187,0.311,0.385,0.615,0.581,0.919
				c0.132,0.206,0.259,0.414,0.396,0.617c0.143,0.213,0.295,0.42,0.443,0.63c0.2,0.285,0.397,0.572,0.605,0.851
				c0.076,0.102,0.158,0.2,0.235,0.302c0.989,1.298,2.061,2.541,3.228,3.707c1.164,1.164,2.404,2.234,3.698,3.221
				c0.105,0.08,0.206,0.164,0.312,0.243c0.278,0.207,0.563,0.403,0.847,0.602c0.211,0.148,0.419,0.301,0.633,0.445
				c0.203,0.136,0.411,0.264,0.617,0.396c0.305,0.196,0.609,0.394,0.919,0.581c0.131,0.079,0.265,0.151,0.397,0.228
				c0.392,0.229,0.786,0.456,1.187,0.671c0.063,0.034,0.127,0.064,0.19,0.097c3.575,1.889,7.497,3.207,11.65,3.823
				c0.058,0.009,0.118,0.014,0.176,0.022c0.528,0.076,1.058,0.145,1.592,0.197c0.246,0.025,0.493,0.037,0.74,0.056
				c0.354,0.028,0.705,0.061,1.062,0.079c0.612,0.031,1.226,0.047,1.842,0.047c0.616,0,1.231-0.016,1.843-0.047
				c0.352-0.017,0.699-0.05,1.048-0.078c0.251-0.02,0.503-0.032,0.752-0.057c0.535-0.053,1.065-0.122,1.592-0.197
				c0.059-0.008,0.118-0.014,0.176-0.022c3.604-0.535,7.034-1.596,10.215-3.102c0.001,0,0.001-0.001,0.002-0.001
				c0.481-0.228,0.955-0.468,1.424-0.716c0.067-0.035,0.135-0.067,0.201-0.103c0.395-0.212,0.783-0.435,1.17-0.661
				c0.138-0.08,0.278-0.156,0.415-0.239c0.305-0.184,0.602-0.377,0.901-0.57c0.212-0.136,0.426-0.267,0.635-0.407
				c0.206-0.139,0.406-0.286,0.61-0.429c0.292-0.204,0.585-0.406,0.871-0.62c0.094-0.07,0.184-0.145,0.277-0.216
				c1.307-0.993,2.557-2.072,3.73-3.245c1.176-1.176,2.257-2.429,3.252-3.739c0.068-0.09,0.141-0.177,0.208-0.267
				c0.215-0.289,0.419-0.585,0.625-0.879c0.141-0.201,0.286-0.398,0.423-0.601c0.141-0.211,0.274-0.427,0.411-0.641
				c0.191-0.297,0.384-0.593,0.567-0.896c0.082-0.137,0.159-0.278,0.239-0.416c0.225-0.386,0.449-0.773,0.66-1.168
				c0.037-0.069,0.07-0.14,0.107-0.209c0.246-0.467,0.485-0.938,0.712-1.417c0.002-0.003,0.003-0.006,0.004-0.01
				c1.504-3.178,2.564-6.606,3.098-10.207c0.01-0.066,0.016-0.132,0.025-0.198c0.074-0.521,0.143-1.044,0.195-1.572
				c0.025-0.25,0.037-0.502,0.057-0.752c0.027-0.349,0.06-0.696,0.078-1.048c0.031-0.612,0.047-1.227,0.047-1.843
				c0-0.616-0.016-1.231-0.047-1.843c-0.017-0.352-0.05-0.699-0.078-1.048c-0.02-0.251-0.032-0.503-0.057-0.752
				c-0.052-0.528-0.12-1.051-0.195-1.572c-0.009-0.066-0.015-0.132-0.025-0.198c-0.534-3.601-1.595-7.028-3.098-10.206
				c-0.002-0.003-0.003-0.007-0.005-0.01c-0.227-0.479-0.466-0.95-0.712-1.417c-0.036-0.069-0.07-0.14-0.107-0.208
				c-0.212-0.395-0.435-0.782-0.66-1.167c-0.081-0.138-0.157-0.279-0.239-0.416c-0.183-0.303-0.376-0.599-0.567-0.897
				c-0.137-0.213-0.269-0.429-0.41-0.64c-0.137-0.204-0.282-0.401-0.423-0.602c-0.206-0.295-0.41-0.591-0.625-0.879
				c-0.068-0.091-0.14-0.177-0.208-0.267c-0.995-1.31-2.076-2.563-3.252-3.739s-2.429-2.257-3.739-3.252
				c-0.09-0.068-0.177-0.141-0.267-0.208c-0.289-0.215-0.585-0.419-0.879-0.625c-0.201-0.141-0.398-0.286-0.602-0.423
				c-0.211-0.141-0.427-0.274-0.64-0.41c-0.297-0.191-0.594-0.384-0.897-0.567c-0.137-0.083-0.278-0.159-0.416-0.239
				c-0.386-0.225-0.773-0.448-1.167-0.66c-0.069-0.037-0.139-0.07-0.208-0.107c-0.467-0.247-0.938-0.485-1.417-0.712
				c-0.003-0.002-0.007-0.003-0.01-0.005c-3.178-1.504-6.606-2.564-10.207-3.098c-0.065-0.01-0.13-0.015-0.195-0.025
				c-0.522-0.075-1.046-0.143-1.574-0.195c-0.25-0.025-0.502-0.037-0.752-0.057c-0.349-0.027-0.696-0.06-1.048-0.078
				c-0.612-0.031-1.227-0.047-1.843-0.047c-20.198,0-36.571,16.374-36.571,36.571c0,0.616,0.016,1.23,0.047,1.842
				C146.366,148.405,146.399,148.757,146.427,149.111z M173.73,137.064c0-5.049,4.093-9.143,9.143-9.143
				c5.049,0,9.143,4.093,9.143,9.143c5.049,0,9.143,4.093,9.143,9.143c0,5.049-4.093,9.143-9.143,9.143
				c0,5.049-4.093,9.143-9.143,9.143c-5.049,0-9.143-4.093-9.143-9.143c-5.049,0-9.143-4.093-9.143-9.143
				C164.587,141.158,168.68,137.064,173.73,137.064z"/>
		</g>
	</g>
</g>
<g>
</g>
<g>
</g>
<g>
</g>
<g>
</g>
<g>
</g>
<g>
</g>
<g>
</g>
<g>
</g>
<g>
</g>
<g>
</g>
<g>
</g>
<g>
</g>
<g>
</g>
<g>
</g>
<g>
</g>
</svg>
