<?xml version="1.0" encoding="iso-8859-1"?>
<!-- Generator: Adobe Illustrator 19.0.0, SVG Export Plug-In . SVG Version: 6.00 Build 0)  -->
<svg version="1.1" id="Capa_1" xmlns="http://www.w3.org/2000/svg" xmlns:xlink="http://www.w3.org/1999/xlink" x="0px" y="0px"
	 viewBox="0 0 512.158 512.158" style="enable-background:new 0 0 512.158 512.158;" xml:space="preserve">
<g>
	<g>
		<g>
			<path d="M374.936,324.661c0-42.902-53.321-77.804-118.857-77.804s-118.857,34.902-118.857,77.804
				c0,14.257,4.996,24.282,27.969,28.957c0.075-0.216,0.231-0.388,0.321-0.597c5.852-34.05,44.189-60.449,90.566-60.449
				c44.986,0,82.402,24.84,89.954,57.406c1.039,0.932,1.848,2.093,2.361,3.391C370.184,348.588,374.936,338.669,374.936,324.661z"/>
			<path d="M255.874,109.714c30.297,0,54.857-24.56,54.857-54.857C310.731,24.56,286.17,0,255.874,0s-54.857,24.56-54.857,54.857
				C201.05,85.14,225.591,109.681,255.874,109.714z M255.874,18.286c20.198,0,36.571,16.374,36.571,36.571
				c0,20.198-16.374,36.571-36.571,36.571c-20.198,0-36.571-16.374-36.571-36.571C219.324,34.668,235.685,18.307,255.874,18.286z"/>
			<circle cx="255.878" cy="54.857" r="18.286"/>
			<path d="M410.284,130.438c4.553-1.887,9.782,0.169,11.83,4.652l29.536,64.821c1.858,4.082,0.481,8.909-3.25,11.397
				l-26.379,17.583c3.474,5,6.652,10.198,9.518,15.569l39.906-26.603c3.701-2.481,5.077-7.267,3.259-11.335l-2.562-5.634
				c-5.455-12.027-10.943-24.083-16.464-36.17l-6.116-13.473c-4.375-9.629-8.768-19.278-13.179-28.946
				c-2.027-4.518-4.027-8.884-6.036-13.25c-1.196-2.656-2.313-5.357-3.419-8.071c-1.938-5.144-4.284-10.124-7.018-14.893
				c-2.504-4.165-5.871-7.745-9.875-10.5c-7.041-5.039-16.123-6.255-24.241-3.246c-14.044,7.69-19.383,25.184-12.027,39.406
				C378.886,126.823,395.06,135.102,410.284,130.438z"/>
			<path d="M429.793,307.75c0-67.129-61.999-127.169-143.299-141.231c3.366,10.867,10.301,20.279,19.683,26.713
				c3.56,2.091,5.28,6.306,4.199,10.291c-1.081,3.985-4.695,6.753-8.824,6.758c-1.576,0-3.124-0.413-4.491-1.196
				c-20.922-13.895-33.071-37.705-32.045-62.799c-0.01-6.413,0.491-12.816,1.498-19.15c-7.046,1.152-14.232,1.152-21.277,0.001
				c1.005,6.333,1.504,12.737,1.494,19.149c1.026,25.095-11.123,48.904-32.045,62.799c-2.838,1.624-6.327,1.609-9.151-0.039
				c-2.824-1.649-4.552-4.68-4.532-7.95s1.785-6.28,4.629-7.894c9.339-6.425,16.245-15.804,19.608-26.63
				C144.166,180.912,82.365,240.917,82.365,307.75c0,46.869,26.946,74.804,84.512,87.335c-0.136-7.504-0.455-15.159-0.959-22.735
				c-21.898-3.587-46.982-13.413-46.982-47.689c0-52.982,61.518-96.089,137.143-96.089s137.143,43.107,137.143,96.089
				c0,33.699-24.088,43.711-45.4,47.459c-0.504,7.542-0.825,15.164-0.965,22.64C403.351,382.155,429.793,354.322,429.793,307.75z"/>
			<path d="M40.713,217.857l39.951,26.633c2.87-5.369,6.052-10.565,9.528-15.562l-26.435-17.62
				c-3.731-2.488-5.108-7.315-3.25-11.397l29.536-64.821c2.058-4.473,7.278-6.525,11.83-4.652
				c15.242,4.671,31.435-3.633,36.536-18.737c7.337-14.225,1.978-31.706-12.071-39.375c-8.121-2.99-17.195-1.764-24.232,3.272
				c-3.989,2.745-7.344,6.311-9.839,10.46c-2.741,4.777-5.094,9.766-7.036,14.92c-1.107,2.714-2.223,5.415-3.402,8.027
				c-2.027,4.411-4.027,8.777-6.027,13.228c-4.446,9.723-8.848,19.394-13.205,29.013l-6.107,13.455
				c-5.545,12.12-11.036,24.183-16.473,36.187l-2.545,5.589C35.632,210.554,37.002,215.362,40.713,217.857z"/>
			<polygon points="87.375,496.613 89.633,494.949 83.16,498.149 			"/>
			<path d="M493.793,493.714h-19.295c-3.423-0.002-6.559-1.916-8.127-4.959c-1.568-3.043-1.305-6.707,0.68-9.496l25.054-35.107
				c1.418-2.06,1.969-4.595,1.536-7.058c-0.488-2.379-1.897-4.469-3.92-5.813l-73.423-48.949
				c-4.921,4.256-10.213,8.063-15.812,11.377l63.369,42.3c2.056,1.375,3.467,3.525,3.911,5.959c0.444,2.434-0.117,4.943-1.554,6.956
				l-34.402,48.165c-0.08,0.138-0.17,0.277-0.259,0.415c-0.17,0.384-0.589,1.152-0.804,1.509l-0.393,1l-0.348,0.973
				c-0.008,0.453-0.055,0.904-0.143,1.348c0.027,0.254,0.027,0.875,0.018,1.321l0.241,1.254c0.135,0.419,0.246,0.845,0.33,1.277
				l1.321,2.25c0.432,0.53,0.92,1.012,1.455,1.438c0.241,0.198,0.47,0.41,0.688,0.634c0.628,0.351,1.289,0.641,1.973,0.866
				c0.241,0.08,0.491,0.174,0.732,0.277c0.722,0.214,1.47,0.331,2.223,0.348h54.946c5.049,0,9.143-4.093,9.143-9.143
				S498.843,493.714,493.793,493.714z"/>
			<path d="M342.606,472.75c-17.173-17.173-14.873-77.392-12.784-105.328c-0.134-0.274-0.254-0.556-0.359-0.843
				c-0.016-0.06-0.057-0.104-0.071-0.165c-0.024-1.1-0.087-2.199-0.187-3.295c0.036-0.353,0.018-0.732,0.018-1.076
				c0-28.223-32.813-51.188-73.143-51.188c-38.71,0-70.409,21.172-72.9,47.829c1.953,21.112,7.225,94.774-12.065,114.064
				c-4.159,3.598-5.744,9.346-4.018,14.567C172.034,499.25,198.008,512,256.079,512c0.277,0,0.511,0.134,0.781,0.158
				c0.271-0.024,0.504-0.158,0.781-0.158c58.071,0,84.045-12.75,88.982-24.683C348.35,482.096,346.765,476.348,342.606,472.75z
				 M265.222,484.571c0,5.049-4.093,9.143-9.143,9.143s-9.143-4.093-9.143-9.143v-9.143c0-5.049,4.093-9.143,9.143-9.143
				s9.143,4.093,9.143,9.143V484.571z M265.222,438.857c0,5.049-4.093,9.143-9.143,9.143s-9.143-4.093-9.143-9.143v-91.429
				c0-5.049,4.093-9.143,9.143-9.143s9.143,4.093,9.143,9.143V438.857z"/>
			<path d="M22.427,431.286c-2.058,1.384-3.479,3.533-3.946,5.969c-0.385,2.432,0.188,4.919,1.598,6.938l25.027,35.067
				c1.985,2.789,2.248,6.453,0.68,9.496c-1.568,3.043-4.703,4.957-8.127,4.959H18.365c-5.049,0-9.143,4.093-9.143,9.143
				S13.315,512,18.365,512h54.857c0.79-0.005,1.575-0.124,2.33-0.353c0.232-0.103,0.473-0.192,0.714-0.272
				c0.734-0.239,1.441-0.556,2.107-0.946v-0.004c0.902-0.826,1.241-1.103,1.58-1.442l1.232-1.813
				c0.063-0.134,0.554-1.063,0.625-1.196c0.026-0.319,0.089-0.633,0.188-0.938c0.045-0.259,0.205-0.755,0.277-1.031
				c0-0.371,0.063-1.201,0.098-1.536c-0.009-0.071-0.196-0.875-0.205-0.946c-0.054-0.406-0.08-0.814-0.08-1.223
				c-0.063-0.187-0.42-0.951-0.571-1.339l-0.107,0.054c-0.217-0.356-0.408-0.728-0.571-1.112c-0.17-0.246-0.321-0.509-0.473-0.781
				l-34.42-48.196c-1.438-2.013-1.998-4.523-1.554-6.956s1.855-4.583,3.911-5.959l63.145-42.151
				c-5.627-3.287-10.943-7.079-15.883-11.328L22.427,431.286z"/>
		</g>
	</g>
</g>
<g>
</g>
<g>
</g>
<g>
</g>
<g>
</g>
<g>
</g>
<g>
</g>
<g>
</g>
<g>
</g>
<g>
</g>
<g>
</g>
<g>
</g>
<g>
</g>
<g>
</g>
<g>
</g>
<g>
</g>
</svg>
