<?xml version="1.0" encoding="iso-8859-1"?>
<!-- Generator: Adobe Illustrator 19.0.0, SVG Export Plug-In . SVG Version: 6.00 Build 0)  -->
<svg version="1.1" id="Capa_1" xmlns="http://www.w3.org/2000/svg" xmlns:xlink="http://www.w3.org/1999/xlink" x="0px" y="0px"
	 viewBox="0 0 512.035 512.035" style="enable-background:new 0 0 512.035 512.035;" xml:space="preserve">
<g transform="translate(-1 -1)">
	<g>
		<g>
			<path d="M76.669,437.044l45.721-30.563c-3.925-4.642-7.78-9.359-11.563-14.149l-60.034,39.988
				c-2.058,1.384-3.479,3.533-3.946,5.969c-0.385,2.432,0.188,4.919,1.598,6.938l25.027,35.067c1.985,2.789,2.248,6.453,0.68,9.496
				c-1.568,3.043-4.703,4.957-8.127,4.959H46.732c-5.049,0-9.143,4.093-9.143,9.143s4.093,9.143,9.143,9.143h54.857
				c0.79-0.005,1.575-0.124,2.33-0.353c0.232-0.103,0.473-0.192,0.714-0.272c0.734-0.239,1.441-0.556,2.107-0.946v-0.004
				c0.902-0.826,1.241-1.103,1.58-1.442l1.232-1.813c0.063-0.134,0.554-1.063,0.625-1.196c0.027-0.319,0.09-0.633,0.188-0.938
				c0.045-0.259,0.205-0.755,0.277-1.031c0-0.371,0.063-1.201,0.098-1.536c-0.009-0.071-0.197-0.875-0.205-0.946
				c-0.054-0.406-0.08-0.814-0.08-1.223c-0.063-0.187-0.42-0.951-0.571-1.339l-0.107,0.054c-0.217-0.356-0.408-0.728-0.571-1.112
				c-0.17-0.246-0.321-0.509-0.473-0.781l-34.42-48.196c-1.437-2.013-1.997-4.523-1.553-6.956
				C73.203,440.57,74.614,438.42,76.669,437.044z"/>
			<path d="M257.018,218.892c11.094,0,21.095-6.683,25.341-16.932c4.245-10.249,1.899-22.047-5.946-29.891
				c-7.845-7.844-19.642-10.191-29.891-5.946c-10.249,4.245-16.932,14.247-16.932,25.341
				C229.606,206.605,241.876,218.876,257.018,218.892z M248.606,188.004L248.606,188.004c0.421-1.13,1.076-2.158,1.921-3.018
				c3.668-3.38,9.315-3.38,12.982,0c0.845,0.86,1.5,1.888,1.92,3.018c0.976,2.214,0.976,4.737,0,6.951
				c-0.465,1.107-1.114,2.128-1.92,3.018c-1.755,1.666-4.072,2.611-6.491,2.647c-2.424-0.016-4.748-0.964-6.491-2.647
				c-0.806-0.89-1.455-1.911-1.92-3.018C247.63,192.741,247.63,190.218,248.606,188.004z"/>
			<path d="M42.071,73.174c14.769-1.607,28.416-8.64,38.295-19.737c19.08-19.214,23.83-41.21,16.161-48.933
				c-2.778-2.483-6.444-3.734-10.16-3.469C71.597,2.644,57.951,9.677,48.071,20.772c-19.08,19.214-23.831,41.21-16.161,48.933
				C34.689,72.188,38.355,73.439,42.071,73.174z"/>
			<path d="M397.156,106.023L397.156,106.023c8.264-13.124,19.933-23.761,33.763-30.777c-3.599-2.745-7.011-5.727-10.214-8.925
				c-3.144-3.161-6.079-6.524-8.786-10.066c-6.956,13.819-17.512,25.504-30.555,33.824
				C385.373,96.505,390.769,101.953,397.156,106.023z"/>
			<path d="M83.117,75.245c13.831,7.017,25.499,17.654,33.762,30.778c6.39-4.067,11.787-9.515,15.792-15.944
				c-13.044-8.32-23.599-20.007-30.551-33.829c-2.709,3.544-5.645,6.908-8.79,10.071C90.128,69.519,86.716,72.5,83.117,75.245z"/>
			<path d="M257.018,264.607c45.884,0,100.571-12.688,100.571-73.143c0-55.544-45.027-100.571-100.571-100.571
				S156.446,135.92,156.446,191.464C156.446,251.919,211.134,264.607,257.018,264.607z M257.018,145.749
				c25.247,0,45.714,20.467,45.714,45.714c0,25.247-20.467,45.714-45.714,45.714s-45.714-20.467-45.714-45.714
				C211.333,166.229,231.783,145.779,257.018,145.749z"/>
			<path d="M451.803,240.995c-0.85-7.121-4.93-13.455-11.063-17.174c-4.926-1.482-10.266-0.434-14.268,2.799
				c-4.267,2.686-9.904,1.41-12.597-2.853c-2.694-4.262-1.428-9.901,2.83-12.603c4.218-2.761,8.908-4.722,13.835-5.788
				c-0.906-28.287-10.197-55.666-26.694-78.662l-0.093,0.038c-0.279,0.134-0.565,0.253-0.856,0.357
				c-0.685,0.182-1.388,0.283-2.096,0.302c-0.129,0.006-0.252,0.055-0.382,0.055l-0.051-0.011c-1.107-0.029-2.199-0.26-3.222-0.682
				c-0.124-0.049-0.256-0.026-0.378-0.08c-0.212-0.092-0.417-0.219-0.627-0.314l-0.078-0.03l-0.025-0.021
				c-15.418-7.179-27.782-19.604-34.884-35.057l-0.029-0.038l-0.017-0.054c-0.112-0.25-0.259-0.494-0.367-0.745
				c-0.123-0.422-0.214-0.853-0.272-1.289c-0.194-0.601-0.325-1.221-0.391-1.849c-0.004-0.564,0.046-1.128,0.152-1.682
				c0.029-0.222,0.013-0.448,0.059-0.666c-62.798-40.816-143.744-40.816-206.542,0c0.046,0.217,0.029,0.441,0.059,0.662
				c0.105,0.556,0.156,1.122,0.152,1.688c-0.065,0.627-0.196,1.246-0.391,1.846c-0.058,0.436-0.149,0.868-0.272,1.29
				c-0.108,0.251-0.256,0.495-0.367,0.745l-0.017,0.054l-0.027,0.037c-7.099,15.456-19.464,27.883-34.885,35.058l-0.025,0.021
				l-0.078,0.03c-0.21,0.095-0.415,0.221-0.627,0.314c-0.123,0.054-0.254,0.031-0.378,0.08c-1.023,0.422-2.115,0.653-3.222,0.682
				l-0.051,0.011c-0.13,0-0.252-0.05-0.382-0.055c-0.708-0.019-1.411-0.121-2.096-0.302c-0.291-0.104-0.577-0.224-0.856-0.357
				l-0.093-0.038c-16.497,22.996-25.788,50.375-26.694,78.662c4.927,1.065,9.617,3.027,13.835,5.788
				c4.257,2.702,5.523,8.34,2.83,12.603c-2.694,4.262-8.33,5.539-12.597,2.853c-4.001-3.233-9.342-4.281-14.268-2.799
				c-6.134,3.72-10.214,10.056-11.063,17.178c-5.125,23.152,5.134,47.143,15.839,67.554c18.168,34.331,40.412,66.343,66.25,95.344
				c21.679,24.344,54.652,57.866,90.473,67.862l1.241,0.344c13.777,3.705,28.29,3.696,42.062-0.027l1.161-0.321
				c35.803-9.991,68.777-43.513,90.455-67.857c25.838-29,48.083-61.013,66.25-95.344
				C446.669,288.142,456.928,264.151,451.803,240.995z M257.018,72.607c65.612,0.074,118.783,53.245,118.857,118.857
				c0,58.96-42.214,91.429-118.857,91.429s-118.857-32.469-118.857-91.429C138.235,125.851,191.406,72.681,257.018,72.607z
				 M266.161,301.178v9.143c0,5.049-4.093,9.143-9.143,9.143c-5.049,0-9.143-4.093-9.143-9.143v-9.143
				c0-5.049,4.093-9.143,9.143-9.143C262.067,292.035,266.161,296.129,266.161,301.178z M409.767,271.071L409.767,271.071
				c-0.821,0.822-6.718,6.609-16.192,14.573c-0.205,0.816-0.526,1.598-0.951,2.324c-0.259,0.384-25.688,38.871-27.277,70.536
				c-0.013,0.255-0.144,0.465-0.177,0.713c-0.198,1.183-0.591,2.326-1.162,3.381c-0.127,0.218-0.147,0.467-0.295,0.678
				c-11.535,16.509-24.458,32.004-38.629,46.316l-0.006,0.005c-20.006,19.873-44.554,37.867-68.062,37.867
				s-48.057-17.995-68.065-37.868l-0.002-0.002c-14.171-14.312-27.094-29.807-38.629-46.317c-0.147-0.212-0.167-0.461-0.295-0.68
				c-0.571-1.055-0.964-2.197-1.162-3.38c-0.032-0.248-0.164-0.458-0.177-0.713c-1.589-31.759-27.018-70.147-27.268-70.531
				c-0.429-0.726-0.751-1.51-0.958-2.327c-9.475-7.965-15.373-13.753-16.194-14.575c-3.529-3.577-3.511-9.332,0.042-12.886
				c3.553-3.554,9.308-3.575,12.886-0.046c0.705,0.705,71.393,70.469,139.822,70.469c68.562,0,139.116-69.759,139.822-70.464
				c2.303-2.339,5.684-3.264,8.858-2.423c3.173,0.842,5.652,3.32,6.493,6.493S412.107,268.768,409.767,271.071z"/>
			<path d="M154.394,310.839c6.415,13.881,10.568,28.7,12.302,43.893c8.548,12.093,17.881,23.612,27.938,34.481
				c16.565-16.311,39.157-25.016,62.384-24.035c23.227-0.98,45.819,7.724,62.384,24.036c10.058-10.87,19.391-22.388,27.938-34.482
				c1.733-15.194,5.886-30.012,12.301-43.893c-28.162,18.322-65.075,36.054-102.624,36.054S182.556,329.161,154.394,310.839z"/>
			<path d="M465.955,20.767c-9.877-11.093-23.52-18.125-38.286-19.732c-3.717-0.266-7.382,0.986-10.161,3.469
				c-7.67,7.723-2.92,29.719,16.161,48.933c9.879,11.096,23.525,18.13,38.295,19.737c3.717,0.266,7.382-0.986,10.161-3.469
				C489.795,61.981,485.045,39.986,465.955,20.767z"/>
			<path d="M467.303,494.749h-19.295c-3.423-0.002-6.559-1.916-8.127-4.959c-1.568-3.043-1.305-6.707,0.68-9.496l25.054-35.107
				c1.418-2.06,1.969-4.595,1.536-7.058c-0.487-2.379-1.897-4.469-3.92-5.813l-60.026-39.983
				c-3.769,4.799-7.623,9.515-11.561,14.148l45.721,30.563c2.056,1.376,3.466,3.526,3.911,5.959
				c0.444,2.433-0.116,4.943-1.553,6.956l-34.402,48.165c-0.08,0.138-0.17,0.277-0.259,0.415c-0.17,0.384-0.589,1.152-0.804,1.509
				l-0.393,1l-0.348,0.973c-0.008,0.453-0.055,0.904-0.143,1.348c0.027,0.254,0.027,0.875,0.018,1.321l0.241,1.255
				c0.135,0.419,0.246,0.845,0.33,1.277l1.321,2.25c0.432,0.53,0.92,1.012,1.455,1.438c0.241,0.198,0.47,0.41,0.688,0.634
				c0.628,0.351,1.289,0.641,1.973,0.866c0.241,0.08,0.491,0.174,0.732,0.277c0.722,0.214,1.47,0.331,2.223,0.348h54.946
				c5.049,0,9.143-4.093,9.143-9.143S472.353,494.749,467.303,494.749z"/>
			<path d="M257.018,383.464c-21.33,0-40.536,7.424-49.567,18.59c17.021,15.802,34.714,27.124,49.567,27.124
				c14.853,0,32.546-11.323,49.567-27.124C297.553,390.887,278.348,383.464,257.018,383.464z"/>
		</g>
	</g>
</g>
<g>
</g>
<g>
</g>
<g>
</g>
<g>
</g>
<g>
</g>
<g>
</g>
<g>
</g>
<g>
</g>
<g>
</g>
<g>
</g>
<g>
</g>
<g>
</g>
<g>
</g>
<g>
</g>
<g>
</g>
</svg>
