<?xml version="1.0" encoding="iso-8859-1"?>
<!-- Generator: Adobe Illustrator 19.0.0, SVG Export Plug-In . SVG Version: 6.00 Build 0)  -->
<svg version="1.1" id="Capa_1" xmlns="http://www.w3.org/2000/svg" xmlns:xlink="http://www.w3.org/1999/xlink" x="0px" y="0px"
	 viewBox="0 0 512 512" style="enable-background:new 0 0 512 512;" xml:space="preserve">
<g>
	<g>
		<g>
			<path d="M80.503,88.777c-2.15,0.008-4.282,0.379-6.309,1.097c-9.455,3.485-14.311,13.96-10.862,23.428
				c3.45,9.468,13.907,14.363,23.387,10.949c4.61-1.606,8.35-5.047,10.331-9.509c2.081-4.388,2.312-9.429,0.64-13.989
				C95.022,93.566,88.17,88.792,80.503,88.777z"/>
			<path d="M255.771,109.714c30.297,0,54.857-24.56,54.857-54.857c0-0.366-0.091-0.731-0.091-1.097
				c-6.207-4.78-13.115-8.573-20.48-11.246c1.452,3.956,2.225,8.129,2.286,12.343c0,20.198-16.374,36.571-36.571,36.571
				c-20.198,0-36.571-16.374-36.571-36.571c0.061-4.214,0.833-8.387,2.286-12.343c-7.365,2.672-14.273,6.466-20.48,11.246
				c0,0.366-0.091,0.731-0.091,1.097C200.914,85.154,225.474,109.714,255.771,109.714z"/>
			<path d="M19.428,307.2L0.594,391.954c-0.204,0.775-0.266,1.58-0.183,2.377c0,0.274-0.091,0.457-0.091,0.64
				c0,0.366,0.091,0.64,0.091,1.006c-0.444,3.853-0.196,7.754,0.731,11.52c2.356,13.692,15.253,22.968,28.983,20.846
				c5.896-1.585,10.786-5.704,13.349-11.246c3.163-6.546,3.845-14.018,1.92-21.029c-1.973-8.401-7.564-15.497-15.269-19.383
				c-0.366-0.091-0.549-0.366-0.823-0.549c-0.434-0.253-0.833-0.56-1.189-0.914c-0.532-0.441-1.022-0.931-1.463-1.463
				c-0.267-0.365-0.482-0.765-0.64-1.189c-0.351-0.604-0.627-1.249-0.823-1.92c-0.106-0.45-0.167-0.909-0.183-1.371
				c-0.091-0.698-0.091-1.405,0-2.103c0.046-0.272,0.046-0.55,0-0.823l9.783-44.251c0.776-3.349,3.347-5.99,6.674-6.857
				l22.674-5.851c0.476-6.617,1.454-13.188,2.926-19.657L25.92,300.434C22.631,301.247,20.105,303.881,19.428,307.2z"/>
			<path d="M116.434,65.829c-9.955-8.765-22.759-13.607-36.023-13.623c-6.36,0.017-12.67,1.13-18.651,3.291
				c-18.875,6.799-32.497,23.406-35.474,43.246C50.329,75.518,83.082,63.559,116.434,65.829z"/>
			<circle cx="255.771" cy="54.857" r="18.286"/>
			<path d="M485.257,98.743c-0.777-5.155-2.286-10.174-4.48-14.903c-6.142-13.2-17.299-23.403-30.994-28.343
				c-18.741-6.831-39.718-2.867-54.674,10.331C428.46,63.559,461.214,75.518,485.257,98.743z"/>
			<path d="M431.04,88.777c-7.667,0.014-14.52,4.789-17.189,11.977c-1.672,4.56-1.441,9.6,0.64,13.989
				c1.982,4.461,5.722,7.903,10.331,9.509c9.481,3.414,19.938-1.481,23.387-10.949c3.45-9.468-1.407-19.943-10.862-23.428
				C435.322,89.156,433.189,88.785,431.04,88.777z"/>
			<path d="M303.863,28.434C294.184,10.928,275.775,0.044,255.771,0c-20.004,0.044-38.412,10.928-48.091,28.434
				C238.313,14.903,273.229,14.903,303.863,28.434z"/>
			<path d="M255.771,329.143c-44.054,0.821-87.504-10.334-125.714-32.274c11.429,33.463,64.366,59.703,125.714,59.703
				s114.286-26.24,125.714-59.703C343.275,318.809,299.825,329.964,255.771,329.143z"/>
			<path d="M363.565,429.349c-6.733,2.72-13.599,5.1-20.571,7.131l-5.577,22.217c6.459-5.248,13.838-9.247,21.76-11.794
				L363.565,429.349z"/>
			<path d="M122.517,142.349c12.606-15.01,16.247-35.606,9.551-54.029c-0.19-0.317-0.343-0.654-0.457-1.006
				c-7.481-2.374-15.283-3.577-23.131-3.566c2.737,3.202,4.902,6.851,6.4,10.789c6.829,18.982-2.926,39.919-21.851,46.903
				c-4.019,1.444-8.256,2.186-12.526,2.194c-15.367-0.016-29.092-9.616-34.377-24.046c-1.363-3.974-2.073-8.142-2.103-12.343
				c-6.029,4.989-11.215,10.917-15.36,17.554c0.091,0.366,0.183,0.64,0.274,1.006c6.696,18.423,22.712,31.874,42.015,35.286
				C90.254,164.504,109.911,157.359,122.517,142.349z"/>
			<path d="M414.217,262.217c-0.366-0.64-0.731-1.189-1.189-1.92c-0.549-0.914-1.097-2.011-1.829-3.2
				c-9.588-18.996-10.619-41.18-2.834-60.983c1.111-3.219,2.424-6.364,3.931-9.417c1.255-2.756,2.659-5.442,4.206-8.046
				c-3.562-0.719-7.074-1.666-10.514-2.834c-3.321-1.289-6.558-2.785-9.691-4.48c-1.175,6.291-2.888,12.47-5.12,18.469
				c-7.622,23.928-27.165,42.154-51.566,48.091c-0.515,0.073-1.035,0.104-1.554,0.091c-4.757,0.036-8.741-3.593-9.148-8.333
				c-0.407-4.74,2.9-8.995,7.594-9.77c8.171-2.083,15.666-6.24,21.76-12.069c-18.973-10.895-39.654-18.5-61.166-22.491
				c2.603,3.028,5.619,5.675,8.96,7.863c4.344,2.568,5.812,8.154,3.291,12.526c-1.61,2.825-4.611,4.57-7.863,4.571
				c-1.601,0.007-3.177-0.403-4.571-1.189c-20.905-13.911-33.036-37.722-32-62.811c0.008-6.397,0.497-12.785,1.463-19.109
				c-7.028,1.098-14.183,1.098-21.211,0c0.966,6.324,1.454,12.711,1.462,19.109c1.036,25.089-11.095,48.9-32,62.811
				c-4.393,2.525-10.001,1.01-12.526-3.383c-2.525-4.393-1.01-10.001,3.383-12.526c3.341-2.188,6.357-4.835,8.96-7.863
				c-21.512,3.992-42.193,11.596-61.166,22.491c6.078,5.898,13.622,10.064,21.851,12.069c4.634,0.86,7.851,5.107,7.424,9.801
				c-0.427,4.694-4.357,8.291-9.07,8.302c-0.52,0.013-1.04-0.018-1.554-0.091c-24.401-5.937-43.944-24.163-51.566-48.091
				c-2.232-5.998-3.945-12.177-5.12-18.469c-3.134,1.695-6.37,3.191-9.691,4.48c-3.441,1.168-6.953,2.115-10.514,2.834
				c1.577,2.665,3.011,5.412,4.297,8.229c1.47,2.995,2.753,6.079,3.84,9.234c7.771,19.735,6.773,41.845-2.743,60.8
				c-0.05,0.049-0.082,0.114-0.091,0.183c-1.034,1.992-2.194,3.916-3.474,5.76c-1.189,2.103-2.377,4.297-3.383,6.491
				c-7.488,15.286-11.396,32.076-11.429,49.097c0,43.154,24.777,71.68,60.526,89.052c0.22,0.074,0.434,0.166,0.64,0.274
				c35.486,15.373,73.887,22.859,112.549,21.942c6.309,0,12.617-0.183,18.926-0.549h0.549c32.107-1.118,63.702-8.381,93.074-21.394
				c0.206-0.108,0.42-0.2,0.64-0.274c35.749-17.371,60.526-45.897,60.526-89.051c-0.033-14.659-2.954-29.167-8.594-42.697
				C418.944,271.106,416.715,266.588,414.217,262.217z M264.914,256c0-5.049,4.093-9.143,9.143-9.143
				c5.049,0,9.143,4.093,9.143,9.143v18.286c0,5.049-4.093,9.143-9.143,9.143c-5.049,0-9.143-4.093-9.143-9.143V256z M228.343,256
				c0-5.049,4.093-9.143,9.143-9.143s9.143,4.093,9.143,9.143v18.286c0,5.049-4.093,9.143-9.143,9.143s-9.143-4.093-9.143-9.143V256
				z M274.057,411.429h-36.571c-5.049,0-9.143-4.093-9.143-9.143c0-5.049,4.093-9.143,9.143-9.143h36.571
				c5.049,0,9.143,4.093,9.143,9.143C283.2,407.335,279.106,411.429,274.057,411.429z M255.771,374.857
				c-82.011,0-146.286-40.137-146.286-91.429c-0.03-2.294,0.123-4.587,0.457-6.857c0.116-0.786,0.331-1.554,0.64-2.286
				c1.168-2.601,3.469-4.518,6.238-5.196c2.769-0.679,5.696-0.043,7.934,1.722c31.543,25.417,79.269,40.046,131.017,40.046
				c51.749,0,99.474-14.629,131.017-40.046c2.563-2.023,6.004-2.545,9.051-1.371c3.072,1.156,5.276,3.885,5.76,7.131
				c0.334,2.27,0.487,4.563,0.457,6.857C402.057,334.72,337.783,374.857,255.771,374.857z"/>
			<path d="M511.588,395.977c-0.046-0.272-0.046-0.55,0-0.823c0-0.274-0.091-0.549-0.091-0.823c0.083-0.797,0.021-1.602-0.183-2.377
				l-18.743-84.663c-0.642-3.356-3.176-6.033-6.491-6.857l-41.691-10.789c1.546,6.458,2.556,13.033,3.017,19.657l23.131,5.943
				c3.31,0.896,5.868,3.525,6.674,6.857l9.783,44.251c-0.046,0.334-0.046,0.672,0,1.006c0.046,0.548,0.046,1.098,0,1.646
				c0.005,0.62-0.087,1.237-0.274,1.829c-0.158,0.51-0.372,1.001-0.64,1.463c-0.229,0.559-0.537,1.082-0.914,1.554
				c-0.348,0.469-0.746,0.899-1.189,1.28c-0.435,0.365-0.893,0.701-1.371,1.006c-0.274,0.183-0.457,0.457-0.823,0.549
				c-7.682,3.914-13.262,10.998-15.269,19.383c-1.88,7.015-1.199,14.47,1.92,21.029c2.61,5.506,7.48,9.608,13.349,11.246
				c13.72,2.081,26.591-7.176,28.983-20.846C511.768,403.744,512.048,399.835,511.588,395.977z"/>
			<path d="M482.605,125.806c0.091-0.366,0.183-0.64,0.274-1.006c-4.145-6.638-9.331-12.565-15.36-17.554
				c-0.029,4.201-0.74,8.369-2.103,12.343c-5.285,14.43-19.01,24.03-34.377,24.046c-4.27-0.008-8.507-0.751-12.526-2.194
				c-11.272-3.958-19.862-13.227-22.953-24.767c-3.091-11.54-0.283-23.862,7.502-32.924c-7.848-0.011-15.651,1.192-23.131,3.566
				c-0.114,0.351-0.268,0.689-0.457,1.006c-6.696,18.423-3.055,39.018,9.551,54.029c12.606,15.01,32.263,22.155,51.566,18.743
				C459.893,157.679,475.909,144.228,482.605,125.806z"/>
			<path d="M374.628,462.811c-24.411,0-45.257,29.623-45.714,37.12c1.28,3.383,16.914,12.069,45.714,12.069
				c29.074,0,44.709-8.777,45.714-12.16C420.068,492.709,399.131,462.811,374.628,462.811z"/>
			<path d="M136.914,462.811c-24.503,0-45.44,29.897-45.714,37.211c1.006,3.2,16.64,11.977,45.714,11.977
				c28.8,0,44.434-8.686,45.714-12.069C182.171,492.434,161.325,462.811,136.914,462.811z"/>
			<path d="M168.548,436.48c-6.972-2.031-13.838-4.411-20.571-7.131l4.389,17.554c7.922,2.547,15.301,6.547,21.76,11.794
				L168.548,436.48z"/>
		</g>
	</g>
</g>
<g>
</g>
<g>
</g>
<g>
</g>
<g>
</g>
<g>
</g>
<g>
</g>
<g>
</g>
<g>
</g>
<g>
</g>
<g>
</g>
<g>
</g>
<g>
</g>
<g>
</g>
<g>
</g>
<g>
</g>
</svg>
