<?xml version="1.0" encoding="iso-8859-1"?>
<!-- Generator: Adobe Illustrator 19.0.0, SVG Export Plug-In . SVG Version: 6.00 Build 0)  -->
<svg version="1.1" id="Capa_1" xmlns="http://www.w3.org/2000/svg" xmlns:xlink="http://www.w3.org/1999/xlink" x="0px" y="0px"
	 viewBox="0 0 512.2 512.2" style="enable-background:new 0 0 512.2 512.2;" xml:space="preserve">
<g transform="translate(0 -1)">
	<g>
		<g>
			<path d="M109.814,426.93c-29.529-23.183-48.896-56.931-54.014-94.123c-27.517,7.817-46.517,32.93-46.557,61.536v73.143
				c3.498,0.009,6.962,0.693,10.201,2.013c2.413-9.216,9.474-16.496,18.611-19.19c9.137-2.694,19.018-0.408,26.045,6.024
				c7.026-6.433,16.907-8.718,26.045-6.024c9.138,2.694,16.198,9.974,18.611,19.19c0.34-0.137,0.711-0.205,1.058-0.329V426.93z"/>
			<path d="M118.957,485.772c-5.047,0.007-9.136,4.096-9.143,9.143v9.143c0,5.049,4.093,9.143,9.143,9.143
				c5.049,0,9.143-4.093,9.143-9.143v-9.143C128.094,489.868,124.004,485.778,118.957,485.772z"/>
			<path d="M329.243,266.343c15.148,0,27.429-12.28,27.429-27.429s-12.28-27.429-27.429-27.429s-27.429,12.28-27.429,27.429
				C301.831,254.056,314.102,266.327,329.243,266.343z M320.283,237.084c0.098-0.573,0.282-1.129,0.545-1.647
				c0.202-0.582,0.479-1.134,0.826-1.643c0.366-0.46,0.732-0.915,1.098-1.371c2.626-2.598,6.559-3.358,9.964-1.924
				c1.108,0.465,2.129,1.115,3.018,1.924c0.394,0.433,0.759,0.89,1.094,1.37c0.346,0.509,0.624,1.061,0.826,1.643
				c0.262,0.519,0.447,1.074,0.549,1.647c0.105,0.605,0.166,1.217,0.183,1.831c0.031,1.199-0.22,2.389-0.732,3.473
				c-0.832,2.296-2.641,4.105-4.937,4.937c-1.085,0.513-2.274,0.764-3.474,0.733c-2.42-0.036-4.738-0.983-6.491-2.651
				c-0.808-0.889-1.459-1.91-1.924-3.018c-0.467-1.099-0.714-2.279-0.727-3.474C320.114,238.301,320.176,237.689,320.283,237.084z"
				/>
			<path d="M82.386,467.486c-5.047,0.007-9.136,4.096-9.143,9.143v27.429c0,5.049,4.093,9.143,9.143,9.143
				c5.049,0,9.143-4.093,9.143-9.143v-27.429C91.522,471.582,87.433,467.493,82.386,467.486z"/>
			<path d="M182.957,266.343c15.148,0,27.429-12.28,27.429-27.429s-12.28-27.429-27.429-27.429
				c-15.148,0-27.429,12.28-27.429,27.429C155.545,254.056,167.816,266.327,182.957,266.343z M176.466,232.423
				c0.888-0.808,1.907-1.459,3.013-1.924c1.669-0.727,3.522-0.918,5.304-0.545c0.573,0.098,1.129,0.282,1.647,0.545
				c0.583,0.201,1.137,0.479,1.647,0.826c0.455,0.366,0.911,0.732,1.37,1.098c0.366,0.455,0.732,0.911,1.094,1.37
				c0.346,0.509,0.624,1.061,0.826,1.643c0.263,0.519,0.448,1.074,0.549,1.647c0.106,0.605,0.167,1.217,0.183,1.831
				c-0.015,1.194-0.263,2.374-0.732,3.473c-0.465,1.107-1.114,2.127-1.92,3.018c-1.753,1.668-4.071,2.615-6.491,2.652
				c-1.201,0.032-2.392-0.219-3.478-0.732c-2.294-0.836-4.101-2.643-4.937-4.937c-0.467-1.099-0.715-2.279-0.728-3.474
				C173.831,236.49,174.781,234.166,176.466,232.423z"/>
			<path d="M256.1,229.772c15.148,0,27.429-12.28,27.429-27.429s-12.28-27.429-27.429-27.429s-27.429,12.28-27.429,27.429
				C228.688,217.485,240.959,229.755,256.1,229.772z M247.685,198.866c0.84-2.292,2.645-4.098,4.937-4.937
				c1.669-0.727,3.522-0.918,5.304-0.545c0.573,0.098,1.129,0.282,1.647,0.545c0.583,0.201,1.137,0.479,1.647,0.826
				c0.479,0.338,0.937,0.704,1.371,1.097c0.805,0.889,1.455,1.908,1.92,3.013c0.469,1.1,0.717,2.282,0.731,3.478
				c0.024,2.432-0.932,4.771-2.652,6.491c-1.72,1.72-4.059,2.675-6.491,2.652c-1.201,0.032-2.392-0.219-3.478-0.732
				c-1.106-0.465-2.125-1.115-3.013-1.92c-1.67-1.752-2.617-4.07-2.652-6.491C246.97,201.148,247.217,199.966,247.685,198.866z"/>
			<path d="M45.814,467.486c-5.047,0.007-9.136,4.096-9.143,9.143v27.429c0,5.049,4.093,9.143,9.143,9.143s9.143-4.093,9.143-9.143
				v-27.429C54.951,471.582,50.861,467.493,45.814,467.486z"/>
			<path d="M434.386,138.343c22.128-0.06,40.319,17.433,41.126,39.546c0.807,22.113-16.062,40.885-38.135,42.437
				c2.008,6.048,3.844,12.005,5.571,17.888c30.827-4.468,52.963-31.996,50.712-63.063c-2.251-31.068-28.124-55.116-59.273-55.094
				c-12.604,0.06-24.851,4.189-34.919,11.772c2.879,5.393,5.671,10.849,8.375,16.366
				C415.24,141.865,424.649,138.373,434.386,138.343z"/>
			<path d="M69.257,238.215c1.727-5.884,3.564-11.84,5.572-17.888c-17.786-1.24-32.737-13.82-36.998-31.132
				c-4.262-17.312,3.141-35.395,18.319-44.749s34.659-7.839,48.208,3.749c2.704-5.52,5.495-10.975,8.375-16.366
				c-10.068-7.582-22.315-11.711-34.918-11.771c-31.15-0.022-57.023,24.028-59.273,55.096
				C16.291,206.222,38.429,233.749,69.257,238.215z"/>
			<path d="M54.957,179.486c0.042,6.647,2.979,12.945,8.043,17.25c5.064,4.305,11.753,6.189,18.32,5.16
				c4.412-11.917,9.336-23.936,14.672-35.867c-4.207-5.861-10.964-9.355-18.178-9.401C65.197,156.644,54.972,166.869,54.957,179.486
				z"/>
			<path d="M9.243,485.772c-5.047,0.007-9.136,4.096-9.143,9.143v9.143c0,5.049,4.093,9.143,9.143,9.143
				c5.049,0,9.143-4.093,9.143-9.143v-9.143C18.379,489.868,14.29,485.778,9.243,485.772z"/>
			<path d="M454.741,169.023c-3.909-7.635-11.777-12.426-20.355-12.394c-7.214,0.046-13.972,3.54-18.179,9.401
				c5.335,11.929,10.258,23.946,14.67,35.862c8.47,1.353,16.982-2.168,22.022-9.109S458.65,176.658,454.741,169.023z"/>
			<path d="M438.957,318.714c0-53.853-37.991-164.072-88.835-230.973c-0.278-0.432-0.519-0.887-0.72-1.36
				c-0.177-0.292-0.338-0.595-0.479-0.906c-0.42-1.038-0.645-2.145-0.662-3.265l0.001-0.002l-0.001-0.002
				c0.026-1.117,0.249-2.22,0.658-3.26c0.078-0.202,0.158-0.388,0.249-0.582c0.123-0.346,0.267-0.683,0.432-1.011
				c7.63-12.496,25.652-17.83,40.527-20.098c-18.479-9.742-39.346-14.029-60.169-12.362c-0.416-0.043-0.829-0.115-1.235-0.214
				c-0.51,0.015-1.02-0.015-1.524-0.089c-0.208-0.055-0.355-0.205-0.556-0.272c-0.289-0.102-0.532-0.268-0.809-0.396
				c-0.83-0.343-1.604-0.809-2.296-1.383c-0.187-0.161-0.309-0.373-0.483-0.549c-0.624-0.606-1.156-1.298-1.582-2.056
				c-0.19-0.43-0.346-0.874-0.465-1.329c-0.25-0.641-0.424-1.309-0.518-1.99c-0.015-0.146-0.101-0.265-0.108-0.413
				c0.033-0.465,0.103-0.927,0.21-1.381c-0.011-0.465,0.016-0.93,0.08-1.391c0.057-0.216,0.165-0.384,0.224-0.599
				c0.05-0.146,0.101-0.281,0.158-0.423c3.628-12.958,12.03-24.06,23.515-31.071c-31.988-2.064-62.655,13.065-80.482,39.705
				c-0.171,0.254-0.356,0.5-0.552,0.735c-0.164,0.242-0.339,0.476-0.527,0.701c-0.677,0.826-1.496,1.526-2.418,2.067l-0.038,0.033
				c-0.426,0.211-0.867,0.387-1.321,0.527c-0.273,0.1-0.526,0.249-0.807,0.323c-0.755,0.201-1.532,0.304-2.314,0.306l-0.01-0.001
				l-0.009,0.001c-0.78-0.002-1.557-0.105-2.311-0.305c-0.264-0.069-0.502-0.21-0.758-0.302c-0.472-0.145-0.931-0.328-1.373-0.549
				l-0.037-0.032c-0.918-0.54-1.733-1.237-2.409-2.059c-0.191-0.227-0.37-0.465-0.537-0.71c-0.191-0.228-0.371-0.466-0.539-0.712
				C230.581,14.03,199.654-1.239,167.524,1.267c11.538,7.007,19.982,18.138,23.622,31.138c0.057,0.143,0.11,0.279,0.16,0.426
				c0.059,0.214,0.167,0.381,0.223,0.598c0.064,0.461,0.091,0.926,0.08,1.391c0.107,0.454,0.178,0.916,0.21,1.381
				c-0.007,0.148-0.093,0.265-0.108,0.411c-0.096,0.7-0.276,1.385-0.536,2.042c-0.115,0.432-0.264,0.854-0.443,1.264
				c-0.445,0.807-1.012,1.541-1.68,2.176c-0.138,0.136-0.232,0.304-0.379,0.431c-0.709,0.593-1.505,1.072-2.36,1.421
				c-0.26,0.119-0.487,0.275-0.757,0.37c-0.2,0.068-0.346,0.217-0.554,0.271c-0.501,0.073-1.008,0.103-1.515,0.088
				c-0.409,0.101-0.824,0.173-1.243,0.216c-20.823-1.67-41.691,2.618-60.17,12.362c14.875,2.267,32.897,7.603,40.527,20.098
				c0.135,0.272,0.256,0.55,0.363,0.834c0.124,0.256,0.236,0.502,0.337,0.771c0.4,1.006,0.617,2.076,0.639,3.159
				c-0.021,1.145-0.249,2.277-0.674,3.34c-0.099,0.252-0.245,0.462-0.365,0.703c-0.221,0.553-0.496,1.083-0.823,1.582
				c-50.844,66.902-88.835,177.121-88.835,230.973c0,76.991,82.031,139.63,182.857,139.63S438.957,395.705,438.957,318.714z
				 M184.163,88.093c2.496-4.389,8.078-5.923,12.466-3.426s5.923,8.078,3.426,12.466c-6.94,13.391-8.684,28.874-4.897,43.473
				c13.656-12.826,38.763-33.121,60.942-33.121c0.18,0,0.331,0.093,0.509,0.103c0.178-0.01,0.329-0.103,0.509-0.103
				c22.17,0,47.272,20.281,60.933,33.112c3.728-14.587,1.996-30.034-4.871-43.433c-2.492-4.383-0.966-9.956,3.411-12.457
				c4.377-2.501,9.953-0.987,12.464,3.385c12.209,22.827,12.209,50.244,0,73.071c-1.449,2.535-4.022,4.225-6.924,4.549
				c-0.337,0.037-0.675,0.056-1.013,0.058c-2.565,0-5.013-1.077-6.745-2.969c-9.433-10.299-38.116-37.031-57.255-37.031
				c-0.18,0-0.331-0.093-0.509-0.103c-0.178,0.01-0.329,0.103-0.509,0.103c-19.138,0-47.821,26.732-57.255,37.031
				c-1.733,1.891-4.18,2.969-6.745,2.969c-0.339-0.002-0.677-0.021-1.013-0.058c-2.902-0.324-5.475-2.014-6.924-4.549
				C171.953,138.338,171.953,110.92,184.163,88.093z M182.957,193.2c9.935,0.035,19.582,3.337,27.454,9.398
				c-0.001-0.087-0.026-0.168-0.026-0.255c0-25.247,20.467-45.714,45.714-45.714s45.714,20.467,45.714,45.714
				c0,0.087-0.025,0.168-0.026,0.255c7.872-6.06,17.52-9.363,27.454-9.398c25.247,0,45.714,20.467,45.714,45.714
				s-20.467,45.714-45.714,45.714s-45.714-20.467-45.714-45.714c0-0.087,0.025-0.168,0.026-0.255
				c-16.158,12.53-38.75,12.53-54.909,0c0,0.087,0.026,0.168,0.026,0.255c0,25.247-20.467,45.714-45.714,45.714
				c-25.247,0-45.714-20.467-45.714-45.714S157.71,193.2,182.957,193.2z M323.895,429.868c-0.237,0.109-0.492,0.15-0.739,0.238
				c-21.701,6.774-44.323,10.131-67.056,9.951c-22.733,0.18-45.355-3.177-67.056-9.951c-0.247-0.089-0.503-0.129-0.739-0.238
				C151.95,417.9,128.1,396.485,128.1,371.486c0-25.854,24.692-50.198,59.859-64.536c0.491-0.241,1.003-0.437,1.53-0.584
				c12.411-4.877,25.328-8.351,38.511-10.356c0.234-0.018,0.434-0.136,0.672-0.136l0.06,0.012c9.058-1.383,18.206-2.09,27.368-2.115
				c6.058,0,12.035,0.401,17.954,0.982c0.117-0.005,0.214-0.067,0.331-0.067c0.338,0.047,0.673,0.115,1.002,0.203
				c12.87,1.332,25.563,4.025,37.866,8.034c0.555,0.115,1.098,0.281,1.622,0.498c40.093,13.616,69.224,39.965,69.224,68.065
				C384.1,396.485,360.25,417.9,323.895,429.868z"/>
			<path d="M429.814,467.486c-5.047,0.007-9.136,4.096-9.143,9.143v27.429c0,5.049,4.093,9.143,9.143,9.143s9.143-4.093,9.143-9.143
				v-27.429C438.951,471.582,434.861,467.493,429.814,467.486z"/>
			<path d="M466.386,467.486c-5.047,0.007-9.136,4.096-9.143,9.143v27.429c0,5.049,4.093,9.143,9.143,9.143
				c5.049,0,9.143-4.093,9.143-9.143v-27.429C475.522,471.582,471.433,467.493,466.386,467.486z"/>
			<path d="M320.1,324.914v5.429c0,15.148-12.28,27.429-27.429,27.429c-15.148,0-27.429-12.28-27.429-27.429v-17.984
				c-3.022-0.163-6.055-0.302-9.143-0.302c-6.11,0.025-12.214,0.381-18.286,1.066v17.219c0,15.148-12.28,27.429-27.429,27.429
				s-27.429-12.28-27.429-27.429v-1.064c-22.419,11.775-36.571,27.773-36.571,42.207c0,13.772,14.201,28.084,38.446,37.905
				c7.351-24.585,36.058-42.476,71.269-42.476c35.211,0,63.918,17.891,71.269,42.476c24.244-9.82,38.446-24.132,38.446-37.905
				C365.814,355.175,347.781,336.854,320.1,324.914z"/>
			<path d="M393.243,485.772c-5.047,0.007-9.136,4.096-9.143,9.143v9.143c0,5.049,4.093,9.143,9.143,9.143s9.143-4.093,9.143-9.143
				v-9.143C402.379,489.868,398.29,485.778,393.243,485.772z"/>
			<path d="M256.1,385.2c-26.775,0-49.155,12.948-53.89,29.953c17.601,4.528,35.716,6.753,53.89,6.618
				c18.174,0.135,36.289-2.09,53.89-6.618C305.255,398.148,282.875,385.2,256.1,385.2z"/>
			<path d="M210.386,339.486c5.047-0.007,9.136-4.096,9.143-9.143v-14.215c-6.194,1.367-12.301,3.106-18.286,5.208v9.008
				C201.25,335.39,205.339,339.479,210.386,339.486z"/>
			<path d="M502.957,485.772c-5.047,0.007-9.136,4.096-9.143,9.143v9.143c0,5.049,4.093,9.143,9.143,9.143s9.143-4.093,9.143-9.143
				v-9.143C512.094,489.868,508.004,485.778,502.957,485.772z"/>
			<path d="M292.672,339.486c5.047-0.007,9.136-4.096,9.143-9.143v-11.911c-6.013-1.702-12.118-3.058-18.286-4.061v15.973
				C283.535,335.39,287.625,339.479,292.672,339.486z"/>
			<path d="M502.957,394.343c-0.041-28.606-19.041-53.718-46.557-61.536c-5.118,37.191-24.485,70.94-54.014,94.123v42.241
				c0.347,0.124,0.718,0.191,1.059,0.329c2.413-9.216,9.474-16.496,18.611-19.19c9.137-2.694,19.018-0.408,26.045,6.024
				c7.026-6.433,16.908-8.718,26.045-6.024c9.138,2.694,16.198,9.974,18.611,19.19c3.239-1.321,6.703-2.004,10.201-2.014V394.343z"
				/>
		</g>
	</g>
</g>
<g>
</g>
<g>
</g>
<g>
</g>
<g>
</g>
<g>
</g>
<g>
</g>
<g>
</g>
<g>
</g>
<g>
</g>
<g>
</g>
<g>
</g>
<g>
</g>
<g>
</g>
<g>
</g>
<g>
</g>
</svg>
