<?xml version="1.0" encoding="iso-8859-1"?>
<!-- Generator: Adobe Illustrator 19.0.0, SVG Export Plug-In . SVG Version: 6.00 Build 0)  -->
<svg version="1.1" id="Capa_1" xmlns="http://www.w3.org/2000/svg" xmlns:xlink="http://www.w3.org/1999/xlink" x="0px" y="0px"
	 viewBox="0 0 511.749 511.749" style="enable-background:new 0 0 511.749 511.749;" xml:space="preserve">
<g>
	<g>
		<g>
			<path d="M310.732,315.19v95.988h18.286V304.349C323.18,308.381,317.07,312.004,310.732,315.19z"/>
			<path d="M255.874,210.035c-31.821,0-54.857,24.027-54.857,40.228c0.033,4.051,1.711,7.914,4.65,10.703
				c8.811-19.85,28.49-32.645,50.208-32.645s41.396,12.795,50.208,32.645c2.939-2.789,4.617-6.652,4.649-10.703
				C310.732,234.061,287.696,210.035,255.874,210.035z"/>
			<path d="M331.178,429.463h-22.607L289.285,500.2c-0.766,2.748-0.19,5.697,1.554,7.955c0.582,0.646,1.255,1.204,1.998,1.655
				c0.852-4.166,4.5-7.169,8.752-7.204c2.425-0.001,4.751,0.962,6.466,2.677c1.715,1.715,2.678,4.041,2.677,6.466h9.143
				c0-5.049,4.093-9.143,9.143-9.143c5.049,0,9.143,4.093,9.143,9.143h3.491c2.848-0.002,5.532-1.331,7.259-3.594
				c1.728-2.264,2.302-5.203,1.553-7.95L331.178,429.463z"/>
			<path d="M203.178,429.463h-22.607L161.285,500.2c-0.75,2.748-0.176,5.688,1.552,7.953c1.728,2.264,4.412,3.594,7.261,3.596h3.491
				c0-5.049,4.093-9.143,9.143-9.143c5.049,0,9.143,4.093,9.143,9.143h9.143c-0.001-2.425,0.962-4.751,2.677-6.466
				c1.715-1.715,4.041-2.678,6.466-2.677c4.252,0.036,7.9,3.039,8.752,7.205c0.743-0.451,1.416-1.009,1.998-1.655
				c1.743-2.257,2.319-5.204,1.554-7.951L203.178,429.463z"/>
			<path d="M151.439,53.822c-17.655-7.734-33.285-19.44-45.672-34.207c-0.58-0.638-2.036-0.522-3.205-0.071
				c-1.17,0.473-2.33,1.438-2.304,2.375c0.544,26.158,5.332,52.054,14.179,76.677C123.537,81.27,136.137,66.023,151.439,53.822z"/>
			<path d="M27.303,319.749c0,5.049,4.093,9.143,9.143,9.143s9.143-4.093,9.143-9.143c0.5-46.146,24.817-88.756,64.293-112.658
				c-2.084-5.959-3.85-12.024-5.291-18.17C57.194,215.477,27.689,265.421,27.303,319.749z"/>
			<path d="M182.732,118.606c-11.094,0-21.095,6.683-25.341,16.932c-4.245,10.249-1.899,22.047,5.946,29.891
				c7.844,7.844,19.642,10.191,29.891,5.946c10.249-4.245,16.932-14.247,16.932-25.341
				C210.144,130.893,197.873,118.623,182.732,118.606z M189.223,152.526c-3.605,3.536-9.377,3.536-12.982,0
				c-3.536-3.605-3.536-9.377,0-12.982c3.591-3.552,9.376-3.536,12.947,0.035C192.759,143.15,192.775,148.935,189.223,152.526z"/>
			<path d="M182.732,304.349v106.828h18.286V315.19C194.679,312.004,188.569,308.381,182.732,304.349z"/>
			<path d="M255.874,246.606c-15.041-0.111-28.608,9.021-34.165,22.998c11.121,3.089,22.624,4.58,34.165,4.43
				c11.541,0.15,23.044-1.341,34.165-4.43C284.482,255.627,270.915,246.495,255.874,246.606z"/>
			<path d="M304.97,44.229l3.27,6.002c1.579,2.869,1.503,6.364-0.2,9.161c-1.703,2.797-4.772,4.47-8.046,4.385
				c-3.274-0.085-6.252-1.915-7.808-4.797L262.75,4.95c-0.993-2.963-3.771-4.957-6.895-4.95c-3.125,0.007-5.893,2.014-6.873,4.981
				l-29.42,54c-2.427,4.41-7.964,6.028-12.384,3.619c-4.42-2.409-6.061-7.939-3.67-12.369l3.27-6.002
				c-52.022,17.394-88.047,61.488-88.047,110.948c0,68.513,64.571,155.429,137.143,155.429s137.143-86.915,137.143-155.429
				C393.017,105.718,356.993,61.624,304.97,44.229z M255.874,292.32c-45.804,0-73.143-15.723-73.143-42.058
				c0-27.058,31.946-58.513,73.143-58.513s73.143,31.455,73.143,58.513C329.017,276.597,301.678,292.32,255.874,292.32z
				 M374.732,146.035c0,25.247-20.467,45.714-45.714,45.714c-25.235-0.03-45.685-20.479-45.714-45.714
				c0-0.087,0.025-0.168,0.026-0.255c-16.158,12.531-38.75,12.531-54.909,0c0.001,0.087,0.026,0.168,0.026,0.255
				c0,25.247-20.467,45.714-45.714,45.714s-45.714-20.467-45.714-45.714s20.467-45.714,45.714-45.714
				c9.935,0.035,19.582,3.337,27.454,9.398c-0.001-0.087-0.026-0.168-0.026-0.255c0-25.247,20.467-45.714,45.714-45.714
				s45.714,20.467,45.714,45.714c0,0.087-0.025,0.168-0.026,0.255c7.872-6.06,17.52-9.363,27.454-9.398
				C354.265,100.32,374.732,120.787,374.732,146.035z"/>
			<path d="M409.008,19.543c-1.152-0.451-2.616-0.571-3.232,0.103c-12.314,14.769-27.918,26.447-45.56,34.097
				c15.31,12.185,27.922,27.416,37.039,44.729c8.83-24.58,13.579-50.44,14.057-76.553C411.339,20.981,410.178,20.017,409.008,19.543
				z"/>
			<path d="M301.589,146.035c0,15.148,12.28,27.429,27.429,27.429c15.148,0,27.429-12.28,27.429-27.429
				c-0.017-15.142-12.287-27.412-27.429-27.429C313.869,118.606,301.589,130.886,301.589,146.035z M335.509,139.544
				c0.807,0.888,1.456,1.907,1.92,3.013c0.469,1.1,0.717,2.282,0.731,3.478c-0.014,0.613-0.077,1.223-0.188,1.826
				c-0.096,0.574-0.28,1.129-0.545,1.647c-0.183,0.561-0.461,1.087-0.821,1.554c-0.366,0.549-0.732,1.005-1.098,1.464
				c-1.754,1.668-4.071,2.614-6.491,2.652c-2.432,0.024-4.771-0.932-6.491-2.652s-2.675-4.059-2.652-6.491
				c0.014-1.196,0.263-2.378,0.732-3.478c0.441-1.118,1.093-2.141,1.92-3.013C326.192,136.16,331.843,136.16,335.509,139.544z"/>
			<path d="M255.874,82.035c-15.148,0-27.429,12.28-27.429,27.429s12.28,27.429,27.429,27.429c15.148,0,27.429-12.28,27.429-27.429
				C283.286,94.322,271.016,82.051,255.874,82.035z M264.285,112.936c-0.464,1.108-1.113,2.129-1.92,3.018
				c-3.605,3.536-9.377,3.536-12.982,0c-0.807-0.889-1.456-1.91-1.92-3.018c-0.976-2.214-0.976-4.737,0-6.951
				c0.464-1.107,1.113-2.126,1.92-3.013c3.666-3.384,9.316-3.384,12.982,0c0.807,0.888,1.456,1.907,1.92,3.013
				C265.261,108.2,265.261,110.722,264.285,112.936z"/>
			<path d="M407.158,188.92c-1.441,6.146-3.207,12.211-5.291,18.17c39.477,23.902,63.794,66.512,64.293,112.658
				c0,5.049,4.093,9.143,9.143,9.143s9.143-4.093,9.143-9.143C484.06,265.421,454.555,215.477,407.158,188.92z"/>
		</g>
	</g>
</g>
<g>
</g>
<g>
</g>
<g>
</g>
<g>
</g>
<g>
</g>
<g>
</g>
<g>
</g>
<g>
</g>
<g>
</g>
<g>
</g>
<g>
</g>
<g>
</g>
<g>
</g>
<g>
</g>
<g>
</g>
</svg>
