<?xml version="1.0" encoding="iso-8859-1"?>
<!-- Generator: Adobe Illustrator 19.0.0, SVG Export Plug-In . SVG Version: 6.00 Build 0)  -->
<svg version="1.1" id="Capa_1" xmlns="http://www.w3.org/2000/svg" xmlns:xlink="http://www.w3.org/1999/xlink" x="0px" y="0px"
	 viewBox="0 0 512.025 512.025" style="enable-background:new 0 0 512.025 512.025;" xml:space="preserve">
<g transform="translate(0 -1)">
	<g>
		<g>
			<path d="M144.373,56.054c3.889-8.838,12.14-14.978,21.723-16.164c9.583-1.186,19.082,2.758,25.008,10.381l33.778,43.431
				c7.389-0.58,15.003-0.915,22.766-1.073c-0.208-0.516-0.367-1.052-0.474-1.598c-0.057-0.282-0.221-0.513-0.253-0.805
				c-0.353-3.227-9.397-79.089-74.527-88.661C121.443-5.957,47.885,63.476,14.943,97.963c12.349-0.933,24.661,2.239,35.022,9.022
				c3.504,2.724,6.445,6.103,8.659,9.95C75.561,94.583,108.99,57.383,144.373,56.054z"/>
			<path d="M192.01,208.11c-5.047,0.007-9.136,4.096-9.143,9.143c-0.025,2.436,0.936,4.778,2.666,6.494s4.079,2.659,6.515,2.614
				c3.083-1.449,5.915-3.379,8.391-5.718c0.462-1.071,0.705-2.223,0.714-3.39C201.147,212.206,197.057,208.117,192.01,208.11z"/>
			<path d="M110.029,163.457c0.979,6.956,0.876,14.021-0.304,20.945v109.194c0,25.946,60.076,54.857,146.286,54.857
				s146.286-28.911,146.286-54.857V184.402c-1.18-6.924-1.283-13.99-0.304-20.945c-3.17-25.371-62.128-52.718-145.982-52.718
				S113.199,138.086,110.029,163.457z M178.296,147.311c29.46,0,50.286,41.929,50.286,50.286c0,27.772-22.514,50.286-50.286,50.286
				s-50.286-22.514-50.286-50.286C128.01,169.825,150.524,147.311,178.296,147.311z M383.542,287.347
				c-0.971,2.911-5.493,11.84-24.974,19.775c-0.177,0.084-0.352,0.146-0.533,0.219c-18.203,7.292-49.195,13.685-102.023,13.685
				c-52.848,0-83.842-6.397-102.042-13.693c-0.171-0.069-0.334-0.127-0.501-0.206c-19.493-7.935-24.017-16.868-24.988-19.78
				c-1.553-4.652,0.841-9.702,5.426-11.443c4.585-1.741,9.728,0.446,11.654,4.956c2.701,3.161,6.11,5.64,9.949,7.236l30.426-28.593
				c2.006-1.906,4.775-2.787,7.513-2.393c2.74,0.379,5.161,1.977,6.585,4.348l24.274,40.402c9.423,0.561,19.948,0.879,31.703,0.879
				c11.779,0,22.274-0.331,31.712-0.894l24.265-40.387c1.424-2.37,3.843-3.968,6.582-4.348c2.738-0.38,5.502,0.5,7.517,2.392
				l30.429,28.592c3.888-1.57,7.323-4.084,9.995-7.315c0.766-2.251,2.411-4.096,4.561-5.111s4.62-1.116,6.845-0.277
				C382.714,277.201,385.206,282.496,383.542,287.347z M333.725,147.311c27.772,0,50.286,22.514,50.286,50.286
				c0,27.772-22.514,50.286-50.286,50.286s-50.286-22.514-50.286-50.286C283.439,189.239,304.265,147.311,333.725,147.311z
				 M274.296,247.882c0,5.049-4.093,9.143-9.143,9.143h-18.286c-5.049,0-9.143-4.093-9.143-9.143c0-5.049,4.093-9.143,9.143-9.143
				h18.286C270.203,238.739,274.296,242.833,274.296,247.882z"/>
			<path d="M344.117,362.405c0.804-2.496,1.819-4.92,3.035-7.243c-29.71,8.003-60.376,11.898-91.143,11.578
				c-30.88,0.326-61.657-3.599-91.467-11.664c1.246,2.348,2.283,4.8,3.1,7.329l8.094,26.21c4.703,15.408,0.923,32.155-9.944,44.048
				c8.263,5.511,17.108,10.093,26.376,13.665c1.657-28.993,29.613-52.159,63.84-52.159c34.241,0,62.205,23.184,63.843,52.192
				c9.185-3.573,17.952-8.138,26.145-13.614c-11.098-11.805-14.917-28.702-9.974-44.133L344.117,362.405z"/>
			<path d="M166.881,58.342c-3.634,1.008-6.246,4.186-6.531,7.946l-3.662,40.29c15.27-4.886,30.94-8.42,46.829-10.562
				l-26.845-34.517C174.4,58.486,170.483,57.223,166.881,58.342z"/>
			<path d="M345.14,58.342c-3.605-1.115-7.522,0.149-9.795,3.161l-26.841,34.513c15.889,2.142,31.559,5.676,46.829,10.562
				l-3.662-40.294C351.384,62.525,348.773,59.349,345.14,58.342z"/>
			<path d="M347.439,217.253c-0.013,3.441-0.68,6.848-1.964,10.04c14.292-5.628,22.559-20.627,19.685-35.716
				s-16.076-26-31.436-25.98c-13.277,0-27.422,21.646-31.233,30.729c4.887-4.17,11.094-6.474,17.519-6.502
				C335.152,189.841,347.422,202.111,347.439,217.253z"/>
			<path d="M166.546,227.293c-4.688-11.644-0.825-24.985,9.36-32.323c10.185-7.338,24.062-6.778,33.624,1.355
				c-3.811-9.083-17.956-30.729-31.233-30.729c-15.36-0.019-28.561,10.891-31.435,25.98
				C143.988,206.665,152.254,221.664,166.546,227.293z"/>
			<polygon points="166.546,227.293 166.546,227.293 166.546,227.293 			"/>
			<path d="M174.914,294.95c8.83,2.189,17.79,3.812,26.826,4.861l-11.546-19.218L174.914,294.95z"/>
			<path d="M310.291,299.795c9.031-1.047,17.987-2.667,26.813-4.851l-15.277-14.353L310.291,299.795z"/>
			<path d="M320.01,208.11c-5.047,0.007-9.136,4.096-9.143,9.143c0.009,1.166,0.252,2.319,0.714,3.39
				c2.476,2.339,5.308,4.27,8.391,5.718c2.435,0.043,4.784-0.901,6.513-2.616c1.729-1.715,2.691-4.057,2.667-6.492
				C329.147,212.206,325.057,208.117,320.01,208.11z"/>
			<path d="M142.443,493.9c-0.3,4.932,1.47,9.767,4.884,13.339c3.471,3.712,8.333,5.808,13.415,5.786h42.424
				c9.021,0.035,16.695-6.57,18.005-15.496c0.912-7.966,2.852-15.78,5.772-23.248c-26.908-3.443-52.572-13.392-74.769-28.987
				C148.031,461.303,144.783,477.53,142.443,493.9z"/>
			<path d="M395.89,349.686c-6.95-2.168-14.478-1.466-20.906,1.951c-6.443,3.382-11.266,9.202-13.393,16.161l-1.355,4.39
				l27.586,13.795l0.01,0.003l0.008,0.007l22.128,11.066l4.042-13.076C418.453,369.509,410.349,354.171,395.89,349.686z"/>
			<path d="M376.446,429.293c11.399,1.424,22.462-4.475,27.632-14.734l-16.231-8.117L376.446,429.293z"/>
			<path d="M353.497,394.007c-2.914,9.556-0.382,19.942,6.604,27.084l11.39-22.83l-16.725-8.363L353.497,394.007z"/>
			<path d="M339.626,1.565c-65.13,9.571-74.174,85.433-74.527,88.661c-0.032,0.288-0.196,0.517-0.253,0.795
				c-0.106,0.55-0.265,1.088-0.474,1.608c7.763,0.158,15.377,0.493,22.766,1.073l33.774-43.427
				c5.925-7.626,15.426-11.571,25.01-10.386c9.584,1.185,17.837,7.325,21.727,16.164c35.385,1.33,68.814,38.532,85.747,60.883
				c2.214-3.847,5.155-7.227,8.659-9.952c10.349-6.816,22.673-9.991,35.027-9.022C464.135,63.476,390.533-5.957,339.626,1.565z"/>
			<path d="M359.832,445.232c-14.32,10.205-30.245,17.945-47.117,22.9c-0.498,0.19-1.013,0.336-1.537,0.434
				c-8.554,2.517-17.273,4.43-26.095,5.725c2.913,7.45,4.85,15.246,5.762,23.194c1.293,8.944,8.973,15.571,18.009,15.54h42.424
				c5.082,0.023,9.944-2.074,13.415-5.786c3.412-3.572,5.183-8.404,4.888-13.335C367.235,477.512,363.98,461.263,359.832,445.232z"
				/>
			<path d="M370.794,74.622l3.562,39.198c14.799,5.953,27.83,15.592,37.855,27.999c0.194-0.203,0.35-0.434,0.549-0.633
				c7.403-6.898,16.878-11.156,26.951-12.112C423.811,107.925,396.298,78.255,370.794,74.622z"/>
			<path d="M99.809,141.819c10.025-12.408,23.056-22.046,37.856-27.999l3.563-39.198c-25.471,3.628-52.939,33.224-68.852,54.368
				c10.057,1.005,19.504,5.291,26.885,12.197C99.459,141.385,99.615,141.616,99.809,141.819z"/>
			<path d="M301.725,449.025c0-20.165-20.509-36.571-45.714-36.571s-45.714,16.406-45.714,36.571
				c0.015,1.124,0.098,2.246,0.248,3.36c12.026,3.137,24.346,5.017,36.761,5.609c2.772,0.085,5.696,0.174,8.705,0.174
				c15.343-0.002,30.623-1.962,45.47-5.833C301.627,451.238,301.709,450.132,301.725,449.025z"/>
			<path d="M107.695,414.551c5.22,10.2,16.235,16.075,27.614,14.729l-11.394-22.84L107.695,414.551z"/>
			<path d="M123.93,385.985L123.93,385.985l27.596-13.8l-1.355-4.388c-4.47-14.474-19.827-22.584-34.301-18.114
				c-14.474,4.47-22.584,19.827-18.114,34.301l4.037,13.07L123.93,385.985L123.93,385.985z"/>
			<path d="M158.265,394.007l-1.269-4.11l-16.724,8.364l11.39,22.83C158.644,413.947,161.176,403.564,158.265,394.007z"/>
		</g>
	</g>
</g>
<g>
</g>
<g>
</g>
<g>
</g>
<g>
</g>
<g>
</g>
<g>
</g>
<g>
</g>
<g>
</g>
<g>
</g>
<g>
</g>
<g>
</g>
<g>
</g>
<g>
</g>
<g>
</g>
<g>
</g>
</svg>
