<?xml version="1.0" encoding="iso-8859-1"?>
<!-- Generator: Adobe Illustrator 19.0.0, SVG Export Plug-In . SVG Version: 6.00 Build 0)  -->
<svg version="1.1" id="Capa_1" xmlns="http://www.w3.org/2000/svg" xmlns:xlink="http://www.w3.org/1999/xlink" x="0px" y="0px"
	 viewBox="0 0 512.001 512.001" style="enable-background:new 0 0 512.001 512.001;" xml:space="preserve">
<g>
	<g>
		<g>
			<path d="M338.376,484.618c-8.195,0.012-15.949,3.712-21.113,10.076c1.702,0.607,3.441,1.079,5.126,1.741
				c13.914,5.457,28.339,9.508,43.06,12.093C363.708,494.89,352.123,484.659,338.376,484.618z"/>
			<path d="M402.376,502.903c-6.199-0.035-11.983,3.112-15.322,8.336c10.252,0.803,20.546,0.922,30.813,0.357
				C414.573,506.196,408.702,502.902,402.376,502.903z"/>
			<polygon points="268.325,292.618 243.685,292.618 256,340.773 			"/>
			<path d="M287.197,292.618l-14.719,57.536c-1.583,7.925-8.393,13.731-16.469,14.04h-0.005c-8.078-0.308-14.892-6.113-16.478-14.04
				l-14.714-57.536h-1.429c-3.47,0.124-6.712,1.758-8.875,4.473c-3.479,4.314-4.918,9.923-3.946,15.379l12.781,78.938
				c0.383,2.442,1.078,4.824,2.067,7.089c0.649,1.711,2.011,3.055,3.732,3.679c1.205,0.333,2.496,0.097,3.505-0.643
				c14.177-9.315,32.533-9.315,46.71,0c1.006,0.739,2.296,0.976,3.5,0.643c1.719-0.623,3.082-1.965,3.732-3.674
				c0.987-2.263,1.682-4.642,2.067-7.08l12.777-78.924l0.005-0.027c0.972-5.456-0.467-11.066-3.946-15.379
				c-2.163-2.715-5.406-4.349-8.875-4.473H287.197z"/>
			<path d="M109.715,502.903c-6.331-0.002-12.204,3.296-15.497,8.703c10.27,0.564,20.566,0.441,30.82-0.366
				C121.699,506.016,115.915,502.869,109.715,502.903z"/>
			<polygon points="146.643,508.516 146.643,508.516 146.643,508.516 			"/>
			<path d="M166.152,485.678c-10.491,3.016-18.169,12.003-19.509,22.837c14.69-2.585,29.085-6.632,42.969-12.081
				c1.709-0.671,3.473-1.151,5.198-1.765C187.922,486.201,176.643,482.663,166.152,485.678z"/>
			<path d="M507.693,473.033c-2.854-1.885-6.477-2.169-9.589-0.75c-29.946,13.089-55.513,13.357-75.986,0.799
				c-37.978-23.29-45.473-83.808-46.938-108.745c-0.022-0.4-0.018-0.801,0.009-1.201l15.585-214.259
				c2.78-38.446-10.265-76.359-36.112-104.956c-24.43-27.213-59.045-43.086-95.607-43.839
				c-38.137-0.862-74.867,14.405-101.157,42.045c-26.29,27.64-39.7,65.088-36.932,103.134l15.848,217.875
				c0.028,0.4,0.031,0.801,0.009,1.201c-1.464,24.938-8.96,85.455-46.938,108.745c-20.473,12.549-46.045,12.281-75.986-0.799
				c-3.112-1.42-6.736-1.136-9.589,0.75c-2.715,1.752-4.342,4.774-4.309,8.005c-0.03,3.801,2.154,7.272,5.594,8.888
				c22.091,9.962,45.511,16.668,69.527,19.908c3.619-11.412,12.655-20.291,24.128-23.711c11.474-3.419,23.896-0.935,33.172,6.634
				c7.13-15.468,22.31-25.652,39.327-26.383c17.017-0.731,33.014,8.113,41.445,22.913c12.855-3.056,26.019-4.623,39.232-4.669h7.152
				c13.241,0.047,26.432,1.62,39.312,4.688c8.425-14.807,24.423-23.659,41.443-22.932s32.205,10.911,39.337,26.382
				c9.274-7.566,21.692-10.051,33.164-6.635s20.508,12.289,24.133,23.696c23.985-3.24,47.375-9.94,69.438-19.891
				c3.431-1.606,5.617-5.06,5.598-8.848C512.044,477.833,510.417,474.795,507.693,473.033z M341.804,263.658L341.804,263.658
				c12.317,16.514,17.254,37.388,13.639,57.67l-13.795,80.576c-1.239,7.394-3.475,14.586-6.647,21.379
				c-8.921,20.356-28.921,33.615-51.144,33.906c-9.818-0.023-19.446-2.711-27.857-7.777c-8.408,5.065-18.033,7.752-27.848,7.777
				h-0.013c-22.223-0.295-42.221-13.56-51.134-33.92c-3.184-6.841-5.429-14.08-6.674-21.522l-13.785-80.549
				c-3.588-20.244,1.357-41.07,13.661-57.54c7.784-10.423,18.514-18.274,30.804-22.538c-42.945-24.874-63.845-75.48-50.967-123.408
				c12.878-47.929,56.326-81.245,105.955-81.246c49.629-0.001,93.078,33.313,105.958,81.242
				c12.88,47.928-8.018,98.534-50.962,123.411C323.287,245.381,334.019,253.233,341.804,263.658z"/>
			<circle cx="256" cy="146.332" r="36.571"/>
			<path d="M256,54.903c-50.495,0-91.429,40.934-91.429,91.429c0,50.495,40.934,91.429,91.429,91.429s91.429-40.934,91.429-91.429
				C347.373,95.861,306.472,54.96,256,54.903z M256,201.189c-30.297,0-54.857-24.56-54.857-54.857
				c0-30.297,24.56-54.857,54.857-54.857s54.857,24.56,54.857,54.857C310.825,176.615,286.284,201.156,256,201.189z"/>
			<path d="M220.746,256.046c-14.258,0.19-27.589,7.103-35.96,18.647c-9.255,12.433-12.954,28.141-10.219,43.397l13.795,80.598
				c0.967,5.825,2.722,11.491,5.214,16.844c5.945,13.893,19.46,23.03,34.568,23.371h0.009c6.89-0.03,13.627-2.031,19.415-5.768
				c5.301-2.783,11.635-2.77,16.924,0.036c5.778,3.716,12.496,5.705,19.366,5.732c15.107-0.338,28.623-9.471,34.571-23.362
				c2.478-5.303,4.223-10.918,5.188-16.692l13.803-80.634c2.76-15.293-0.931-31.047-10.197-43.522
				c-8.371-11.544-21.701-18.457-35.96-18.647H220.746z M311.434,285.256c6.922,8.415,9.859,19.416,8.053,30.161h0l-12.777,78.911
				c-0.633,3.984-1.775,7.87-3.397,11.563c-2.819,6.673-8.457,11.748-15.388,13.853c-1.988,0.575-4.047,0.867-6.117,0.866
				c-4.522-0.011-8.937-1.375-12.678-3.915c-8.042-4.982-18.212-4.982-26.255,0c-5.502,3.76-12.391,4.878-18.799,3.049
				c-6.932-2.105-12.571-7.182-15.388-13.857c-1.625-3.695-2.767-7.584-3.397-11.571l-12.777-78.897
				c-1.809-10.745,1.129-21.747,8.054-30.161c5.595-6.863,13.963-10.869,22.817-10.924h65.232
				C297.471,274.387,305.838,278.393,311.434,285.256z"/>
		</g>
	</g>
</g>
<g>
</g>
<g>
</g>
<g>
</g>
<g>
</g>
<g>
</g>
<g>
</g>
<g>
</g>
<g>
</g>
<g>
</g>
<g>
</g>
<g>
</g>
<g>
</g>
<g>
</g>
<g>
</g>
<g>
</g>
</svg>
