<?xml version="1.0" encoding="iso-8859-1"?>
<!-- Generator: Adobe Illustrator 19.0.0, SVG Export Plug-In . SVG Version: 6.00 Build 0)  -->
<svg version="1.1" id="Capa_1" xmlns="http://www.w3.org/2000/svg" xmlns:xlink="http://www.w3.org/1999/xlink" x="0px" y="0px"
	 viewBox="0 0 511.703 511.703" style="enable-background:new 0 0 511.703 511.703;" xml:space="preserve">
<g>
	<g>
		<g>
			<path d="M362.045,294.55c-4.229,1.802-8.501,3.455-12.94,4.965l10.398,10.398L362.045,294.55z"/>
			<path d="M329.315,226.748c0.676-4.35,4.421-7.558,8.823-7.558s8.147,3.208,8.823,7.558c8.725-2.903,15.392-10.019,17.72-18.915
				c2.328-8.896,0.001-18.366-6.184-25.17l-47.244,23.622C313.209,215.831,320.085,223.621,329.315,226.748z"/>
			<path d="M91.525,426.761c-6.173,21.656-9.332,44.059-9.387,66.577c0,1.652,2.502,4.99,8.904,8.397
				c0.948-9.674,5.673-18.583,13.15-24.794c4.064-2.958,9.753-2.081,12.738,1.964s2.144,9.74-1.88,12.75
				c-4.614,4.174-6.809,10.396-5.836,16.541c6.333,1.484,12.766,2.505,19.247,3.052l4.295,0.232c1.76,0.11,3.395,0.177,4.991,0.223
				c1.134-9.154,4.991-17.756,11.072-24.691c3.552-3.555,9.309-3.576,12.887-0.047s3.637,9.285,0.131,12.886
				c-2.616,3.262-4.447,7.082-5.352,11.164c5.069-0.474,10.108-1.231,15.093-2.267c2.42-0.455,4.616-1.031,6.652-1.607
				c7.053-1.642,13.685-4.738,19.473-9.089c1.656-1.097,2.834-2.782,3.294-4.715c-0.263-2.142-0.719-7.352-1.166-14.742
				C159.965,470.633,122.731,452.813,91.525,426.761z"/>
			<path d="M306.468,324.945c0.406,0.054,0.818-0.021,1.179-0.214l6.199-17.209c-6.364,0.85-13.264,1.544-20.969,2.046
				l12.306,14.646C305.484,324.632,305.953,324.899,306.468,324.945z"/>
			<path d="M281.986,38.633L262.798,4.722c-1.131-2.856-3.894-4.729-6.966-4.722c-3.072,0.007-5.826,1.892-6.945,4.753l-19.17,33.88
				C247.018,35.709,264.686,35.709,281.986,38.633z"/>
			<path d="M164.743,226.748c0.676-4.35,4.421-7.558,8.823-7.558s8.147,3.208,8.823,7.558c9.229-3.127,16.105-10.917,18.062-20.463
				l-47.244-23.622c-6.185,6.805-8.511,16.274-6.184,25.17C149.351,216.729,156.018,223.845,164.743,226.748z"/>
			<path d="M311.875,478.596c-0.445,7.393-0.895,12.614-1.131,14.805c0.423,1.861,1.545,3.488,3.134,4.545
				c0.718,0.644,1.482,1.235,2.286,1.768c5.352,3.384,11.208,5.896,17.348,7.442c2,0.563,4.197,1.138,6.393,1.549
				c5.055,1.023,10.162,1.77,15.298,2.238c-0.908-4.062-2.735-7.861-5.343-11.104c-3.429-3.648-3.314-9.368,0.259-12.875
				c3.548-3.491,9.247-3.469,12.768,0.049c6.067,6.92,9.919,15.5,11.061,24.632c1.522-0.043,3.123-0.049,4.564-0.141l4.991-0.277
				c6.394-0.545,12.74-1.555,18.987-3.022c0.978-6.156-1.225-12.388-5.853-16.562c-3.948-3.078-4.718-8.745-1.732-12.763
				c2.964-3.988,8.583-4.851,12.607-1.938c7.484,6.217,12.21,15.136,13.152,24.82c1.258-0.66,2.475-1.398,3.642-2.208
				c3.893-2.692,5.259-4.969,5.259-6.214c-0.055-22.518-3.214-44.922-9.387-66.577C388.973,452.812,351.739,470.633,311.875,478.596
				z"/>
			<path d="M466.137,296.172c0-37.608-14.761-83.103-40.46-125.208c-2.343-2.262-3.286-5.611-2.467-8.763
				c0.039-0.207,0.055-0.407,0.108-0.61c0.063-0.196,0.028-0.397,0.105-0.592c13.67-34.893,2.187-81.384-9.848-114.245
				c-0.321-0.835-2.125-1.17-3.009-1.277c-1.205,0.009-2.634,0.451-2.92,1.259c-5.92,18.992-16.47,36.213-30.699,50.115
				l-0.042,0.078c-0.052,0.063-0.132,0.082-0.186,0.143c-7.748,7.164-17.245,12.164-27.537,14.495
				c-3.2,0.693-6.526-0.379-8.72-2.809c-2.194-2.43-2.921-5.848-1.906-8.961c1.015-3.113,3.617-5.445,6.822-6.114
				c3.023-0.661,5.954-1.687,8.729-3.056c-17.041-13.029-36.18-23.053-56.595-29.641c-27.132-8.446-56.19-8.446-83.321,0
				c-20.414,6.587-39.554,16.611-56.595,29.641c2.775,1.368,5.706,2.395,8.729,3.056c3.205,0.669,5.807,3.002,6.822,6.114
				c1.015,3.113,0.288,6.531-1.906,8.961c-2.194,2.43-5.52,3.502-8.72,2.809c-10.27-2.324-19.749-7.306-27.488-14.447
				c-0.069-0.079-0.169-0.11-0.235-0.191l-0.041-0.078c-14.23-13.901-24.78-31.123-30.7-50.115
				c-0.286-0.813-1.768-1.281-2.946-1.259c-1.223,0-2.67,0.446-2.982,1.281c-12.036,32.857-23.518,79.348-9.848,114.241
				c0.076,0.195,0.042,0.396,0.105,0.592c0.053,0.204,0.069,0.404,0.108,0.61c0.819,3.152-0.123,6.501-2.467,8.763
				c-25.7,42.106-40.46,87.6-40.46,125.208c0,91.193,89.416,165.804,201.143,169.688v-18.098c0-5.049,4.093-9.143,9.143-9.143
				s9.143,4.093,9.143,9.143v18.098C376.722,461.976,466.137,387.366,466.137,296.172z M370.619,156.155
				c4.515-2.244,9.994-0.41,12.248,4.099s0.434,9.993-4.07,12.258l-3.55,1.775c5.604,7.743,8.615,17.06,8.604,26.618
				c0.065,22.562-16.384,41.777-38.686,45.19c-22.302,3.413-43.746-10.002-50.431-31.551l-7.364,3.682
				c-2.923,1.47-6.409,1.267-9.141-0.534s-4.294-4.924-4.095-8.19c0.199-3.266,2.127-6.177,5.057-7.633L370.619,156.155z
				 M228.423,146.047c-5.049,0-9.143-4.093-9.143-9.143c0-5.049,4.093-9.143,9.143-9.143h54.857c5.049,0,9.143,4.093,9.143,9.143
				c0,5.049-4.093,9.143-9.143,9.143H228.423z M246.709,255.762v9.143c0,5.049-4.093,9.143-9.143,9.143s-9.143-4.093-9.143-9.143
				v-9.143c0-5.049,4.093-9.143,9.143-9.143S246.709,250.712,246.709,255.762z M264.995,255.762c0-5.049,4.093-9.143,9.143-9.143
				s9.143,4.093,9.143,9.143v9.143c0,5.049-4.093,9.143-9.143,9.143s-9.143-4.093-9.143-9.143V255.762z M200.995,91.19h109.714
				c5.049,0,9.143,4.093,9.143,9.143c0,5.049-4.093,9.143-9.143,9.143H200.995c-5.049,0-9.143-4.093-9.143-9.143
				C191.852,95.284,195.945,91.19,200.995,91.19z M131.943,156.689c2.732-1.801,6.218-2.004,9.141-0.534l91.429,45.714
				c4.504,2.265,6.325,7.749,4.07,12.258s-7.734,6.343-12.248,4.099l-7.364-3.682c-5.384,17.227-20.422,29.658-38.355,31.702
				c-17.933,2.045-35.384-6.681-44.508-22.254c-9.124-15.573-8.203-35.062,2.348-49.706l-3.55-1.775
				c-2.93-1.456-4.859-4.367-5.057-7.633C127.649,161.613,129.211,158.489,131.943,156.689z M255.852,347.708
				c-6.43,0.027-12.395-3.351-15.679-8.88l-12.991-21.656l-15.804,18.799c-4.555,5.532-11.72,8.207-18.786,7.013
				c-6.683-0.925-12.327-5.427-14.714-11.737l-8.018-22.281l-13.874,13.874c-3.407,3.423-8.037,5.348-12.866,5.349
				c-1.928-0.003-3.844-0.308-5.679-0.902c-6.538-2.103-11.334-7.707-12.402-14.491l-5.386-32.328
				c-6.412-3.45-13.906-4.296-20.926-2.364c-3.548,1.571-6.375,4.419-7.92,7.978c-1.028,3.105-3.636,5.424-6.84,6.081
				c-3.204,0.657-6.515-0.448-8.682-2.897c-2.167-2.449-2.86-5.87-1.818-8.97c3.194-8.609,9.801-15.516,18.259-19.089
				c13.437-4.446,28.151-2.741,40.214,4.661c36.339,18.169,52.928,26.464,123.911,26.464s87.571-8.295,123.911-26.464
				c12.064-7.401,26.777-9.107,40.214-4.661c8.458,3.573,15.065,10.481,18.259,19.089c1.591,4.768-0.966,9.925-5.723,11.545
				c-4.758,1.62-9.931-0.905-11.58-5.653c-1.537-3.692-4.47-6.628-8.161-8.17c-8.504-2.037-17.471-0.518-24.83,4.206
				c-1.987,0.993-3.906,1.951-5.808,2.896l-4.621,27.734c-1.082,6.762-5.873,12.341-12.393,14.433
				c-1.834,0.594-3.75,0.898-5.679,0.902c-4.829-0.001-9.459-1.926-12.866-5.349L332.733,309l-8.033,22.195
				c-2.378,6.334-8.031,10.858-14.731,11.79c-1.081,0.172-2.173,0.259-3.268,0.259c-6.092,0.033-11.865-2.718-15.679-7.469
				l-10.303-12.259l-9.189,15.313C268.247,344.357,262.282,347.735,255.852,347.708z"/>
			<path d="M244.512,310.52l11.339,18.898l11.339-18.898c-3.662,0.056-7.383,0.099-11.339,0.099S248.174,310.575,244.512,310.52z"/>
			<path d="M143.084,309.847l12.791-12.768c-5.416-2.095-10.689-4.441-16.082-6.993L143.084,309.847z"/>
			<path d="M195.066,324.99c-0.054-0.156,0.268-0.036,0.768-0.031l0.259-0.013c0.432-0.02,0.837-0.213,1.125-0.536l13.039-15.52
				c-8.152-0.728-15.402-1.692-22.017-2.87L195.066,324.99z"/>
		</g>
	</g>
</g>
<g>
</g>
<g>
</g>
<g>
</g>
<g>
</g>
<g>
</g>
<g>
</g>
<g>
</g>
<g>
</g>
<g>
</g>
<g>
</g>
<g>
</g>
<g>
</g>
<g>
</g>
<g>
</g>
<g>
</g>
</svg>
