<?xml version="1.0" encoding="iso-8859-1"?>
<!-- Generator: Adobe Illustrator 19.0.0, SVG Export Plug-In . SVG Version: 6.00 Build 0)  -->
<svg version="1.1" id="Capa_1" xmlns="http://www.w3.org/2000/svg" xmlns:xlink="http://www.w3.org/1999/xlink" x="0px" y="0px"
	 viewBox="0 0 512.001 512.001" style="enable-background:new 0 0 512.001 512.001;" xml:space="preserve">
<g>
	<g>
		<g>
			<path d="M338.376,484.62c-8.196,0.011-15.95,3.712-21.113,10.078c1.7,0.607,3.439,1.078,5.122,1.739
				c13.915,5.459,28.342,9.511,43.065,12.095C363.71,494.894,352.125,484.661,338.376,484.62z"/>
			<path d="M166.153,485.679c-10.491,3.014-18.169,12-19.509,22.833c14.691-2.584,29.087-6.629,42.973-12.075
				c1.705-0.67,3.468-1.149,5.19-1.763C187.92,486.205,176.643,482.665,166.153,485.679z"/>
			<path d="M402.376,502.905c-6.2-0.033-11.984,3.115-15.323,8.339c10.252,0.804,20.547,0.923,30.815,0.357
				C414.574,506.199,408.703,502.904,402.376,502.905z"/>
			<path d="M109.715,502.905c-6.329-0.001-12.201,3.296-15.494,8.7c10.268,0.562,20.562,0.439,30.814-0.368
				C121.694,506.017,115.912,502.872,109.715,502.905z"/>
			<path d="M409.095,146.147c10.324-0.497,20.646,1.006,30.401,4.424c-1.187-9.009-1.138-18.137,0.145-27.132
				c-8.287,2.777-16.972,4.185-25.712,4.167c-1.685,0-3.402-0.142-5.109-0.24C409.282,133.616,409.374,139.887,409.095,146.147z"/>
			<path d="M32.59,182.874c3.726-0.228,7.199-1.958,9.625-4.795c9.234-11.635,13.816-26.285,12.857-41.107
				c-0.259-27.058-12.554-45.884-23.437-45.884h-0.036c-3.717,0.232-7.18,1.962-9.598,4.795
				c-9.235,11.634-13.817,26.285-12.857,41.107C9.402,164.048,21.706,182.874,32.59,182.874z"/>
			<path d="M479.384,182.874h0.027c10.893,0,23.188-18.826,23.437-45.88c0.96-14.824-3.622-29.476-12.857-41.112
				c-2.418-2.832-5.881-4.563-9.598-4.795h-0.036c-10.875,0-23.17,18.826-23.429,45.884c-0.96,14.823,3.623,29.473,12.857,41.107
				C472.204,180.912,475.668,182.642,479.384,182.874z"/>
			<path d="M195.358,288.602c-0.152-0.607,0.286-0.429,0.884-0.487c0.432-0.022,0.837-0.217,1.125-0.54l14.427-17.17
				c-8.21-1.492-16.216-3.947-23.851-7.316L195.358,288.602z"/>
			<path d="M72.505,150.564c9.695-3.403,19.955-4.907,30.219-4.432c-0.401-6.247-0.416-12.512-0.047-18.761
				c-1.516,0.078-3.044,0.204-4.542,0.204c-8.761,0.013-17.467-1.393-25.779-4.163c0.625,4.434,0.96,8.905,1.002,13.383
				C73.385,141.398,73.1,145.998,72.505,150.564z"/>
			<path d="M256.001,109.731c-15.148,0-27.429,12.28-27.429,27.429s12.28,27.429,27.429,27.429c15.148,0,27.429-12.28,27.429-27.429
				C283.413,122.018,271.142,109.748,256.001,109.731z M262.492,143.651L262.492,143.651c-3.585,3.586-9.398,3.586-12.983,0.001
				c-3.585-3.585-3.585-9.398,0-12.983c2.648-2.556,6.555-3.31,9.964-1.924c1.108,0.466,2.128,1.117,3.019,1.924
				C266.028,134.274,266.028,140.045,262.492,143.651z"/>
			<path d="M507.688,473.039c-2.855-1.882-6.476-2.165-9.589-0.75c-29.946,13.085-55.509,13.357-75.991,0.795
				c-37.973-23.295-45.464-83.813-46.92-108.75c-0.028-0.398-0.025-0.798,0.009-1.196l15.58-214.259
				c2.774-38.446-10.272-76.357-36.116-104.956c-24.427-27.212-59.038-43.085-95.598-43.839
				c-38.137-0.862-74.868,14.403-101.16,42.042c-26.292,27.639-39.704,65.086-36.939,103.132l15.839,217.884
				c0.034,0.396,0.037,0.795,0.009,1.192c-1.455,24.938-8.946,85.455-46.92,108.75c-20.473,12.562-46.045,12.29-75.991-0.795
				c-1.311-0.581-2.727-0.883-4.161-0.888c-1.931,0.002-3.819,0.572-5.429,1.638c-2.718,1.747-4.347,4.769-4.313,8
				c-0.031,3.802,2.156,7.273,5.598,8.888c22.089,9.966,45.508,16.671,69.525,19.906c3.619-11.412,12.655-20.29,24.128-23.71
				c11.473-3.419,23.895-0.935,33.17,6.634c7.13-15.468,22.31-25.652,39.327-26.383c17.017-0.731,33.014,8.113,41.445,22.912
				c12.854-3.056,26.016-4.622,39.228-4.669h7.161c13.238,0.047,26.427,1.619,39.305,4.687
				c8.426-14.807,24.425-23.658,41.445-22.931c17.021,0.727,32.206,10.912,39.338,26.383c9.274-7.567,21.692-10.052,33.164-6.636
				c11.471,3.416,20.507,12.291,24.13,23.698c23.986-3.241,47.376-9.942,69.44-19.893c3.431-1.606,5.616-5.06,5.597-8.848
				C512.045,477.835,510.415,474.797,507.688,473.039z M365.671,233.953c-0.315,3.251-2.341,6.087-5.314,7.439
				c-2.012,0.943-3.939,2.059-5.759,3.335c-2.67,1.829-5.201,3.551-7.688,5.217l-12.741,43.854
				c-2.269,6.582-8.021,11.348-14.91,12.353c-1.08,0.176-2.173,0.264-3.268,0.263c-6.09,0.028-11.861-2.719-15.679-7.464
				l-15.638-18.61l-12.996,21.659c-3.305,5.505-9.256,8.874-15.677,8.875c-6.421,0.001-12.373-3.366-15.68-8.87l-12.991-21.661
				l-15.804,18.799c-4.546,5.544-11.719,8.22-18.786,7.009c-6.684-0.925-12.328-5.429-14.714-11.741l-12.939-44.469
				c-2.479-1.662-5.006-3.382-7.669-5.205c-1.826-1.279-3.759-2.397-5.777-3.344c-4.596-2.091-6.627-7.511-4.536-12.107
				c2.091-4.596,7.511-6.627,12.107-4.536c2.977,1.382,5.83,3.018,8.527,4.888c25.893,17.741,37.705,25.83,88.259,25.83
				s62.366-8.089,88.25-25.821c2.699-1.875,5.555-3.513,8.536-4.897c2.973-1.353,6.442-1.016,9.099,0.882
				C364.543,227.53,365.987,230.702,365.671,233.953z M256.001,228.588c-76.643,0-118.857-32.469-118.857-91.429
				c0-65.643,53.214-118.857,118.857-118.857c65.643,0,118.857,53.214,118.857,118.857
				C374.858,196.12,332.643,228.588,256.001,228.588z"/>
			<path d="M256.001,36.588c-55.518,0.063-100.509,45.053-100.571,100.571c0,60.455,54.688,73.143,100.571,73.143
				s100.571-12.688,100.571-73.143C356.509,81.642,311.519,36.651,256.001,36.588z M256.001,182.874
				c-25.247,0-45.714-20.467-45.714-45.714c0-25.247,20.467-45.714,45.714-45.714s45.714,20.467,45.714,45.714
				C301.685,162.395,281.236,182.845,256.001,182.874z"/>
			<path d="M244.595,273.581l11.405,19.007l11.405-19.007c-3.622,0.105-7.381,0.172-11.405,0.172
				C251.976,273.754,248.217,273.686,244.595,273.581z"/>
			<path d="M314.474,287.383c0.303,0.418,0.772,0.685,1.286,0.732c0.406,0.043,0.815-0.033,1.179-0.219l7.163-24.828
				c-7.647,3.379-15.668,5.841-23.894,7.335L314.474,287.383z"/>
		</g>
	</g>
</g>
<g>
</g>
<g>
</g>
<g>
</g>
<g>
</g>
<g>
</g>
<g>
</g>
<g>
</g>
<g>
</g>
<g>
</g>
<g>
</g>
<g>
</g>
<g>
</g>
<g>
</g>
<g>
</g>
<g>
</g>
</svg>
