<?xml version="1.0" encoding="iso-8859-1"?>
<!-- Generator: Adobe Illustrator 19.0.0, SVG Export Plug-In . SVG Version: 6.00 Build 0)  -->
<svg version="1.1" id="Capa_1" xmlns="http://www.w3.org/2000/svg" xmlns:xlink="http://www.w3.org/1999/xlink" x="0px" y="0px"
	 viewBox="0 0 507.908 507.908" style="enable-background:new 0 0 507.908 507.908;" xml:space="preserve">
<g>
	<g>
		<g>
			<path d="M87.463,431.543c-4.784,18.982-7.21,38.482-7.223,58.057c0,1.92,3.566,6.309,13.257,10.423
				c10.563,4.111,21.695,6.578,33.006,7.314l4.754,0.274c12.865,0.833,25.784-0.09,38.4-2.743c2.469-0.457,4.662-1.006,6.674-1.554
				c7.034-1.678,13.657-4.756,19.474-9.051c2.103-1.829,3.291-3.474,3.291-4.663c-0.366-2.469-1.006-9.874-1.463-21.12
				C150.914,463.177,114.068,450.834,87.463,431.543z"/>
			<path d="M310.274,468.48c-0.457,11.337-1.097,18.651-1.463,21.303c0,1.006,1.189,2.651,3.2,4.389
				c0.699,0.619,1.432,1.199,2.194,1.737c5.365,3.367,11.227,5.867,17.371,7.406c2.011,0.549,4.206,1.097,6.4,1.554
				c8.08,1.603,16.272,2.581,24.503,2.926l5.76,0.091c3.017,0,5.76-0.091,8.411-0.274l4.937-0.274
				c11.221-0.744,22.261-3.211,32.731-7.314c2.845-1.165,5.571-2.604,8.137-4.297c3.84-2.651,5.211-4.937,5.211-6.126
				c-0.013-19.576-2.439-39.075-7.223-58.057C393.84,450.834,356.994,463.177,310.274,468.48z"/>
			<path d="M176.24,242.926c-21.883-0.068-39.966,17.056-41.089,38.911c-1.123,21.854,15.108,40.742,36.883,42.918
				c-0.208-1.362-0.33-2.737-0.366-4.114c0-19.84,18.011-36.663,44.709-44.891C212.608,256.593,195.762,242.817,176.24,242.926z
				 M178.16,285.989c-1.753,1.67-4.071,2.617-6.491,2.651c-0.613-0.016-1.224-0.077-1.829-0.183
				c-0.573-0.099-1.128-0.284-1.646-0.549c-0.583-0.2-1.136-0.477-1.646-0.823l-1.371-1.097c-3.535-3.606-3.535-9.377,0-12.983
				l1.371-1.097c0.51-0.346,1.063-0.623,1.646-0.823c0.518-0.264,1.073-0.449,1.646-0.549c3.009-0.568,6.108,0.351,8.32,2.469
				C181.695,276.611,181.695,282.383,178.16,285.989z"/>
			<path d="M90.754,136.046c10.586-18.062,22.732-35.163,36.297-51.109c-31.086-11.063-58.057-7.406-80.274,11.154
				c-2.491,1.816-3.616,4.972-2.834,7.954c1.127,3.823,4.309,6.686,8.229,7.406C67.747,114.304,81.593,123.129,90.754,136.046z"/>
			<path d="M253.954,288.64c-37.669,0-64,16.823-64,32c0,16.731,28.343,59.429,64,59.429s64-42.697,64-59.429
				C317.954,305.463,291.623,288.64,253.954,288.64z"/>
			<path d="M461.131,96.091c-22.309-18.56-49.28-22.217-80.274-11.154c13.478,16.046,25.618,33.17,36.297,51.2
				c9.108-12.989,22.973-21.859,38.583-24.686c3.92-0.72,7.102-3.583,8.229-7.406C464.747,101.064,463.622,97.907,461.131,96.091z"
				/>
			<path d="M297.84,42.149c-2.678,7.472-2.383,15.687,0.823,22.949c1.103,2.156,1.299,4.664,0.543,6.964
				c-0.756,2.301-2.399,4.204-4.566,5.287c-1.265,0.675-2.68,1.021-4.114,1.006c-3.454,0.03-6.619-1.925-8.137-5.029
				c-6.659-14.657-6.153-31.573,1.371-45.806c-0.012-0.101,0.021-0.201,0.091-0.274c0.119-0.263,0.273-0.509,0.457-0.731
				c4.538-9.577,10.35-18.496,17.28-26.514c-42.423,13.074-66.834,54.949-67.109,55.497c-2.525,4.393-8.133,5.908-12.526,3.383
				c-4.393-2.525-5.908-8.133-3.383-12.526c0.366-0.549,2.56-4.206,6.309-9.417C129.428,64.549,52.811,220.891,52.811,319.269
				c0,90.149,65.829,133.943,201.143,133.943s201.143-43.794,201.143-133.943C455.097,222.263,383.417,79.451,297.84,42.149z
				 M355.623,136.777c0.098-0.622,0.251-1.234,0.457-1.829c0.158-0.539,0.372-1.06,0.64-1.554c0.309-0.5,0.677-0.961,1.097-1.371
				c0.348-0.469,0.746-0.898,1.189-1.28c0.183-0.091,0.274-0.274,0.366-0.366c0.378-0.22,0.775-0.404,1.188-0.549
				c0.501-0.252,1.021-0.466,1.554-0.64c0.654-0.187,1.331-0.279,2.011-0.274c0.366,0,0.64-0.183,1.097-0.183
				c0.183,0,0.274,0.091,0.457,0.183c0.622,0.099,1.234,0.251,1.829,0.457c0.539,0.158,1.06,0.372,1.554,0.64
				c0.465,0.284,0.895,0.621,1.281,1.006c0.52,0.354,0.982,0.785,1.371,1.28l0.366,0.366
				c38.766,56.412,64.731,131.383,64.731,186.606c0,28.617,0,115.657-182.857,115.657S71.097,347.886,71.097,319.269
				c0-57.6,27.52-134.766,68.48-191.909c0-0.091,0.091-0.091,0.183-0.183c0.419-0.525,0.912-0.987,1.463-1.371
				c0.353-0.383,0.752-0.721,1.189-1.006c0.401-0.237,0.832-0.421,1.28-0.549c0.688-0.255,1.39-0.469,2.103-0.64h0.183
				c0.398-0.019,0.798,0.012,1.189,0.091c0.706-0.034,1.413,0.027,2.103,0.183c0.64,0.201,1.254,0.477,1.829,0.823
				c0.42,0.127,0.82,0.311,1.189,0.549c0.091,0,0.091,0.091,0.183,0.183c0.549,0.457,1.006,1.006,1.554,1.554
				c0.296,0.349,0.571,0.715,0.823,1.097c0.223,0.472,0.406,0.961,0.549,1.463c0.308,0.604,0.524,1.251,0.64,1.92v0.183
				c1.884,18.492,7.186,36.473,15.634,53.029c3.393-29.732,19.672-56.475,44.526-73.143c3.14-2.003,7.174-1.931,10.24,0.183
				c3.1,2.126,4.557,5.951,3.657,9.6c-3.155,15.869-2.686,32.246,1.371,47.909c9.778-18.47,27.454-31.466,48-35.291
				c1.178-0.228,2.388-0.228,3.566,0c25.15,5.161,43.641,26.658,44.983,52.297c11.703-11.246,26.149-28.891,27.429-49.006
				C355.44,137.051,355.531,136.96,355.623,136.777z"/>
			<path d="M291.531,275.749c26.697,8.229,44.709,25.051,44.709,44.891c-0.035,1.378-0.157,2.752-0.366,4.114
				c21.775-2.176,38.006-21.064,36.883-42.918c-1.123-21.854-19.206-38.978-41.089-38.911
				C312.146,242.817,295.3,256.593,291.531,275.749z M327.828,276.023c0.442-1.119,1.094-2.143,1.92-3.017
				c0.859-0.846,1.887-1.5,3.017-1.92c2.226-0.914,4.723-0.914,6.949,0c1.13,0.42,2.158,1.074,3.017,1.92
				c0.826,0.874,1.478,1.898,1.92,3.017c0.469,1.099,0.718,2.279,0.731,3.474c-0.018,2.424-0.967,4.748-2.651,6.491
				c-0.859,0.846-1.887,1.5-3.017,1.92c-2.214,0.975-4.735,0.975-6.949,0c-1.13-0.42-2.158-1.074-3.017-1.92
				c-1.67-1.753-2.616-4.071-2.651-6.491C327.11,278.302,327.359,277.122,327.828,276.023z"/>
			<path d="M317.863,215.497c-1.725,0.01-3.414-0.5-4.846-1.463c-3.062-1.963-4.676-5.549-4.114-9.143
				c6.766-40.411-20.297-50.651-27.52-52.571c-20.554,4.1-36.13,20.968-38.583,41.783c-0.212,3.811-2.766,7.091-6.409,8.231
				s-7.611-0.1-9.957-3.111c-11.888-16.879-17.779-37.255-16.731-57.874c-14.635,18.406-22.048,41.521-20.846,65.006
				c0.255,3.484-1.433,6.824-4.389,8.686c-1.449,0.826-3.086,1.267-4.754,1.28c-0.429,0.018-0.858-0.012-1.28-0.091
				c-1.306-0.181-2.555-0.649-3.657-1.371c-18.743-12.069-28.16-37.851-32.914-57.966c-31.451,51.2-52.48,115.109-52.48,162.377
				c0,29.166,0,97.28,164.389,97.371h0.183c1.189,0,2.377,0,3.566-0.091h3.109c157.897-1.737,157.897-68.48,157.897-97.28
				c0-46.354-19.749-107.703-50.194-158.537c-10.148,21.433-25.795,39.794-45.349,53.211
				C321.481,214.984,319.69,215.528,317.863,215.497z M391.097,284.069c0,32.822-26.607,59.429-59.429,59.429
				c-0.549,0-1.006-0.091-1.554-0.091c-11.429,24.046-37.394,51.291-69.669,54.583c-0.939,0.141-1.885,0.233-2.834,0.274h-0.366
				c-1.097,0.091-2.194,0.091-3.291,0.091c-35.2,0-64-29.349-76.16-54.949c-0.549,0-1.006,0.091-1.554,0.091
				c-32.821,0-59.429-26.607-59.429-59.429c0-32.821,26.607-59.429,59.429-59.429c0.581-0.015,1.161,0.015,1.737,0.091
				c0.429-0.015,0.858,0.016,1.28,0.091c26.996,1.078,49.744,20.5,55.04,46.994c13.032-1.95,26.282-1.95,39.314,0
				c4.694-23.345,23.055-41.525,46.446-45.989c0.693-0.166,1.395-0.288,2.103-0.366c3.139-0.554,6.321-0.829,9.509-0.822
				C364.49,224.64,391.097,251.247,391.097,284.069z"/>
		</g>
	</g>
</g>
<g>
</g>
<g>
</g>
<g>
</g>
<g>
</g>
<g>
</g>
<g>
</g>
<g>
</g>
<g>
</g>
<g>
</g>
<g>
</g>
<g>
</g>
<g>
</g>
<g>
</g>
<g>
</g>
<g>
</g>
</svg>
