<?xml version="1.0" encoding="iso-8859-1"?>
<!-- Generator: Adobe Illustrator 19.0.0, SVG Export Plug-In . SVG Version: 6.00 Build 0)  -->
<svg version="1.1" id="Capa_1" xmlns="http://www.w3.org/2000/svg" xmlns:xlink="http://www.w3.org/1999/xlink" x="0px" y="0px"
	 viewBox="0 0 512 512" style="enable-background:new 0 0 512 512;" xml:space="preserve">
<g>
	<g>
		<g>
			<path d="M135.763,113.805c-12.617,10.338-23.171,22.964-31.107,37.215c-0.054,0.453-0.143,0.902-0.267,1.341L94.21,177.705
				c-1.838,7.678-2.771,15.544-2.781,23.438c0.639,30.923,14.078,60.196,37.112,80.838c14.162-22.331,42.843-39.509,78.427-47.834
				c0.173-0.047,0.338-0.089,0.515-0.126c31.937-7.266,65.098-7.266,97.035,0c0.184,0.038,0.354,0.081,0.534,0.131
				c35.575,8.326,64.25,25.502,78.409,47.829c23.034-20.642,36.472-49.914,37.112-80.838c-0.01-7.899-0.945-15.77-2.785-23.452
				l-10.175-25.325c-0.124-0.44-0.212-0.889-0.266-1.343c-7.935-14.25-18.488-26.875-31.104-37.213
				c-0.417-0.296-0.808-0.628-1.168-0.993c-23.589-18.645-51.485-31.063-81.126-36.113l-0.658,7.233
				c-0.817,9.438-8.736,16.673-18.209,16.634H236.92c-9.472,0.039-17.391-7.193-18.21-16.629l-0.658-7.237
				c-29.644,5.05-57.542,17.469-81.132,36.118C136.563,113.183,136.176,113.512,135.763,113.805z M275.085,169.978
				C277.009,165.683,294.612,128,320,128c25.247,0,45.714,20.467,45.714,45.714S345.248,219.429,320,219.429
				s-45.714-20.467-45.714-45.714C274.286,172.426,274.558,171.153,275.085,169.978z M192,128c25.388,0,42.991,37.683,44.915,41.978
				c0.527,1.175,0.799,2.449,0.799,3.737c0,25.247-20.467,45.714-45.714,45.714s-45.714-20.467-45.714-45.714S166.753,128,192,128z"
				/>
			<path d="M346.005,270.353l-28.683,28.683c-2.422,2.423-5.996,3.288-9.258,2.241c-3.262-1.047-5.665-3.83-6.224-7.21
				l-7.205-43.475c-25.516-4.979-51.753-4.979-77.269,0l-7.205,43.475c-0.56,3.38-2.962,6.163-6.224,7.21
				c-3.262,1.047-6.836,0.182-9.258-2.241l-28.683-28.683c-9.511,5.839-17.499,13.853-23.307,23.382
				c33.05,23.54,72.739,35.942,113.312,35.409c40.573,0.534,80.262-11.869,113.312-35.408
				C363.504,284.205,355.515,276.192,346.005,270.353z"/>
			<path d="M228.572,345.599V384c0.01,10.095,8.191,18.276,18.286,18.286h18.286c10.095-0.01,18.276-8.191,18.286-18.286v-38.401
				c-9.098,1.163-18.257,1.774-27.429,1.829C246.829,347.373,237.669,346.762,228.572,345.599z"/>
			<path d="M313.981,255.506l2.988,18.026l12.237-12.237C324.24,259.089,319.158,257.157,313.981,255.506z"/>
			<path d="M198.019,255.506c-5.176,1.651-10.259,3.584-15.224,5.789l12.237,12.237L198.019,255.506z"/>
			<path d="M235.328,64.731l0.016,0.047l-0.005,0.078l1.585,17.431h38.147l1.588-17.453l-0.003-0.056l0.012-0.034l4.078-44.801
				c0.467-5.117-1.242-10.194-4.706-13.988C272.575,2.16,267.674-0.001,262.536,0h-13.071c-5.138-0.001-10.039,2.16-13.504,5.954
				s-5.173,8.871-4.706,13.988L235.328,64.731z"/>
			<path d="M320,201.143c15.148,0,27.429-12.28,27.429-27.429s-12.28-27.429-27.429-27.429c-9.219,0-21.335,16.853-27.366,29.317
				C293.644,189.977,305.591,201.126,320,201.143z M311.04,171.884c0.098-0.573,0.282-1.129,0.545-1.647
				c0.202-0.582,0.479-1.134,0.826-1.643c0.336-0.48,0.703-0.938,1.098-1.371c0.872-0.828,1.895-1.482,3.013-1.924
				c3.407-1.424,7.337-0.666,9.969,1.924c0.366,0.455,0.732,0.911,1.094,1.37c0.346,0.509,0.624,1.061,0.826,1.643
				c0.262,0.519,0.447,1.074,0.549,1.647c0.244,1.207,0.244,2.45,0,3.656c-0.102,0.573-0.287,1.128-0.549,1.647
				c-0.201,0.583-0.479,1.137-0.826,1.647c-0.362,0.455-0.728,0.911-1.094,1.371c-1.754,1.668-4.071,2.615-6.491,2.652
				c-1.196-0.014-2.378-0.263-3.478-0.732c-1.117-0.443-2.14-1.094-3.013-1.92c-0.393-0.434-0.76-0.892-1.098-1.371
				c-0.347-0.51-0.625-1.064-0.826-1.647c-0.263-0.519-0.447-1.074-0.545-1.647C310.796,174.333,310.796,173.09,311.04,171.884
				L311.04,171.884z"/>
			<path d="M192,201.143c14.409-0.017,26.356-11.166,27.366-25.54c-6.031-12.464-18.147-29.317-27.366-29.317
				c-15.148,0-27.429,12.28-27.429,27.429S176.852,201.143,192,201.143z M183.04,171.884c0.098-0.573,0.282-1.129,0.545-1.647
				c0.202-0.582,0.479-1.134,0.826-1.643c0.366-0.46,0.732-0.915,1.098-1.371c0.888-0.808,1.907-1.459,3.013-1.924
				c1.669-0.727,3.522-0.918,5.304-0.545c0.573,0.098,1.129,0.282,1.647,0.545c0.583,0.201,1.137,0.479,1.647,0.826
				c0.455,0.366,0.911,0.732,1.37,1.098c0.366,0.455,0.732,0.911,1.094,1.371c0.346,0.509,0.624,1.061,0.826,1.643
				c0.262,0.519,0.447,1.074,0.549,1.647c0.101,0.605,0.162,1.217,0.183,1.83c-0.015,1.194-0.263,2.374-0.732,3.473
				c-0.465,1.107-1.114,2.127-1.92,3.018c-0.46,0.366-0.915,0.732-1.371,1.094c-0.51,0.347-1.064,0.625-1.647,0.826
				c-0.519,0.263-1.074,0.448-1.647,0.549c-0.603,0.105-1.213,0.166-1.826,0.183c-1.196-0.014-2.378-0.263-3.478-0.732
				c-2.294-0.836-4.101-2.643-4.937-4.937c-0.467-1.099-0.715-2.279-0.728-3.474C182.876,173.101,182.937,172.489,183.04,171.884z"
				/>
			<path d="M436.768,84.446c-13.848,9.394-27.62,17.455-39.342,23.847c8.591,8.339,16.128,17.699,22.444,27.87
				C433.326,125.474,436.962,104.658,436.768,84.446z"/>
			<path d="M463.322,13.201c-24.632,30.912-73.855,58.302-98.088,70.593c6.011,3.56,11.807,7.471,17.359,11.712
				c19.843-10.355,38.87-22.204,56.916-35.444c2.645-1.979,6.153-2.375,9.173-1.038c3.021,1.337,5.084,4.201,5.398,7.489
				c4.941,51.678-9.6,75.354-25.58,86.103c2.475,5.698,4.518,11.574,6.111,17.578C488.705,139.885,473.442,52.375,463.322,13.201z"
				/>
			<path d="M319.631,432.623c-6.798,7.625-15.112,13.747-24.411,17.974c7.69,10.578,12.703,28.187,14.797,53.175
				c0.455,4.676,4.391,8.239,9.089,8.228h34.946c2.848-0.005,5.533-1.329,7.271-3.586c1.738-2.257,2.332-5.191,1.609-7.946
				C354.55,474.517,339.639,451.155,319.631,432.623z"/>
			<path d="M375.86,311.354c-5.953,4.187-12.149,8.018-18.554,11.475c15.089,13.318,24.426,31.968,26.047,52.028h45.692
				C424.342,343.274,396.014,322.414,375.86,311.354z"/>
			<path d="M320,384v-46.001c-5.958,1.79-12.053,3.328-18.286,4.615V384c-0.023,20.188-16.383,36.548-36.571,36.571h-18.286
				c-20.188-0.023-36.548-16.383-36.571-36.571v-41.386c-6.233-1.291-12.328-2.829-18.286-4.615V384
				c0.033,30.283,24.574,54.824,54.857,54.857h18.286C295.426,438.824,319.967,414.283,320,384z"/>
			<path d="M75.228,84.442c-0.213,20.378,3.433,41.32,16.859,51.786c6.325-10.197,13.877-19.578,22.487-27.935
				C102.851,101.898,89.076,93.837,75.228,84.442z"/>
			<path d="M57.915,66.513c0.315-3.29,2.38-6.154,5.403-7.491s6.531-0.939,9.178,1.041c18.045,13.24,37.07,25.088,56.911,35.444
				c5.552-4.241,11.349-8.151,17.36-11.712c-24.232-12.291-73.453-39.681-98.084-70.593C38.559,52.375,23.292,139.881,77.39,170.193
				c1.589-5.984,3.624-11.841,6.088-17.521C67.686,142.14,52.945,118.493,57.915,66.513z"/>
			<path d="M82.286,402.286c0.01,10.095,8.191,18.276,18.286,18.286h9.143c10.095-0.01,18.276-8.191,18.286-18.286v-9.143H82.286
				V402.286z"/>
			<path d="M154.694,322.829c-6.405-3.457-12.6-7.288-18.554-11.475c-20.154,11.06-48.482,31.92-53.181,63.503h45.688
				C130.269,354.797,139.605,336.147,154.694,322.829z"/>
			<path d="M384,402.286c0.01,10.095,8.191,18.276,18.286,18.286h9.143c10.094-0.012,18.274-8.192,18.286-18.286v-9.143H384V402.286
				z"/>
			<path d="M192.377,432.632c-19.991,18.545-34.901,41.898-43.31,67.837c-0.723,2.755-0.129,5.689,1.609,7.946
				c1.738,2.257,4.423,3.581,7.271,3.586h34.946c4.698,0.011,8.634-3.552,9.089-8.228c2.095-24.988,7.108-42.598,14.798-53.175
				C207.485,446.371,199.174,440.252,192.377,432.632z"/>
		</g>
	</g>
</g>
<g>
</g>
<g>
</g>
<g>
</g>
<g>
</g>
<g>
</g>
<g>
</g>
<g>
</g>
<g>
</g>
<g>
</g>
<g>
</g>
<g>
</g>
<g>
</g>
<g>
</g>
<g>
</g>
<g>
</g>
</svg>
