<?xml version="1.0" encoding="iso-8859-1"?>
<!-- Generator: Adobe Illustrator 19.0.0, SVG Export Plug-In . SVG Version: 6.00 Build 0)  -->
<svg version="1.1" id="Capa_1" xmlns="http://www.w3.org/2000/svg" xmlns:xlink="http://www.w3.org/1999/xlink" x="0px" y="0px"
	 viewBox="0 0 512.032 512.032" style="enable-background:new 0 0 512.032 512.032;" xml:space="preserve">
<g transform="translate(0 -1)">
	<g>
		<g>
			<path d="M301.728,156.442c-13.04,0.035-25.088,6.969-31.67,18.226c0.107,0.184,0.192,0.384,0.302,0.566
				c0.444,0.731,0.939,1.421,1.429,2.114c0.474,0.674,0.949,1.347,1.465,1.984c0.551,0.679,1.137,1.321,1.732,1.957
				c0.551,0.588,1.109,1.166,1.695,1.715c0.619,0.581,1.26,1.136,1.916,1.673c0.65,0.53,1.317,1.036,2.001,1.518
				c0.658,0.467,1.325,0.922,2.011,1.345c0.762,0.468,1.549,0.891,2.343,1.302c0.671,0.348,1.338,0.701,2.03,1.007
				c0.887,0.392,1.803,0.718,2.722,1.04c0.655,0.229,1.299,0.484,1.968,0.677c0.298,0.085,0.612,0.126,0.913,0.204v-7.899
				c0-5.049,4.093-9.143,9.143-9.143c5.049,0,9.143,4.093,9.143,9.143v7.898c0.305-0.079,0.621-0.12,0.923-0.207
				c0.644-0.185,1.265-0.431,1.896-0.651c0.954-0.333,1.903-0.671,2.824-1.08c0.642-0.285,1.261-0.614,1.884-0.935
				c0.861-0.443,1.712-0.903,2.534-1.412c0.613-0.379,1.208-0.786,1.797-1.201c0.78-0.548,1.539-1.125,2.276-1.732
				c0.56-0.463,1.11-0.938,1.643-1.435c0.7-0.652,1.368-1.34,2.018-2.047c0.493-0.535,0.985-1.07,1.448-1.637
				c0.624-0.763,1.196-1.573,1.76-2.39c0.403-0.584,0.821-1.156,1.193-1.766c0.12-0.196,0.211-0.414,0.327-0.613
				C326.811,163.409,314.766,156.477,301.728,156.442z"/>
			<path d="M337.824,151.739c-2.273-18.206-17.749-31.869-36.096-31.869s-33.823,13.663-36.096,31.869
				C286.288,133.628,317.168,133.628,337.824,151.739z"/>
			<path d="M138.253,94.311c5.122-6.475,10.898-12.406,17.235-17.699c-7.489-4.484-14.674-8.949-21.255-13.42
				C133.962,73.71,135.318,84.207,138.253,94.311z"/>
			<path d="M126.215,113.027c-8.881-16.023-12.057-38.744-9.317-67.795c0.31-3.296,2.378-6.166,5.406-7.504
				c3.028-1.338,6.542-0.935,9.188,1.053c12.895,9.549,26.353,18.315,40.299,26.25c7.682-4.55,15.818-8.287,24.275-11.148
				c-27.774-13.325-53.677-30.242-77.044-50.316c-2.412-2.343-5.921-3.161-9.121-2.125c-3.09,0.936-5.412,3.499-6.04,6.665
				c-7.166,34.24-13.695,92.725,14.214,125.763C120.072,126.664,122.799,119.68,126.215,113.027z"/>
			<path d="M210.299,156.442c-13.04,0.035-25.088,6.969-31.67,18.226c0.107,0.184,0.192,0.384,0.302,0.566
				c0.444,0.731,0.939,1.421,1.429,2.114c0.474,0.674,0.949,1.347,1.465,1.984c0.551,0.679,1.137,1.321,1.732,1.957
				c0.551,0.588,1.109,1.166,1.695,1.715c0.619,0.581,1.26,1.136,1.916,1.673c0.65,0.53,1.317,1.036,2.001,1.518
				c0.658,0.467,1.325,0.922,2.011,1.345c0.762,0.468,1.549,0.891,2.343,1.302c0.671,0.348,1.338,0.701,2.03,1.007
				c0.887,0.392,1.803,0.718,2.722,1.04c0.655,0.229,1.299,0.484,1.968,0.677c0.299,0.085,0.612,0.126,0.913,0.204v-7.899
				c0-5.049,4.093-9.143,9.143-9.143c5.049,0,9.143,4.093,9.143,9.143v7.898c0.305-0.079,0.621-0.12,0.923-0.207
				c0.644-0.185,1.265-0.431,1.896-0.651c0.954-0.333,1.903-0.671,2.824-1.08c0.642-0.285,1.261-0.614,1.884-0.935
				c0.861-0.443,1.712-0.903,2.534-1.412c0.613-0.379,1.208-0.786,1.797-1.201c0.78-0.548,1.539-1.125,2.276-1.732
				c0.56-0.463,1.11-0.938,1.643-1.435c0.7-0.652,1.368-1.34,2.018-2.047c0.493-0.535,0.986-1.07,1.448-1.637
				c0.624-0.763,1.196-1.573,1.76-2.39c0.404-0.584,0.821-1.156,1.193-1.766c0.12-0.196,0.211-0.414,0.327-0.613
				C235.383,163.409,223.337,156.477,210.299,156.442z"/>
			<path d="M380.625,38.781c2.651-1.993,6.173-2.394,9.204-1.048c3.031,1.346,5.095,4.227,5.395,7.53
				c2.637,29.092-0.576,51.788-9.415,67.756c3.426,6.672,6.159,13.677,8.157,20.905c27.969-33.141,21.453-91.603,14.284-125.826
				c-0.628-3.163-2.949-5.722-6.036-6.656c-3.195-1.036-6.702-0.22-9.112,2.121c-23.339,20.124-49.249,37.056-77.049,50.352
				c8.427,2.858,16.534,6.586,24.19,11.121C354.223,57.109,367.708,48.341,380.625,38.781z"/>
			<path d="M373.812,94.356c2.967-10.11,4.332-20.623,4.046-31.155c-6.632,4.498-13.842,8.972-21.299,13.426
				C362.904,81.928,368.685,87.869,373.812,94.356z"/>
			<path d="M256.014,330.156c-36.773,0-64,33.688-64,42.589c3.504,3.567,27.451,3.218,44.92,2.973
				c12.17-0.179,25.991-0.179,38.161,0c17.13,0.237,40.482,0.576,44.915-3.152C319.652,363.397,292.541,330.156,256.014,330.156z"/>
			<path d="M210.299,247.87c-5.047,0.007-9.136,4.096-9.143,9.143v13.833c5.323,1.047,11.375,1.97,18.286,2.7v-16.532
				C219.436,251.967,215.346,247.877,210.299,247.87z"/>
			<path d="M467.389,328.906l-85.107-88.67c-1.637-1.701-2.551-3.97-2.549-6.33v-71.178c0-53.88-47.777-97.714-106.505-97.714
				h-34.429c-58.728,0-106.505,43.835-106.505,97.714v71.179c0.002,2.361-0.912,4.63-2.549,6.33L44.63,328.902
				c-5.511,5.577-8.414,13.219-7.996,21.049c0.549,8.011,4.452,15.42,10.75,20.402c14.02,11.243,34.251,10.149,46.978-2.54
				l22.192-23.125c2.584-2.693,6.546-3.545,10.009-2.152c3.463,1.393,5.732,4.75,5.732,8.482v53.857
				c0.005,12.761,1.366,25.486,4.058,37.96l9.509,44.071c4.201,15.816,18.761,26.64,35.117,26.107
				c16.359,0.529,30.919-10.301,35.116-26.12l10.683-49.518c3.097-12.783,14.639-21.714,27.79-21.504h2.893
				c13.153-0.21,24.695,8.723,27.79,21.509l10.688,49.527c4.662,15.5,18.935,26.11,35.121,26.107
				c16.186-0.003,30.455-10.619,35.111-26.121l9.504-44.058c2.692-12.474,4.053-25.199,4.058-37.96v-53.858
				c0.001-3.732,2.269-7.09,5.732-8.482s7.424-0.541,10.009,2.152l22.192,23.125c12.723,12.7,32.964,13.794,46.982,2.54
				c6.298-4.986,10.201-12.397,10.75-20.411C475.814,342.114,472.905,334.475,467.389,328.906z M156.482,145.791
				c5.077-25.699,27.622-44.218,53.818-44.206c18.4,0.01,35.569,9.248,45.714,24.598c13.347-20.195,38.358-29.247,61.539-22.272
				s39.044,28.324,39.033,52.531c0.004,7.52-1.521,14.963-4.482,21.875l-0.048,0.09l-0.006,0.026
				c-8.057,18.417-25.544,30.951-45.572,32.666c-20.029,1.715-39.392-7.663-50.463-24.441
				c-14.447,21.852-42.333,30.432-66.566,20.482S151.405,171.49,156.482,145.791z M333.085,385.366
				c-7.612,7.505-21.652,8.795-42.13,8.795c-4.991,0-10.366-0.076-16.125-0.161c-12-0.17-25.634-0.17-37.634,0
				c-29.397,0.433-48.777,0.701-58.254-8.634c-3.391-3.317-5.275-7.878-5.214-12.621c0-20.571,37.254-60.875,82.286-60.875
				c45.031,0,82.286,40.304,82.286,60.875C338.361,377.488,336.476,382.049,333.085,385.366z M365.384,259.496L365.384,259.496
				c-1.434,5.078-11.968,28.177-81.618,33.108c-0.114,0.005-0.209,0.065-0.324,0.065c-0.062,0-0.113-0.034-0.175-0.035
				c-8.286,0.574-17.217,0.95-27.254,0.95c-10.037,0-18.968-0.376-27.254-0.95c-0.061,0.001-0.113,0.035-0.175,0.035
				c-0.115,0-0.21-0.061-0.324-0.065c-69.65-4.932-80.184-28.03-81.618-33.109c-1.333-4.744,1.334-9.692,6.03-11.186
				c4.696-1.494,9.732,1.003,11.385,5.646c0.371,0.682,4.054,6.536,18.813,11.942v-8.884c0-15.148,12.28-27.429,27.429-27.429
				s27.429,12.28,27.429,27.429v17.844c5.704,0.258,11.681,0.441,18.286,0.441c6.603,0,12.58-0.185,18.286-0.445v-17.84
				c0-15.148,12.28-27.429,27.429-27.429s27.429,12.28,27.429,27.429v8.894c15.041-5.45,18.599-11.265,18.629-11.376
				c0.865-3.169,3.363-5.631,6.545-6.449s6.558,0.135,8.843,2.495C365.46,252.937,366.303,256.342,365.384,259.496z"/>
			<path d="M301.728,247.87c-5.047,0.007-9.136,4.096-9.143,9.143v16.516c6.908-0.733,12.959-1.659,18.286-2.706v-13.809
				C310.864,251.967,306.775,247.877,301.728,247.87z"/>
			<path d="M246.396,151.739c-2.273-18.206-17.749-31.869-36.096-31.869s-33.823,13.663-36.096,31.869
				C194.86,133.628,225.739,133.628,246.396,151.739z"/>
		</g>
	</g>
</g>
<g>
</g>
<g>
</g>
<g>
</g>
<g>
</g>
<g>
</g>
<g>
</g>
<g>
</g>
<g>
</g>
<g>
</g>
<g>
</g>
<g>
</g>
<g>
</g>
<g>
</g>
<g>
</g>
<g>
</g>
</svg>
