<?xml version="1.0" encoding="iso-8859-1"?>
<!-- Generator: Adobe Illustrator 19.0.0, SVG Export Plug-In . SVG Version: 6.00 Build 0)  -->
<svg version="1.1" id="Capa_1" xmlns="http://www.w3.org/2000/svg" xmlns:xlink="http://www.w3.org/1999/xlink" x="0px" y="0px"
	 viewBox="0 0 512.477 512.477" style="enable-background:new 0 0 512.477 512.477;" xml:space="preserve">
<g transform="translate(-1)">
	<g>
		<g>
			<path d="M348.667,466.518h-28.41c-2.808,27.459,2.296,38.543,5.883,42.679c1.114,1.376,2.58,2.424,4.241,3.035h73.071
				c4.233,0.154,8.366-1.306,11.563-4.085c18.912-18.25,16.223-54.829,11.274-78.325
				C407.213,453.058,378.73,466.523,348.667,466.518z"/>
			<path d="M165.81,466.518c-30.029,0.005-58.484-13.429-77.561-36.619c-4.5,21.16-8.858,58.877,11.213,78.248
				c3.197,2.779,7.33,4.239,11.563,4.085h73.062c1.934-0.708,3.602-1.996,4.777-3.688c3.333-4.315,8.063-15.518,5.362-42.027H165.81
				z"/>
			<path d="M302.952,301.947h18.286c5.047-0.005,9.138-4.095,9.143-9.143v-9.143H293.81v9.143
				C293.815,297.852,297.905,301.942,302.952,301.947z"/>
			<path d="M65.238,290.941c-26.889,17.798-60.667,47.606-63.866,86.577c-1.366,8.459,1.068,17.09,6.652,23.589
				c5.363,2.32,11.47,2.193,16.732-0.348c13.56-6.245,25.819-14.993,36.134-25.786c1.541-1.408,3.066-2.778,4.595-4.161
				c-0.078-1.623-0.247-3.223-0.247-4.866V290.941z"/>
			<path d="M193.238,301.947h18.286c5.047-0.005,9.138-4.095,9.143-9.143v-9.143h-36.571v9.143
				C184.1,297.852,188.191,301.942,193.238,301.947z"/>
			<path d="M513.104,377.514c-3.199-38.967-36.977-68.775-63.866-86.573v75.006c0,1.642-0.168,3.242-0.247,4.866
				c1.529,1.383,3.054,2.753,4.595,4.161c10.315,10.792,22.574,19.541,36.134,25.786c5.263,2.536,11.368,2.663,16.732,0.348
				C512.037,394.607,514.471,385.974,513.104,377.514z"/>
			<path d="M156.667,128.233c35.346,0,64-28.654,64-64s-28.654-64-64-64c-35.346,0-64,28.654-64,64
				C92.708,99.562,121.338,128.192,156.667,128.233z M156.667,18.518c25.247,0,45.714,20.467,45.714,45.714
				s-20.467,45.714-45.714,45.714s-45.714-20.467-45.714-45.714C110.982,38.998,131.432,18.548,156.667,18.518z"/>
			<path d="M357.81,91.661c15.148,0,27.429-12.28,27.429-27.429s-12.28-27.429-27.429-27.429c-15.148,0-27.429,12.28-27.429,27.429
				C330.398,79.374,342.668,91.645,357.81,91.661z M351.318,57.741c2.616-2.637,6.567-3.43,9.998-2.006
				c3.431,1.424,5.658,4.783,5.637,8.497c-0.015,1.194-0.263,2.374-0.732,3.473c-0.421,1.13-1.075,2.158-1.92,3.018
				c-3.605,3.536-9.377,3.536-12.982,0c-0.845-0.86-1.499-1.888-1.92-3.018c-0.469-1.099-0.717-2.279-0.731-3.473
				C348.682,61.808,349.631,59.483,351.318,57.741z"/>
			<path d="M357.81,128.233c35.346,0,64-28.654,64-64s-28.654-64-64-64c-35.346,0-64,28.654-64,64
				C293.851,99.562,322.48,128.192,357.81,128.233z M357.81,18.518c25.247,0,45.714,20.467,45.714,45.714
				s-20.467,45.714-45.714,45.714s-45.714-20.467-45.714-45.714C312.125,38.998,332.575,18.548,357.81,18.518z"/>
			<path d="M156.667,91.661c15.148,0,27.429-12.28,27.429-27.429s-12.28-27.429-27.429-27.429s-27.429,12.28-27.429,27.429
				C129.255,79.374,141.525,91.645,156.667,91.661z M150.175,57.741c0.874-0.828,1.898-1.482,3.018-1.924
				c1.635-0.723,3.456-0.913,5.206-0.544c0.606,0.084,1.195,0.268,1.741,0.545c0.582,0.201,1.134,0.479,1.643,0.826
				c0.455,0.366,0.92,0.732,1.375,1.098c3.536,3.605,3.536,9.377,0,12.982c-0.435,0.393-0.894,0.758-1.375,1.094
				c-0.508,0.347-1.061,0.625-1.643,0.826c-0.547,0.276-1.135,0.461-1.741,0.549c-0.572,0.105-1.151,0.166-1.732,0.183
				c-3.697-0.015-7.024-2.245-8.442-5.66C146.807,64.302,147.576,60.37,150.175,57.741z"/>
			<path d="M248.095,301.947h18.286c5.047-0.005,9.138-4.095,9.143-9.143v-9.143h-36.571v9.143
				C238.958,297.852,243.048,301.942,248.095,301.947z"/>
			<path d="M339.524,313.099c-4.996,4.569-11.515,7.113-18.286,7.134h-18.286c-6.77-0.021-13.29-2.565-18.286-7.134
				c-4.996,4.569-11.515,7.113-18.286,7.134h-18.286c-6.77-0.021-13.29-2.565-18.286-7.134c-4.996,4.569-11.515,7.113-18.286,7.134
				h-18.286c-6.77-0.021-13.29-2.565-18.286-7.134c-4.996,4.569-11.515,7.113-18.286,7.134h-27.429v36.571h27.429
				c6.77,0.021,13.29,2.565,18.286,7.134c4.996-4.569,11.515-7.113,18.286-7.134h18.286c6.77,0.021,13.29,2.565,18.286,7.134
				c4.996-4.569,11.515-7.113,18.286-7.134h18.286c6.77,0.021,13.29,2.565,18.286,7.134c4.996-4.569,11.515-7.113,18.286-7.134
				h18.286c6.77,0.021,13.29,2.565,18.286,7.134c4.996-4.569,11.515-7.113,18.286-7.134h27.429v-36.571H357.81
				C351.039,320.212,344.52,317.668,339.524,313.099z"/>
			<path d="M165.81,292.804v-9.143h-18.286c-10.094,0.012-18.274,8.192-18.286,18.286h27.429
				C161.714,301.942,165.805,297.852,165.81,292.804z"/>
			<path d="M366.952,283.661h-18.286v9.143c0.005,5.047,4.096,9.138,9.143,9.143h27.429
				C385.227,291.853,377.047,283.673,366.952,283.661z"/>
			<path d="M388.883,223.567c1.277,3.405,2.736,6.739,4.373,9.987c2.404,4.423,0.781,9.956-3.631,12.38s-9.953,0.825-12.396-3.576
				c-4.625-9.096-8.244-18.67-10.793-28.551c-0.06-0.18-0.095-0.359-0.143-0.544c-5.884-21.829-7.131-44.648-3.66-66.988
				c-1.605,0.094-3.195,0.244-4.823,0.244c-10.313-0.011-20.531-1.974-30.114-5.786c2.13,25.144-2.294,50.411-12.843,73.334
				l-0.012,0.024c-5.88,11.869-14.164,22.386-24.326,30.883c-3.881,3.23-9.645,2.702-12.875-1.179
				c-3.23-3.881-2.702-9.645,1.178-12.875c4.031-3.363,7.701-7.136,10.952-11.259h-65.064c3.25,4.123,6.92,7.896,10.952,11.259
				c2.51,2.089,3.715,5.359,3.161,8.578c-0.554,3.219-2.784,5.897-5.848,7.027s-6.499,0.538-9.009-1.551
				c-10.162-8.497-18.446-19.014-24.326-30.883l-0.011-0.023c-10.549-22.924-14.974-48.191-12.844-73.335
				c-9.583,3.811-19.801,5.774-30.114,5.786c-1.628,0-3.218-0.151-4.823-0.244c3.471,22.34,2.224,45.159-3.66,66.988
				c-0.048,0.185-0.084,0.364-0.143,0.544c-2.549,9.881-6.168,19.455-10.794,28.551c-2.436,4.423-7.997,6.034-12.42,3.598
				c-4.423-2.436-6.034-7.997-3.598-12.42c1.633-3.242,3.09-6.571,4.364-9.97c-25.281,9.172-42.103,33.202-42.069,60.095v82.286
				c0.051,45.424,36.862,82.234,82.286,82.286h182.857c45.424-0.051,82.234-36.862,82.286-82.286v-82.286
				C430.986,256.769,414.164,232.739,388.883,223.567z M403.524,375.09c-0.021,20.189-16.382,36.55-36.571,36.571H147.524
				c-20.189-0.022-36.55-16.383-36.571-36.571v-73.143c0.022-20.189,16.383-36.55,36.571-36.571h219.429
				c20.189,0.021,36.55,16.383,36.571,36.571V375.09z"/>
			<path d="M348.667,384.233v9.143h18.286c10.094-0.012,18.274-8.192,18.286-18.286H357.81
				C352.762,375.095,348.672,379.185,348.667,384.233z"/>
			<path d="M321.238,375.09h-18.286c-5.047,0.005-9.138,4.095-9.143,9.143v9.143h36.571v-9.143
				C330.376,379.185,326.286,375.095,321.238,375.09z"/>
			<path d="M156.667,375.09h-27.429c0.012,10.094,8.192,18.274,18.286,18.286h18.286v-9.143
				C165.805,379.185,161.714,375.095,156.667,375.09z"/>
			<path d="M211.524,375.09h-18.286c-5.047,0.005-9.138,4.095-9.143,9.143v9.143h36.571v-9.143
				C220.662,379.185,216.571,375.095,211.524,375.09z"/>
			<path d="M266.381,375.09h-18.286c-5.047,0.005-9.138,4.095-9.143,9.143v9.143h36.571v-9.143
				C275.519,379.185,271.428,375.095,266.381,375.09z"/>
		</g>
	</g>
</g>
<g>
</g>
<g>
</g>
<g>
</g>
<g>
</g>
<g>
</g>
<g>
</g>
<g>
</g>
<g>
</g>
<g>
</g>
<g>
</g>
<g>
</g>
<g>
</g>
<g>
</g>
<g>
</g>
<g>
</g>
</svg>
