<?xml version="1.0" encoding="iso-8859-1"?>
<!-- Generator: Adobe Illustrator 19.0.0, SVG Export Plug-In . SVG Version: 6.00 Build 0)  -->
<svg version="1.1" id="Capa_1" xmlns="http://www.w3.org/2000/svg" xmlns:xlink="http://www.w3.org/1999/xlink" x="0px" y="0px"
	 viewBox="0 0 511.76 511.76" style="enable-background:new 0 0 511.76 511.76;" xml:space="preserve">
<g>
	<g>
		<g>
			<path d="M329.023,168.903c5.049,0,9.143-4.093,9.143-9.143c-0.015-5.043-4.099-9.128-9.143-9.143
				c-5.049,0-9.143,4.093-9.143,9.143S323.973,168.903,329.023,168.903z"/>
			<path d="M182.737,150.618c-5.049,0-9.143,4.093-9.143,9.143s4.093,9.143,9.143,9.143c5.049,0,9.143-4.093,9.143-9.143
				C191.865,154.717,187.78,150.632,182.737,150.618z"/>
			<path d="M221.503,109.109c-6.993-18.13-23.938-30.5-43.337-31.634c-24.502,0-44.982,22.491-49.371,52.114
				C155.253,109.615,189.092,102.139,221.503,109.109z"/>
			<path d="M246.737,141.475c0,45.349-30.72,82.286-68.571,82.286c-4.621,0.01-9.227-0.542-13.714-1.646v51.931h182.857v-50.469
				l-2.194-1.097c-3.782,0.842-7.645,1.271-11.52,1.28c-37.851,0-68.571-36.937-68.571-82.286
				c-0.979-29.895,13.898-58.087,39.131-74.149c-6.703-2.336-13.747-3.541-20.846-3.566h-54.857
				c-7.098,0.032-14.141,1.237-20.846,3.566C232.839,83.388,247.716,111.579,246.737,141.475z M265.023,214.618
				c5.049,0,9.143,4.093,9.143,9.143s-4.093,9.143-9.143,9.143h-18.286c-5.049,0-9.143-4.093-9.143-9.143s4.093-9.143,9.143-9.143
				H265.023z"/>
			<path d="M283.309,45.475c0.549,0,1.006,0.091,1.554,0.091L262.737,4.972C261.767,2.006,259,0,255.88,0
				c-3.12,0-5.887,2.006-6.857,4.972l-22.125,40.594c0.456,0,1.004-0.091,1.554-0.091H283.309z"/>
			<path d="M290.257,109.109c32.411-6.924,66.231,0.547,92.709,20.48c-4.389-29.623-24.869-52.114-49.371-52.114
				C314.195,78.609,297.25,90.978,290.257,109.109z"/>
			<path d="M284.223,129.589c-0.584,3.935-0.889,7.907-0.914,11.886c0,35.291,22.583,64,50.286,64
				c6.671-0.021,13.234-1.686,19.109-4.846c0.09,0,0.182-0.091,0.273-0.091c16.798-10.197,27.886-27.639,29.989-47.177
				C357.068,127.629,318.994,118.463,284.223,129.589z M356.451,159.76c-0.044,15.13-12.299,27.384-27.429,27.429
				c-15.148,0-27.429-12.28-27.429-27.429s12.28-27.429,27.429-27.429C344.171,132.332,356.451,144.612,356.451,159.76z"/>
			<path d="M356.451,466.046h-64c-5.043,0.015-9.128,4.099-9.143,9.143v36.571h36.571v-9.143c0-5.049,4.093-9.143,9.143-9.143
				c5.049,0,9.143,4.093,9.143,9.143v9.143h9.143v-9.143c0-5.049,4.093-9.143,9.143-9.143c5.049,0,9.143,4.093,9.143,9.143v9.143
				h9.143v-27.429C374.708,474.245,366.538,466.076,356.451,466.046z"/>
			<path d="M158.783,200.537c0.091,0,0.183,0.091,0.273,0.091c5.875,3.16,12.438,4.824,19.109,4.846
				c27.703,0,50.286-28.709,50.286-64c-0.025-3.978-0.33-7.95-0.914-11.886c-34.771-11.126-72.845-1.96-98.743,23.771
				C130.897,172.898,141.984,190.341,158.783,200.537z M182.737,187.189c-0.582,0-1.158-0.029-1.733-0.065
				c-0.245-0.016-0.49-0.035-0.734-0.058c-0.342-0.031-0.682-0.072-1.022-0.115c-0.471-0.061-0.938-0.134-1.401-0.218
				c-0.25-0.045-0.5-0.089-0.748-0.141c-0.351-0.074-0.699-0.156-1.045-0.243c-0.152-0.038-0.302-0.08-0.453-0.121
				c-8.562-2.322-15.464-8.67-18.546-16.891c-0.035-0.095-0.071-0.19-0.106-0.285c-0.401-1.107-0.73-2.249-0.988-3.418
				c-0.048-0.219-0.095-0.438-0.137-0.657c-0.062-0.32-0.123-0.641-0.175-0.965c-0.068-0.434-0.126-0.868-0.173-1.302
				c-0.032-0.294-0.054-0.59-0.077-0.887c-0.027-0.362-0.051-0.725-0.063-1.087c-0.008-0.212-0.015-0.423-0.018-0.636
				c-0.007-0.571-0.003-1.143,0.025-1.712c0-0.009,0-0.018,0.001-0.027c0.032-0.614,0.088-1.225,0.161-1.834
				c0.013-0.107,0.027-0.213,0.041-0.319c0.164-1.255,0.41-2.498,0.745-3.719c0.004-0.014,0.008-0.028,0.012-0.042
				c0.35-1.266,0.791-2.508,1.321-3.716c0.008-0.018,0.016-0.035,0.024-0.053c0.261-0.59,0.542-1.172,0.845-1.745
				c0.007-0.013,0.013-0.026,0.02-0.039c0.296-0.557,0.615-1.104,0.95-1.642c0.049-0.078,0.099-0.155,0.149-0.232
				c0.308-0.484,0.632-0.959,0.972-1.426c0.036-0.049,0.07-0.1,0.106-0.149c0.358-0.484,0.738-0.955,1.13-1.418
				c0.088-0.103,0.177-0.206,0.267-0.308c0.403-0.461,0.817-0.915,1.255-1.353s0.892-0.852,1.353-1.255
				c0.102-0.089,0.204-0.179,0.308-0.266c0.463-0.393,0.934-0.772,1.418-1.13c0.049-0.036,0.1-0.07,0.149-0.106
				c0.466-0.341,0.942-0.664,1.426-0.973c0.077-0.049,0.154-0.1,0.231-0.148c0.539-0.336,1.086-0.655,1.643-0.951
				c0.012-0.006,0.024-0.012,0.036-0.019c0.574-0.304,1.157-0.586,1.749-0.847c0.017-0.007,0.033-0.015,0.05-0.023
				c1.209-0.531,2.452-0.972,3.719-1.323c0.013-0.004,0.026-0.007,0.039-0.011c1.221-0.336,2.466-0.582,3.722-0.746
				c0.105-0.014,0.21-0.028,0.316-0.04c0.61-0.073,1.222-0.13,1.837-0.161c0.007,0,0.014,0,0.021,0
				c0.58-0.029,1.161-0.033,1.743-0.026c0.176,0.002,0.352,0.008,0.527,0.013c0.501,0.016,1.003,0.044,1.504,0.088
				c0.092,0.008,0.185,0.012,0.276,0.021c0.613,0.06,1.226,0.142,1.837,0.244c0.081,0.013,0.162,0.029,0.243,0.043
				c1.279,0.225,2.55,0.537,3.804,0.949c0.003,0.001,0.006,0.002,0.008,0.003c0.65,0.214,1.295,0.453,1.933,0.717
				c0.624,0.258,1.234,0.54,1.831,0.84c0.037,0.019,0.075,0.038,0.112,0.057c1.146,0.583,2.237,1.243,3.274,1.968
				c0.104,0.073,0.207,0.146,0.309,0.22c0.488,0.352,0.968,0.714,1.429,1.095c0.026,0.021,0.05,0.044,0.076,0.065
				c0.43,0.357,0.845,0.731,1.25,1.112c0.115,0.108,0.23,0.217,0.344,0.328c0.416,0.405,0.823,0.818,1.211,1.247
				c0.037,0.041,0.072,0.085,0.109,0.126c0.368,0.412,0.722,0.836,1.065,1.27c0.076,0.097,0.153,0.193,0.228,0.291
				c0.757,0.984,1.447,2.017,2.064,3.094c0.029,0.051,0.059,0.101,0.088,0.152c0.633,1.122,1.189,2.289,1.66,3.495
				c0.01,0.026,0.021,0.052,0.031,0.078c0.465,1.201,0.845,2.439,1.139,3.706c0.015,0.064,0.03,0.128,0.044,0.193
				c0.273,1.218,0.461,2.462,0.566,3.725c0.011,0.14,0.022,0.279,0.032,0.42c0.042,0.617,0.07,1.236,0.07,1.861
				C210.121,174.89,197.867,187.145,182.737,187.189z"/>
			<path d="M319.88,447.76v-63.543c-5.819,2.896-11.956,5.105-18.286,6.583v56.96H319.88z"/>
			<path d="M474.968,128.475c-0.922-4.087-3.519-7.598-7.158-9.675c-16.548-10.971-49.645-0.549-66.925,6.857
				c0.525,3.361,0.86,6.75,1.006,10.149c19.843-2.104,39.821,2.464,56.777,12.983c3.659,1.829,10.241-2.103,13.989-8.503
				C475.051,136.848,475.89,132.562,474.968,128.475z"/>
			<path d="M347.309,310.618v-18.286H164.451v18.286c0.039,35.33,28.67,63.961,64,64h54.857
				C318.639,374.579,347.27,345.948,347.309,310.618z"/>
			<path d="M438.463,316.835l-1.737-3.383c-10.64-21.208-24.624-40.564-41.417-57.326c-9.132-8.493-19.086-16.058-29.714-22.583
				v25.234c21.897,16.909,36.225,41.786,39.863,69.211c1.52,9.152,2.133,18.431,1.829,27.703c-0.183,3.291-0.549,6.583-0.915,9.874
				c-0.775,4.404-1.021,8.886-0.731,13.349c1.317,6.951,4.731,13.332,9.782,18.286l0.641,0.731c0.914,1.097,2.103,2.469,3.474,3.931
				c3.412-11.964,4.529-24.466,3.291-36.846c-0.209-2.413,0.551-4.81,2.112-6.662s3.794-3.008,6.207-3.212
				c2.422-0.252,4.843,0.492,6.706,2.061s3.007,3.829,3.169,6.259c0.824,9.051,1.92,34.194-6.766,49.554
				c3.931,0,10.971-5.669,15.543-12.526c14.172-21.394,4.388-50.651-2.743-66.103C444.497,328.72,441.755,323.052,438.463,316.835z"
				/>
			<path d="M146.166,233.543c-10.641,6.547-20.623,14.11-29.806,22.583c-16.782,16.84-30.765,36.254-41.417,57.509l-1.462,2.926
				c-3.476,6.491-6.218,12.16-8.777,17.737c-7.131,15.543-16.915,44.8-2.743,66.286c4.571,6.766,11.154,12.434,15.543,12.434
				c-8.686-15.36-7.498-40.503-6.766-49.554c0.278-3.25,2.268-6.105,5.222-7.49s6.421-1.088,9.097,0.777s4.153,5.017,3.876,8.267
				c-1.298,12.379-0.18,24.893,3.291,36.846c1.371-1.463,2.56-2.834,3.474-3.931l0.641-0.731c5.052-4.953,8.465-11.335,9.782-18.286
				c0.289-4.463,0.044-8.944-0.731-13.349c-0.366-3.292-0.732-6.583-0.915-9.783c-0.31-9.272,0.303-18.552,1.829-27.703
				c3.638-27.451,17.963-52.356,39.863-69.303V233.543z"/>
			<path d="M191.88,384.217v63.543h18.286V390.8C203.836,389.323,197.699,387.113,191.88,384.217z"/>
			<path d="M109.869,135.806c0.145-3.399,0.481-6.787,1.006-10.149c-17.281-7.406-50.378-17.829-66.926-6.857
				c-3.638,2.077-6.236,5.588-7.157,9.675c-0.922,4.087-0.083,8.373,2.312,11.811c3.748,6.4,10.239,10.331,13.989,8.503
				C70.048,138.27,90.026,133.702,109.869,135.806z"/>
			<path d="M219.309,466.046h-64c-10.087,0.029-18.256,8.199-18.286,18.286v27.429h9.143v-9.143c0-5.049,4.093-9.143,9.143-9.143
				c5.049,0,9.143,4.093,9.143,9.143v9.143h9.143v-9.143c0-5.049,4.093-9.143,9.143-9.143c5.049,0,9.143,4.093,9.143,9.143v9.143
				h36.571v-36.571C228.437,470.146,224.352,466.061,219.309,466.046z"/>
		</g>
	</g>
</g>
<g>
</g>
<g>
</g>
<g>
</g>
<g>
</g>
<g>
</g>
<g>
</g>
<g>
</g>
<g>
</g>
<g>
</g>
<g>
</g>
<g>
</g>
<g>
</g>
<g>
</g>
<g>
</g>
<g>
</g>
</svg>
