<?xml version="1.0" encoding="iso-8859-1"?>
<!-- Generator: Adobe Illustrator 19.0.0, SVG Export Plug-In . SVG Version: 6.00 Build 0)  -->
<svg version="1.1" id="Capa_1" xmlns="http://www.w3.org/2000/svg" xmlns:xlink="http://www.w3.org/1999/xlink" x="0px" y="0px"
	 viewBox="0 0 512 512" style="enable-background:new 0 0 512 512;" xml:space="preserve">
<g>
	<g>
		<g>
			<polygon points="228.571,125.989 210.286,121.417 210.286,137.143 228.571,137.143 			"/>
			<path d="M182.857,228.571h12.069l16-39.954c1.386-3.481,4.756-5.764,8.503-5.76h73.143c3.747-0.004,7.117,2.279,8.503,5.76
				l16,39.954h12.069c5.043-0.015,9.128-4.1,9.143-9.143v-128c-0.044-15.13-12.299-27.384-27.429-27.429H201.143
				c-15.13,0.044-27.384,12.299-27.429,27.429v128C173.729,224.472,177.814,228.556,182.857,228.571z M265.143,118.857
				c-0.014-4.208,2.86-7.875,6.949-8.869l36.571-9.143c2.731-0.704,5.634-0.098,7.855,1.639c2.221,1.738,3.508,4.409,3.482,7.229
				v36.571c-0.015,5.043-4.1,9.128-9.143,9.143h-36.571c-5.043-0.015-9.128-4.1-9.143-9.143V118.857z M192,109.714
				c-0.008-2.812,1.272-5.474,3.474-7.223c2.243-1.697,5.128-2.3,7.863-1.646l36.571,9.143c4.089,0.993,6.962,4.661,6.949,8.869
				v27.429c-0.015,5.043-4.1,9.128-9.143,9.143h-36.571c-5.043-0.015-9.128-4.1-9.143-9.143V109.714z"/>
			<polygon points="275.474,0 236.526,0 229.943,45.714 282.057,45.714 			"/>
			<polygon points="301.714,121.417 283.429,125.989 283.429,137.143 301.714,137.143 			"/>
			<path d="M329.143,466.286h-45.714c-10.087,0.029-18.256,8.199-18.286,18.286v18.286c0.015,5.043,4.1,9.128,9.143,9.143h64
				c5.043-0.015,9.128-4.1,9.143-9.143v-10.789C336.514,488.18,329.204,477.872,329.143,466.286z"/>
			<path d="M173.714,292.571h164.571c9.7,0.003,19.004-3.85,25.863-10.709c6.859-6.859,10.711-16.163,10.709-25.863v-73.143
				c-0.029-10.087-8.199-18.256-18.286-18.286v54.857c-0.044,15.13-12.299,27.384-27.429,27.429h-18.286
				c-3.747,0.004-7.117-2.279-8.503-5.76l-16-39.954h-60.709l-16,39.954c-1.386,3.481-4.756,5.764-8.503,5.76h-18.286
				c-15.13-0.044-27.384-12.299-27.429-27.429v-54.857c-10.087,0.029-18.256,8.199-18.286,18.286V256
				c-0.003,9.7,3.85,19.004,10.709,25.863C154.711,288.722,164.014,292.574,173.714,292.571z"/>
			<path d="M436.206,357.669l-61.166-61.074c-10.051,9.16-23.155,14.245-36.754,14.263h-14.537l33.92,33.829
				c5.172,5.159,8.068,12.17,8.046,19.474v38.126H384c5.049,0,9.143,4.093,9.143,9.143s-4.093,9.143-9.143,9.143h-27.429
				c-5.043,0.015-9.128,4.1-9.143,9.143v36.571c0.015,5.043,4.1,9.128,9.143,9.143h38.126c2.432,0.024,4.772-0.931,6.491-2.651
				l35.017-35.017c1.72-1.72,2.676-4.059,2.651-6.491V364.16C438.882,361.728,437.926,359.388,436.206,357.669z"/>
			<path d="M329.143,448v-18.286c0.061-11.586,7.371-21.894,18.286-25.783V364.16c-0.009-2.444-0.997-4.782-2.743-6.491
				l-46.72-46.811h-83.931l-46.72,46.811c-1.746,1.71-2.733,4.048-2.743,6.491v39.771c10.915,3.889,18.225,14.196,18.286,25.783V448
				h45.714c10.542,0.019,20.554,4.625,27.429,12.617c6.875-7.992,16.887-12.598,27.429-12.617H329.143z M237.714,365.714
				c-0.015,5.043-4.1,9.128-9.143,9.143h-18.286c-5.049,0-9.143-4.093-9.143-9.143s4.093-9.143,9.143-9.143h9.143v-18.286
				c0-5.049,4.093-9.143,9.143-9.143c5.049,0,9.143,4.093,9.143,9.143V365.714z M265.143,429.714c0,5.049-4.093,9.143-9.143,9.143
				c-5.049,0-9.143-4.093-9.143-9.143v-36.571c0-5.049,4.093-9.143,9.143-9.143c5.049,0,9.143,4.093,9.143,9.143V429.714z
				 M274.286,365.714v-27.429c0-5.049,4.093-9.143,9.143-9.143s9.143,4.093,9.143,9.143v18.286h9.143
				c5.049,0,9.143,4.093,9.143,9.143s-4.093,9.143-9.143,9.143h-18.286C278.385,374.842,274.301,370.758,274.286,365.714z"/>
			<path d="M164.571,429.714c-0.015-5.043-4.1-9.128-9.143-9.143H128c-5.049,0-9.143-4.093-9.143-9.143s4.093-9.143,9.143-9.143
				h18.286V364.16c-0.022-7.305,2.874-14.316,8.046-19.474l33.92-33.829h-14.537c-13.599-0.018-26.703-5.103-36.754-14.263
				l-61.166,61.074c-1.72,1.72-2.676,4.059-2.651,6.491v67.109c-0.025,2.432,0.931,4.772,2.651,6.491l35.017,35.017
				c1.72,1.72,4.059,2.676,6.491,2.651h38.126c5.043-0.015,9.128-4.1,9.143-9.143V429.714z"/>
			<path d="M228.571,466.286h-45.714c-0.061,11.586-7.371,21.894-18.286,25.783v10.789c0.015,5.043,4.1,9.128,9.143,9.143h64
				c5.043-0.015,9.128-4.1,9.143-9.143v-18.286C246.828,474.485,238.658,466.315,228.571,466.286z"/>
		</g>
	</g>
</g>
<g>
</g>
<g>
</g>
<g>
</g>
<g>
</g>
<g>
</g>
<g>
</g>
<g>
</g>
<g>
</g>
<g>
</g>
<g>
</g>
<g>
</g>
<g>
</g>
<g>
</g>
<g>
</g>
<g>
</g>
</svg>
