<?xml version="1.0" encoding="iso-8859-1"?>
<!-- Generator: Adobe Illustrator 19.0.0, SVG Export Plug-In . SVG Version: 6.00 Build 0)  -->
<svg version="1.1" id="Capa_1" xmlns="http://www.w3.org/2000/svg" xmlns:xlink="http://www.w3.org/1999/xlink" x="0px" y="0px"
	 viewBox="0 0 505.202 505.202" style="enable-background:new 0 0 505.202 505.202;" xml:space="preserve">
<g>
	<g>
		<g>
			<circle cx="251.509" cy="117.864" r="17.965"/>
			<path d="M314.386,453.524v23.211c5.857-2.124,11.861-3.819,17.965-5.07v-22.119C326.485,451.038,320.497,452.364,314.386,453.524
				z"/>
			<path d="M431.167,30.553c0.026-0.798-1.079-1.693-2.189-2.145c-1.175-0.474-2.671-0.592-3.289,0.088
				c-10.982,12.975-24.474,23.597-39.665,31.226c11.563,14.135,22.089,29.088,31.495,44.741
				C426.162,80.76,430.776,55.778,431.167,30.553z"/>
			<path d="M197.684,175.746c8.355-1.294,17.105-2.29,26-2.956c18.524-1.369,37.125-1.369,55.649,0
				c8.895,0.667,17.645,1.662,26,2.956c1.766,0.274,3.459,0.617,5.197,0.919c8.412-11.951,12.898-26.222,12.838-40.836
				c0-39.687-32.173-71.86-71.86-71.86c-39.687,0-71.86,32.173-71.86,71.86c-0.061,14.614,4.426,28.885,12.838,40.836
				C194.225,176.363,195.918,176.02,197.684,175.746z M251.509,81.934c19.844,0,35.93,16.086,35.93,35.93
				c0,19.843-16.086,35.93-35.93,35.93s-35.93-16.086-35.93-35.93C215.602,98.03,231.675,81.957,251.509,81.934z"/>
			<path d="M170.667,449.54v22.125c6.103,1.252,12.108,2.946,17.965,5.07v-23.207C182.513,452.377,176.534,451.033,170.667,449.54z"
				/>
			<path d="M301.632,504.11H434.93c-10.018-9.079-33.912-17.965-66.649-17.965S311.649,495.031,301.632,504.11z"/>
			<path d="M117.118,59.79c-15.296-7.623-28.877-18.283-39.916-31.329c-0.583-0.645-2.088-0.522-3.25-0.053
				c-1.11,0.452-2.215,1.346-2.184,2.184c0.383,25.3,5.017,50.356,13.707,74.12C94.927,88.996,105.503,73.983,117.118,59.79z"/>
			<path d="M353.342,267.066l2.497-15.095c-4.156,1.771-8.352,3.395-12.713,4.879L353.342,267.066z"/>
			<path d="M451.522,285.724c-1.639-1.729-2.523-4.039-2.458-6.42c0.065-2.382,1.074-4.64,2.805-6.277
				c1.521-1.39,3.479-2.206,5.537-2.308c-0.799-9.831-2.185-19.605-4.15-29.271c-0.368-1.917-0.776-3.737-1.197-5.601l-0.294-1.325
				c-21.72-97.868-103.391-233.43-200.255-233.43c-40.047,0-78.66,23.325-111.51,58.942c-0.666,1.24-1.616,2.303-2.774,3.103
				c-16.949,19.192-31.743,40.186-44.115,62.604c-0.384,1.473-1.141,2.822-2.198,3.916c-17.764,32.573-31.018,67.41-39.397,103.553
				l-1.605,7.241c-2.052,10.04-3.491,20.195-4.311,30.409c2.778-0.562,5.657,0.244,7.741,2.166c3.601,3.414,3.754,9.1,0.342,12.702
				c-3.712,3.917-7.228,7.757-10.627,11.542l-0.07,0.076C16.563,326.777,0,351.615,0,362.369c0,23.899,7.57,32.785,27.934,32.785
				c11.025-0.368,21.95-2.216,32.482-5.496c12.333-3.575,25.013-6.197,37.272-8.732l1.096-0.228
				c2.307-0.474,5.132-0.868,8.193-1.285c6.154-0.842,17.606-2.404,20.259-5.658c0.607-1.082,0.848-2.331,0.689-3.561
				c-0.416-4.065-2.156-7.88-4.952-10.86c-11.443-12.921-33.373-14.767-51.197-14.93c-4.961-0.023-8.964-4.063-8.941-9.024
				s4.063-8.964,9.024-8.941h0.083c21.544,0.198,48.342,2.763,64.487,20.991c5.472,6.008,8.789,13.666,9.43,21.768
				c0.441,5.673-1.213,11.311-4.649,15.846c-7.184,8.807-20.833,10.671-31.803,12.167c-2.614,0.355-5.022,0.675-6.987,1.083
				l-0.731,0.15c37.037,27.674,89.4,42.789,149.819,42.789c60.655,0,113.182-15.231,150.289-43.108
				c-1.775-0.327-3.784-0.612-6.004-0.914c-10.969-1.496-24.618-3.359-31.75-12.096c-3.462-4.528-5.137-10.172-4.706-15.855
				c0.63-8.116,3.943-15.791,9.417-21.816c16.162-18.241,42.961-20.807,64.504-21.004h0.083c4.961-0.023,9.001,3.98,9.024,8.941
				s-3.98,9.001-8.941,9.024c-17.825,0.162-39.754,2.009-51.211,14.939c-2.803,3-4.54,6.84-4.943,10.925
				c-0.153,1.237,0.109,2.49,0.746,3.561c2.597,3.18,14.053,4.741,20.206,5.583c3.061,0.417,5.886,0.811,8.189,1.285l1.132,0.237
				c12.25,2.531,24.917,5.149,37.285,8.737c10.517,3.272,21.426,5.116,32.434,5.482c20.368,0,27.939-8.886,27.939-32.785
				C505.202,350.233,484.132,320.149,451.522,285.724z M147.387,193.671c0.55-3.162,2.745-5.79,5.758-6.895
				c6.738-2.439,13.601-4.519,20.56-6.231c-21.78-37.752-13.317-85.692,20.073-113.704c33.39-28.012,82.072-28.012,115.462,0
				s41.854,75.952,20.073,113.704c6.959,1.712,13.821,3.792,20.56,6.231c3.013,1.105,5.208,3.733,5.758,6.895
				s-0.629,6.377-3.092,8.434c-2.463,2.057-5.837,2.644-8.85,1.539c-6.229-2.255-12.574-4.173-19.009-5.746
				c-6.943-1.724-14.382-3.202-22.101-4.399c-7.89-1.224-16.162-2.167-24.588-2.798c-17.631-1.298-35.334-1.298-52.965,0
				c-8.426,0.632-16.697,1.575-24.588,2.798c-7.719,1.197-15.158,2.675-22.101,4.399c-6.435,1.573-12.78,3.491-19.009,5.746
				c-3.013,1.105-6.387,0.518-8.85-1.539C148.015,200.048,146.837,196.833,147.387,193.671z M425.018,249.333
				c-4.667,1.571-9.726-0.919-11.329-5.575c-1.506-3.628-4.384-6.513-8.009-8.026c-8.356-2.002-17.168-0.509-24.399,4.132
				c-1.952,0.976-3.838,1.917-5.706,2.845l-4.544,27.247c-1.063,6.643-5.77,12.125-12.175,14.18
				c-1.801,0.584-3.682,0.883-5.575,0.886c-4.745-0.001-9.293-1.892-12.64-5.255l-13.601-13.601l-7.89,21.808
				c-2.336,6.221-7.888,10.666-14.469,11.583c-1.063,0.169-2.138,0.254-3.215,0.254c-5.985,0.031-11.657-2.671-15.404-7.338
				l-20.878-24.843c-4.351,0.082-8.89,0.128-13.675,0.128c-26.51,0.86-53.024-1.544-78.947-7.159l-19.167,19.167
				c-3.347,3.363-7.896,5.254-12.64,5.255c-1.893-0.003-3.774-0.302-5.575-0.886c-6.423-2.066-11.135-7.572-12.184-14.237
				l-5.296-31.762c-6.301-3.39-13.666-4.222-20.564-2.322c-3.483,1.544-6.258,4.342-7.772,7.838
				c-1.57,4.707-6.658,7.249-11.364,5.68c-4.706-1.57-7.249-6.658-5.68-11.364c3.14-8.457,9.633-15.243,17.943-18.754
				c13.201-4.37,27.657-2.695,39.509,4.579c35.702,17.851,51.996,26,121.737,26s86.035-8.149,121.737-26
				c11.852-7.272,26.308-8.947,39.509-4.579c8.31,3.511,14.803,10.297,17.943,18.754
				C432.267,242.676,429.724,247.764,425.018,249.333z"/>
			<path d="M68.088,504.11h133.298c-10.017-9.079-33.912-17.965-66.649-17.965C102,486.145,78.105,495.031,68.088,504.11z"/>
			<path d="M299.974,281.114c0.297,0.409,0.755,0.671,1.259,0.719c0.401,0.047,0.807-0.026,1.167-0.21l6.085-16.907
				c-6.253,0.836-13.031,1.517-20.601,2.009L299.974,281.114z"/>
			<path d="M140.724,267l12.564-12.544c-5.321-2.058-10.501-4.363-15.8-6.87L140.724,267z"/>
		</g>
	</g>
</g>
<g>
</g>
<g>
</g>
<g>
</g>
<g>
</g>
<g>
</g>
<g>
</g>
<g>
</g>
<g>
</g>
<g>
</g>
<g>
</g>
<g>
</g>
<g>
</g>
<g>
</g>
<g>
</g>
<g>
</g>
</svg>
