<?xml version="1.0" encoding="iso-8859-1"?>
<!-- Generator: Adobe Illustrator 19.0.0, SVG Export Plug-In . SVG Version: 6.00 Build 0)  -->
<svg version="1.1" id="Capa_1" xmlns="http://www.w3.org/2000/svg" xmlns:xlink="http://www.w3.org/1999/xlink" x="0px" y="0px"
	 viewBox="0 0 512.006 512.006" style="enable-background:new 0 0 512.006 512.006;" xml:space="preserve">
<g>
	<g>
		<g>
			<path d="M308.573,239.739c8.994,4.485,19.237,5.806,29.074,3.749c0.403-1.894,0.618-3.824,0.64-5.76
				c-0.044-15.13-12.298-27.384-27.429-27.429c-2.583,0.001-5.148,0.434-7.589,1.28c-0.234,0.322-0.448,0.658-0.64,1.006
				C298.238,221.938,300.676,233.075,308.573,239.739z"/>
			<path d="M123.521,428.814c-6.497,19.462-19.767,35.944-37.394,46.446c-19.84,10.331-44.16,9.326-72.229-2.926
				c-3.105-1.469-6.754-1.191-9.6,0.731c-2.726,1.759-4.351,4.802-4.297,8.046c-0.028,3.816,2.193,7.292,5.669,8.869
				c22.09,9.931,45.49,16.643,69.486,19.931c3.62-11.418,12.658-20.302,24.136-23.725c11.478-3.423,23.907-0.941,33.189,6.628
				c3.74-8.084,9.742-14.912,17.28-19.657C138.315,460.149,129.414,445.108,123.521,428.814z"/>
			<path d="M146.561,508.539c13.078-2.356,25.926-5.843,38.4-10.423c-7.354-3.012-14.297-6.945-20.663-11.703
				C154.756,489.95,147.937,498.456,146.561,508.539z"/>
			<path d="M109.716,502.962c-6.34-0.009-12.228,3.282-15.543,8.686c10.298,0.559,20.621,0.437,30.903-0.366
				C121.706,506.075,115.918,502.94,109.716,502.962z"/>
			<path d="M347.796,486.322c-6.341,4.82-13.288,8.786-20.663,11.794c12.457,4.633,25.31,8.122,38.4,10.423
				C364.134,498.445,357.33,489.922,347.796,486.322z"/>
			<path d="M203.43,239.739c7.897-6.664,10.335-17.801,5.943-27.154c-0.192-0.348-0.406-0.684-0.64-1.006
				c-2.441-0.846-5.005-1.279-7.589-1.28c-15.13,0.044-27.384,12.299-27.429,27.429c0.022,1.936,0.237,3.866,0.64,5.76
				C184.193,245.545,194.436,244.224,203.43,239.739z"/>
			<path d="M507.788,473.089c-2.886-1.99-6.618-2.278-9.776-0.755c-27.977,12.251-52.297,13.257-72.137,2.926
				c-17.624-10.463-30.896-26.916-37.394-46.354c-5.853,16.265-14.725,31.279-26.149,44.251c7.538,4.745,13.54,11.573,17.28,19.657
				c9.283-7.57,21.711-10.052,33.189-6.629c11.478,3.423,20.517,12.308,24.136,23.726c23.967-3.285,47.337-9.998,69.394-19.931
				c3.184-1.467,5.336-4.53,5.637-8.022C512.271,478.464,510.674,475.079,507.788,473.089z"/>
			<path d="M402.378,502.962c-6.203-0.022-11.99,3.113-15.36,8.32c10.282,0.803,20.605,0.925,30.903,0.366
				C414.606,506.244,408.718,502.953,402.378,502.962z"/>
			<path d="M379.43,395.076c0-0.183,0.091-0.457,0.091-0.64c0.823-3.931,1.463-7.589,2.011-11.063
				c-3.426,2.959-7.029,5.707-10.789,8.229c-1.472,1.032-3.231,1.576-5.029,1.555c-4.016-0.019-7.549-2.659-8.705-6.505
				s0.336-7.996,3.676-10.226c34.469-23.04,42.423-62.811,40.96-99.2v-0.549c-1.591-25.791-6.634-51.252-14.994-75.703
				c-0.914,0.091-1.829,0.183-2.651,0.183c-3.266,0.016-6.293-1.711-7.941-4.532s-1.665-6.306-0.046-9.143
				c1.619-2.837,4.629-4.595,7.895-4.611c2.503,0.258,4.99-0.619,6.778-2.389c1.788-1.77,2.689-4.248,2.456-6.754
				c-2.398-14.858-10.88-28.045-23.406-36.389c-8.185-5.44-18.711-5.898-27.337-1.189c-19.073,9.073-36.747,20.834-52.48,34.926
				c-3.589,3.56-9.382,3.548-12.956-0.026c-3.575-3.575-3.587-9.367-0.026-12.956c0.274-0.274,2.286-2.194,6.126-5.394
				c15.649-12.963,32.81-23.984,51.109-32.823c12.195-6.535,26.747-6.975,39.314-1.189c-1.512-12.066-3.864-24.011-7.04-35.749
				c-5.669-21.12-20.754-58.606-58.789-73.051c-4.114-1.554-8.229-2.925-12.526-4.114h-0.091c-12.711-3.594-25.833-5.53-39.04-5.76
				c-17.659,0.29-35.136,3.631-51.657,9.874c-38.034,14.446-53.12,51.931-58.789,73.051c-3.176,11.738-5.528,23.683-7.04,35.749
				c12.567-5.786,27.12-5.346,39.314,1.189c19.112,9.25,36.989,20.86,53.211,34.56c0.64,0.549,1.189,1.006,1.646,1.463
				c1.463,1.28,2.286,2.103,2.377,2.194c3.56,3.589,3.548,9.382-0.026,12.956c-3.575,3.575-9.367,3.587-12.956,0.026
				c-15.733-14.091-33.407-25.853-52.48-34.926c-8.626-4.709-19.152-4.252-27.337,1.189c-12.526,8.343-21.008,21.53-23.406,36.389
				c-0.25,2.51,0.645,4.998,2.437,6.773c1.792,1.775,4.29,2.645,6.797,2.37c5.012,0.104,9.007,4.221,8.96,9.234
				c0.01,2.404-0.94,4.712-2.64,6.411s-4.008,2.65-6.411,2.64c-0.823,0-1.737-0.091-2.651-0.183
				c-8.278,24.028-13.29,49.06-14.903,74.423v0.457c-0.046,0.456-0.046,0.915,0,1.371c-1.554,36.48,6.491,76.16,40.869,99.2
				c3.34,2.23,4.832,6.38,3.676,10.226c-1.156,3.846-4.689,6.486-8.705,6.505c-1.798,0.022-3.557-0.522-5.029-1.554
				c-3.76-2.521-7.363-5.269-10.789-8.229c0.549,3.474,1.189,7.131,2.011,11.063c0,0.183,0.091,0.457,0.091,0.731
				c5.029,23.223,15.817,54.766,39.406,74.149c14.018,11.374,31.415,17.774,49.463,18.194c10.229-1.846,20.6-2.794,30.994-2.834
				h2.56c0.364-0.046,0.733-0.046,1.097,0h3.474c10.455,0.04,20.886,0.989,31.177,2.834c18.033-0.432,35.407-6.867,49.371-18.286
				C363.613,449.842,374.493,418.391,379.43,395.076z M286.264,204.539c4.424-9.455,12.121-16.99,21.669-21.211
				c15.649-5.395,30.003-13.989,42.149-25.234c2.316-2.335,5.704-3.253,8.882-2.406c3.178,0.847,5.66,3.329,6.507,6.507
				c0.847,3.178-0.071,6.566-2.406,8.882c-10.677,9.787-22.757,17.922-35.84,24.137c16.54,6.402,27.876,21.802,29.074,39.497
				c0.731-0.823,1.463-1.554,2.011-2.286c2.929-4.09,8.618-5.032,12.709-2.103c4.09,2.929,5.032,8.618,2.103,12.709
				c-2.201,3.033-4.817,5.741-7.771,8.046c-5.273,3.963-11.22,6.937-17.554,8.777c-0.598,0.175-1.21,0.297-1.829,0.366
				c-5.777,1.607-11.741,2.437-17.737,2.469c-10.088,0.183-20.047-2.276-28.891-7.131
				C281.876,245.408,278.401,220.448,286.264,204.539z M212.024,45.545c-4.936,0.932-9.698-2.299-10.654-7.231
				c-0.956-4.932,2.253-9.709,7.18-10.689c2.834-0.549,28.251-5.12,44.434,8.137c1.073,0.903,2.081,1.881,3.017,2.926
				c0.936-1.045,1.944-2.023,3.017-2.926c8.948-6.517,19.843-9.805,30.903-9.326c4.538-0.034,9.069,0.364,13.531,1.189
				c2.385,0.445,4.492,1.827,5.85,3.837s1.852,4.482,1.373,6.86c-0.995,4.925-5.757,8.14-10.697,7.223
				c-9.99-2.185-20.435-0.623-29.349,4.389c-3.958,3.558-5.994,8.782-5.486,14.08v82.286c0.018,1.826-0.524,3.613-1.554,5.12
				c-1.727,2.492-4.556,3.992-7.589,4.023c-1.225-0.004-2.438-0.253-3.566-0.731c-1.091-0.443-2.085-1.095-2.926-1.92
				c-1.699-1.734-2.651-4.064-2.651-6.491V64.014c0.465-5.292-1.563-10.498-5.486-14.08
				C232.449,44.952,222.015,43.392,212.024,45.545z M137.297,236.24c0.395-2.384,1.721-4.513,3.688-5.918
				c1.956-1.43,4.405-2.013,6.796-1.618c2.391,0.396,4.522,1.737,5.913,3.721c0.549,0.731,1.28,1.463,2.011,2.286
				c1.198-17.695,12.534-33.096,29.074-39.497c-13.083-6.215-25.163-14.35-35.84-24.137c-2.335-2.316-3.253-5.704-2.406-8.882
				s3.329-5.66,6.507-6.507s6.566,0.071,8.882,2.406c12.146,11.245,26.5,19.839,42.149,25.234
				c9.548,4.221,17.244,11.756,21.669,21.211c7.863,15.909,4.389,40.869-13.074,51.017c-8.848,4.845-18.805,7.303-28.891,7.131
				c-5.996-0.032-11.961-0.862-17.737-2.469c-0.619-0.069-1.231-0.191-1.829-0.366c-6.334-1.84-12.282-4.814-17.554-8.777
				c-2.955-2.305-5.571-5.013-7.771-8.046C137.472,241.068,136.902,238.624,137.297,236.24z M283.43,420.585h-9.143
				c-5.043,0.015-9.128,4.1-9.143,9.143v18.286c0,5.049-4.093,9.143-9.143,9.143c-5.049,0-9.143-4.093-9.143-9.143v-18.286
				c-0.015-5.043-4.1-9.128-9.143-9.143h-9.143c-5.049,0-9.143-4.093-9.143-9.143s4.093-9.143,9.143-9.143h9.143
				c6.771,0.018,13.291,2.561,18.286,7.131c4.995-4.571,11.515-7.114,18.286-7.131h9.143c5.049,0,9.143,4.093,9.143,9.143
				S288.479,420.585,283.43,420.585z M237.716,365.728c0.015-5.043,4.1-9.128,9.143-9.143h18.286c5.049,0,9.143,4.093,9.143,9.143
				s-4.093,9.143-9.143,9.143h-18.286C241.815,374.856,237.731,370.771,237.716,365.728z M301.716,374.871
				c-5.043-0.015-9.128-4.1-9.143-9.143c0-27.063-35.017-27.429-36.571-27.429c-1.737,0-36.571,0.64-36.571,27.429
				c0,5.049-4.093,9.143-9.143,9.143c-5.049,0-9.143-4.093-9.143-9.143c0-36.206,35.84-45.714,54.857-45.714
				s54.857,9.509,54.857,45.714C310.843,370.771,306.759,374.856,301.716,374.871z M294.31,304.014
				c-15.603-4.238-29.185-13.898-38.309-27.246c-9.124,13.348-22.706,23.007-38.309,27.246c-6.325,1.668-12.842,2.498-19.383,2.469
				c-23.552-1.167-46.382-8.514-66.194-21.303c-2.559-1.678-4.104-4.529-4.114-7.589c0.022-1.791,0.562-3.537,1.554-5.029
				c1.321-2.028,3.4-3.441,5.772-3.923c2.372-0.481,4.838,0.01,6.845,1.363c0.457,0.274,38.4,25.051,70.857,16.366
				c15.668-4.752,28.424-16.203,34.834-31.269c0.091-0.274,0.457-0.549,0.64-0.823c0.283-0.544,0.654-1.039,1.097-1.463
				c0.446-0.445,0.936-0.843,1.463-1.189c0.291-0.191,0.566-0.405,0.823-0.64c0.205-0.075,0.423-0.106,0.64-0.091
				c0.577-0.278,1.194-0.463,1.829-0.549c1.084-0.244,2.208-0.244,3.291,0c0.635,0.085,1.252,0.27,1.829,0.549
				c0.217-0.015,0.435,0.016,0.64,0.091c0.257,0.235,0.532,0.449,0.823,0.64c0.527,0.345,1.017,0.744,1.463,1.189
				c0.443,0.424,0.814,0.918,1.097,1.463c0.268,0.227,0.486,0.507,0.64,0.823c6.41,15.066,19.166,26.517,34.834,31.269
				c32.549,8.685,70.491-16.091,70.857-16.366c2.007-1.353,4.473-1.844,6.845-1.363c2.372,0.481,4.452,1.894,5.772,3.923
				c0.992,1.491,1.532,3.238,1.554,5.029c-0.01,3.06-1.556,5.91-4.114,7.589c-19.812,12.789-42.642,20.136-66.194,21.303
				C307.151,306.512,300.635,305.682,294.31,304.014z"/>
		</g>
	</g>
</g>
<g>
</g>
<g>
</g>
<g>
</g>
<g>
</g>
<g>
</g>
<g>
</g>
<g>
</g>
<g>
</g>
<g>
</g>
<g>
</g>
<g>
</g>
<g>
</g>
<g>
</g>
<g>
</g>
<g>
</g>
</svg>
