<?xml version="1.0" encoding="iso-8859-1"?>
<!-- Generator: Adobe Illustrator 19.0.0, SVG Export Plug-In . SVG Version: 6.00 Build 0)  -->
<svg version="1.1" id="Capa_1" xmlns="http://www.w3.org/2000/svg" xmlns:xlink="http://www.w3.org/1999/xlink" x="0px" y="0px"
	 viewBox="0 0 503.661 503.661" style="enable-background:new 0 0 503.661 503.661;" xml:space="preserve">
<g>
	<g>
		<g>
			<path d="M289.029,492.401c2.819,6.636,9.334,10.942,16.544,10.934h38.895c9.182,0.019,16.908-6.875,17.93-16l2.219-19.512
				c-23.057,13.729-48.91,22.087-75.64,24.454L289.029,492.401z"/>
			<path d="M405.67,363.519c-8.355-2.003-17.165-0.51-24.395,4.132c-1.952,0.976-3.838,1.917-5.706,2.845l-4.54,27.247
				c-1.063,6.643-5.77,12.125-12.175,14.18c-1.802,0.584-3.685,0.883-5.579,0.886c-4.745-0.001-9.293-1.892-12.64-5.255
				l-13.599-13.599l-7.892,21.805c-2.336,6.222-7.89,10.667-14.473,11.583c-1.062,0.169-2.135,0.254-3.211,0.254
				c-5.985,0.032-11.657-2.67-15.404-7.338l-10.122-12.044l-9.027,15.044c-3.245,5.412-9.093,8.724-15.403,8.724
				s-12.158-3.312-15.404-8.724l-12.763-21.276l-15.526,18.47c-4.473,5.437-11.514,8.066-18.456,6.89
				c-6.566-0.909-12.11-5.331-14.456-11.531l-7.878-21.89l-13.631,13.631c-3.347,3.363-7.896,5.254-12.64,5.255
				c-1.894-0.003-3.777-0.302-5.579-0.886c-6.423-2.066-11.135-7.572-12.184-14.237l-5.292-31.763
				c-6.299-3.391-13.663-4.222-20.559-2.321c-2.878,1.233-5.276,3.371-6.829,6.09c6.221,33.062,25.646,62.161,53.795,80.585
				c25.745,17.57,60.877,26.11,107.403,26.11c46.526,0,81.658-8.539,107.394-26.105c28.153-18.425,47.581-47.528,53.803-80.594
				C411.118,366.899,408.641,364.725,405.67,363.519z"/>
			<path d="M192.538,409.633l0.254-0.013c0.424-0.02,0.822-0.209,1.105-0.526l12.81-15.248c-8.009-0.715-15.132-1.662-21.63-2.82
				l6.707,18.638C191.731,409.51,192.047,409.629,192.538,409.633z"/>
			<path d="M262.643,395.448c-3.598,0.054-7.254,0.097-11.14,0.097s-7.543-0.043-11.14-0.097l11.14,18.566L262.643,395.448z"/>
			<path d="M140.599,487.322c0.995,9.106,8.682,16.005,17.842,16.013h38.991c7.208-0.039,13.708-4.341,16.561-10.961l0.041-0.097
				c-26.734-2.367-52.592-10.727-75.652-24.458L140.599,487.322z"/>
			<path d="M137.48,375.372l3.234,19.414l12.566-12.544C147.959,380.184,142.779,377.879,137.48,375.372z"/>
			<path d="M130.952,95.232c0.926-2.631,1.768-5.288,2.805-7.883c3.125-7.835,7.049-15.326,11.711-22.356
				c6.55-9.933,14.531-18.844,23.686-26.444c-18.897-6.525-34.576-20.039-43.817-37.766c-1.386-0.465-1.667,0.127-1.763,0.325
				C110.414,30.376,102.03,69.249,130.952,95.232z"/>
			<path d="M13.705,306.08l22.753,10.657l17.918,8.385c5.325-8.491,11.952-16.092,19.638-22.524
				c0.517-2.527,0.974-5.035,1.586-7.593c1.831-7.603,3.843-15.184,5.934-22.744C59.308,274.51,29.557,282.187,13.705,306.08z"/>
			<path d="M357.529,64.975c4.672,7.048,8.605,14.558,11.737,22.412c1.031,2.582,1.869,5.225,2.79,7.842
				c28.92-25.984,20.532-64.86,7.342-94.193c-0.172-0.43-0.589-0.711-1.053-0.711c-9.502,17.912-25.422,31.572-44.571,38.242
				C342.941,46.162,350.944,55.059,357.529,64.975z"/>
			<path d="M5.494,322.085l-3.807,8.136c-4.188,8.99-0.312,19.673,8.667,23.886l8.132,3.807c8.99,4.192,19.677,0.32,23.895-8.658
				l3.803-8.123l-19.576-9.169L5.494,322.085z"/>
			<path d="M501.968,330.221l-3.798-8.136l-40.684,19.039l3.807,8.136c4.206,8.985,14.9,12.86,23.886,8.654l8.14-3.807
				C502.294,349.891,506.163,339.206,501.968,330.221z"/>
			<path d="M387.301,221.164c-3.009-9.561-6.018-19.118-8.939-28.697c-4.158-13.75-7.237-27.934-10.202-41.649
				c-3.631-19.33-8.847-38.329-15.596-56.803c-9.971-25.045-29.23-45.27-53.757-56.455c1.302,7.602,3.293,15.069,5.95,22.31
				c1.84,4.607-0.404,9.833-5.011,11.673c-4.607,1.84-9.833-0.404-11.673-5.011c-7.482-19.282-9.906-40.157-7.044-60.641
				c-9.678,2.269-19.586,3.413-29.526,3.408c-9.94,0.004-19.848-1.139-29.526-3.408c2.863,20.483,0.438,41.359-7.044,60.641
				c-1.84,4.607-7.066,6.851-11.673,5.011c-4.607-1.84-6.851-7.066-5.011-11.673c2.662-7.253,4.656-14.734,5.957-22.349
				c-17.821,8.05-32.987,21-43.729,37.341c-3.988,6.01-7.345,12.415-10.017,19.114c-6.758,18.486-11.981,37.498-15.614,56.842
				c-2.965,13.715-6.044,27.899-10.202,41.636c-2.921,9.592-5.93,19.149-8.939,28.711c-8.026,25.482-16.325,51.833-22.632,78.04
				c-3.959,16.024-5.706,32.515-5.193,49.013c0.788-0.409,1.514-0.857,2.377-1.214c13.201-4.37,27.657-2.695,39.509,4.579
				c35.702,17.851,52,26,121.737,26s86.035-8.149,121.737-26c11.851-7.274,26.308-8.949,39.509-4.579
				c0.863,0.358,1.588,0.806,2.377,1.214c0.514-16.502-1.233-32.997-5.192-49.025C403.626,272.997,395.328,246.646,387.301,221.164z
				 M177.529,98.637c1.36-1.68,2.684-3.316,3.877-4.925c1.869-2.488,4.88-3.848,7.982-3.605c3.11,0.266,5.859,2.125,7.263,4.912
				c2.905,5.199,7.408,9.324,12.842,11.763l6.544-19.5c1.23-3.658,4.658-6.123,8.518-6.123s7.288,2.464,8.518,6.123
				c1.816,5.338,9.132,20.627,18.43,20.627c9.553,0,16.965-16.272,18.43-20.627c1.23-3.658,4.658-6.123,8.518-6.123
				c3.859,0,7.288,2.464,8.518,6.123l6.544,19.5c5.45-2.451,9.963-6.595,12.868-11.816c1.429-2.752,4.172-4.577,7.263-4.832
				s6.096,1.097,7.956,3.578c1.193,1.61,2.518,3.246,3.877,4.925c7.132,8.825,16.904,20.908,13.123,36.127
				c-2.911,10.196-10.689,18.284-20.763,21.592c-12.648,4.213-25.949,6.124-39.272,5.64c-4.684,0-9.289-0.118-13.746-0.237
				c-4.526-0.118-8.956-0.193-13.289-0.224c-4.36-0.022-8.816,0.101-13.342,0.224c-17.855,1.588-35.85-0.246-53.018-5.404
				c-10.074-3.308-17.852-11.396-20.763-21.592C160.626,119.545,170.398,107.462,177.529,98.637z M349.871,188.401
				c-6.739,2.442-13.604,4.522-20.565,6.23c21.781,37.752,13.318,85.692-20.072,113.704c-33.391,28.012-82.072,28.012-115.463,0
				c-33.391-28.012-41.853-75.953-20.072-113.704c-6.961-1.708-13.826-3.788-20.565-6.23c-4.658-1.71-7.048-6.873-5.338-11.531
				s6.873-7.048,11.531-5.338c6.225,2.257,12.568,4.175,19,5.746c6.956,1.724,14.395,3.202,22.105,4.399
				c7.886,1.224,16.158,2.162,24.588,2.798c17.631,1.298,35.334,1.298,52.965,0c8.43-0.636,16.702-1.575,24.588-2.798
				c7.711-1.197,15.149-2.675,22.105-4.399c6.432-1.571,12.775-3.489,19-5.746c4.658-1.71,9.821,0.68,11.531,5.338
				C356.919,181.528,354.529,186.691,349.871,188.401z"/>
			<path d="M305.328,199.431c-8.351,1.294-17.096,2.29-25.991,2.956c-9.114,0.684-18.474,1.031-27.833,1.031
				s-18.719-0.346-27.833-1.031c-8.895-0.667-17.641-1.662-25.991-2.956c-1.765-0.273-3.458-0.617-5.197-0.918
				c-8.411,11.951-12.897,26.221-12.838,40.835c0,39.687,32.173,71.86,71.86,71.86c39.687,0,71.86-32.173,71.86-71.86
				c0.059-14.614-4.427-28.884-12.838-40.835C308.786,198.815,307.093,199.158,305.328,199.431z M251.503,293.243
				c-19.844,0-35.93-16.086-35.93-35.93c0-19.843,16.086-35.93,35.93-35.93s35.93,16.086,35.93,35.93
				C287.412,277.148,271.338,293.222,251.503,293.243z"/>
			<path d="M421.453,272.188c2.099,7.581,4.118,15.182,5.954,22.805c0.564,2.356,0.977,4.664,1.461,6.995
				c8.009,6.557,14.895,14.374,20.39,23.145l40.676-19.053C473.909,281.932,443.718,274.343,421.453,272.188z"/>
			<circle cx="251.503" cy="257.314" r="17.965"/>
			<path d="M355.834,379.758c-4.155,1.771-8.352,3.394-12.713,4.878l10.216,10.216L355.834,379.758z"/>
			<path d="M191.521,139.55c15.001,4.266,30.665,5.707,46.193,4.25c4.719-0.123,9.456-0.228,13.816-0.228h0.737
				c4.193,0,8.57,0.114,13.026,0.228c15.528,1.464,31.193,0.023,46.193-4.25c4.462-1.379,8.035-4.746,9.675-9.118
				c1.281-5.127-1.605-10.175-6.623-16.675c-6.982,7.598-16.787,11.982-27.105,12.118c-3.86,0-7.288-2.464-8.518-6.123l-2.526-7.526
				c-5.73,8.162-14.923,13.204-24.886,13.649c-9.963-0.445-19.156-5.487-24.886-13.649l-2.526,7.526
				c-1.229,3.659-4.658,6.123-8.518,6.123c-10.318-0.136-20.124-4.52-27.105-12.118c-5.018,6.5-7.904,11.548-6.623,16.675
				C183.486,134.804,187.058,138.171,191.521,139.55z"/>
			<path d="M301.231,409.62c0.398,0.051,0.803-0.022,1.158-0.21l6.09-16.907c-6.253,0.835-13.031,1.517-20.601,2.01l12.09,14.389
				C300.264,409.313,300.725,409.575,301.231,409.62z"/>
		</g>
	</g>
</g>
<g>
</g>
<g>
</g>
<g>
</g>
<g>
</g>
<g>
</g>
<g>
</g>
<g>
</g>
<g>
</g>
<g>
</g>
<g>
</g>
<g>
</g>
<g>
</g>
<g>
</g>
<g>
</g>
<g>
</g>
</svg>
