<?xml version="1.0" encoding="iso-8859-1"?>
<!-- Generator: Adobe Illustrator 19.0.0, SVG Export Plug-In . SVG Version: 6.00 Build 0)  -->
<svg version="1.1" id="Capa_1" xmlns="http://www.w3.org/2000/svg" xmlns:xlink="http://www.w3.org/1999/xlink" x="0px" y="0px"
	 viewBox="0 0 511.979 511.979" style="enable-background:new 0 0 511.979 511.979;" xml:space="preserve">
<g>
	<g>
		<g>
			<path d="M228.561,178.789c0.036-11.455-4.593-22.432-12.821-30.402c-47.482-4.888-63.857,24.853-69.161,40.295
				c4.714,20.737,24.338,34.557,45.451,32.009S228.915,200.052,228.561,178.789z M191.989,193.561h-9.143
				c-5.049,0-9.143-4.093-9.143-9.143c0-5.049,4.093-9.143,9.143-9.143h9.143c5.049,0,9.143,4.093,9.143,9.143
				C201.132,189.468,197.039,193.561,191.989,193.561z"/>
			<path d="M365.4,188.682c-5.304-15.442-21.705-45.161-69.161-40.295c-12.257,11.905-16.143,30.018-9.848,45.903
				s21.532,26.42,38.616,26.7C344.344,220.917,361.082,207.53,365.4,188.682z M313.524,190.884
				c-1.715-1.715-2.678-4.041-2.677-6.466c-0.001-2.425,0.962-4.751,2.677-6.466c1.715-1.715,4.041-2.678,6.466-2.677h9.143
				c5.049,0,9.143,4.093,9.143,9.143c0,5.049-4.093,9.143-9.143,9.143h-9.143C317.564,193.562,315.239,192.599,313.524,190.884z"/>
			<path d="M478.442,141.045c3.755-3.377,9.536-3.07,12.913,0.685l0,0c0.488,0.541,3.889,4.396,8.396,10.491
				c5.853-3.382,10.124-8.951,11.872-15.482c1.955-9.897-4.187-22.875-17.768-37.536c-33.644-36.296-89.206-28.237-116.968-21.18
				c2.843,3.314,2.905,8.188,0.146,11.573c-3.225,3.885-8.989,4.421-12.875,1.196c-15.052-12.643-31.858-23.036-49.893-30.857
				c0.76,7.039,2.466,13.943,5.072,20.526c1.221,3.036,0.725,6.493-1.299,9.064c-2.024,2.571-5.268,3.864-8.506,3.39
				s-5.975-2.642-7.177-5.686c-5.331-13.14-7.641-27.311-6.76-41.464c0.731-11.269,3.363-22.333,7.786-32.723
				c-10.794,3.219-20.487,9.36-28.009,17.743c0.097,10.622,2.514,21.095,7.081,30.685c1.47,2.923,1.267,6.409-0.534,9.141
				s-4.924,4.294-8.19,4.095c-3.266-0.199-6.177-2.127-7.633-5.057c-8.792-19.422-11.403-41.076-7.482-62.031
				c-19.429,18.616-33.081,42.437-39.321,68.611c-0.757,4.387-4.557,7.596-9.009,7.607c-0.515-0.001-1.028-0.045-1.536-0.129
				c-4.967-0.839-8.318-5.54-7.491-10.509c1.103-5.684,2.652-11.272,4.634-16.712c-21.161,8.072-40.799,19.675-58.08,34.315
				c-1.869,1.546-4.275,2.286-6.69,2.057c-2.415-0.229-4.639-1.407-6.185-3.276c-2.752-3.383-2.687-8.251,0.154-11.56
				c-27.761-7.056-83.323-15.116-116.967,21.18C4.543,113.865-1.6,126.842,0.355,136.74c1.748,6.53,6.019,12.099,11.872,15.482
				c4.507-6.095,7.908-9.949,8.396-10.491c3.377-3.755,9.158-4.062,12.913-0.685c3.755,3.377,4.062,9.158,0.685,12.913
				c-0.393,0.433-38.687,43.643-30.554,78.455c3.818,13.317,13.286,24.289,25.902,30.015c6.516-39.386,20.93-77.047,42.375-110.72
				c2.665-4.29,8.303-5.608,12.594-2.943c4.29,2.665,5.608,8.303,2.943,12.594c-26.554,42.728-41.777,89.192-41.777,127.469
				c0,93.669,94.33,169.875,210.286,169.875s210.286-76.206,210.286-169.875c0-38.277-15.223-84.741-41.777-127.469
				c-2.665-4.29-1.348-9.929,2.942-12.594c4.29-2.665,9.928-1.348,12.594,2.942c21.445,33.673,35.859,71.334,42.375,110.72
				c12.615-5.726,22.084-16.698,25.902-30.015c8.134-34.813-30.161-78.022-30.554-78.455
				C474.381,150.203,474.687,144.422,478.442,141.045z M115.784,328.699c-1.894,1.516-4.313,2.216-6.724,1.948
				c-2.411-0.268-4.617-1.483-6.133-3.377c-16.098-20.125-23.009-38.42-20.536-54.362c1.215-9.152,6.069-17.428,13.465-22.955
				c4.174-2.775,9.804-1.671,12.622,2.474c2.818,4.146,1.771,9.787-2.345,12.646c-3.267,2.831-5.322,6.809-5.741,11.112
				c-0.964,7.299,1.17,20.103,16.821,39.665C120.362,319.795,119.723,325.544,115.784,328.699z M383.989,303.275
				c-2.369,0.004-4.646-0.916-6.348-2.562c-0.535-0.472-15.104-12.981-58.041-16.586c-0.584,7.084-1.89,14.089-3.897,20.908
				c12.476,11.447,16.655,29.374,10.527,45.158c-6.128,15.784-21.309,26.195-38.241,26.225h-64
				c-22.712-0.025-41.118-18.431-41.143-41.143c-0.049-10.944,4.335-21.443,12.152-29.103c0.424-0.423,0.851-0.751,1.276-1.143
				c-2.006-6.818-3.311-13.822-3.895-20.905c-43.538,3.654-57.909,16.464-58.059,16.602c-1.712,1.579-3.957,2.454-6.286,2.451
				c-3.679,0.011-7.003-2.192-8.427-5.584c-1.424-3.392-0.667-7.307,1.918-9.925c1.9-1.896,19.374-17.835,70.822-21.862
				c0.712-9.427,2.671-18.718,5.825-27.631c-3.69,0.721-7.441,1.089-11.201,1.099c-29.008-0.079-53.792-20.926-58.839-49.491
				c-0.259-1.433-0.17-2.907,0.259-4.299c4.616-15.071,24.911-63.607,92.464-54.911c1.757,0.222,3.41,0.951,4.759,2.098
				c13.576,11.628,21.342,28.644,21.231,46.519c-0.111,17.874-8.087,34.793-21.806,46.252c-0.121,0.312-0.26,0.617-0.416,0.912
				c-9.691,14.213-14.707,31.096-14.348,48.295c-0.063,10.386,1.692,20.702,5.188,30.482c0.068,0.316,0.119,0.636,0.151,0.959
				c0.944,3.52-0.374,7.258-3.316,9.407c-0.232,0.236-0.478,0.458-0.736,0.665c-1.347,0.842-2.586,1.846-3.688,2.991
				c-4.336,4.24-6.768,10.056-6.741,16.12c0.013,12.618,10.239,22.844,22.857,22.857h64c12.587-0.087,22.77-10.27,22.857-22.857
				c0.004-7.823-4.021-15.097-10.651-19.25c-0.252-0.159-0.388-0.414-0.619-0.593c-1.421-1.07-2.477-2.552-3.024-4.245
				c-0.389-1.08-0.545-2.229-0.458-3.374c0.031-0.625,0.129-1.244,0.291-1.848c0.074-0.278,0.029-0.559,0.131-0.834
				c3.495-9.78,5.251-20.096,5.187-30.482c0.358-17.199-4.657-34.081-14.348-48.295c-0.156-0.296-0.296-0.6-0.416-0.912
				c-13.719-11.459-21.695-28.378-21.806-46.252s7.655-34.891,21.231-46.519c1.349-1.147,3.002-1.876,4.759-2.098
				c67.482-8.705,87.848,39.839,92.464,54.911c0.429,1.392,0.518,2.866,0.259,4.299c-5.047,28.565-29.832,49.412-58.839,49.491
				c-3.76-0.01-7.511-0.378-11.201-1.099c3.155,8.912,5.114,18.203,5.825,27.631c51.448,4.026,68.922,19.966,70.822,21.862
				c2.614,2.615,3.396,6.547,1.981,9.963C391.02,301.047,387.687,303.275,383.989,303.275z M429.588,272.909
				c2.473,15.942-4.438,34.237-20.536,54.362c-3.158,3.928-8.899,4.56-12.836,1.413c-3.937-3.147-4.585-8.886-1.449-12.832
				c15.911-19.884,17.893-32.804,16.75-40.138c-0.496-4.073-2.465-7.823-5.536-10.545c-4.166-2.814-5.279-8.465-2.49-12.648
				c2.789-4.183,8.432-5.33,12.633-2.566C423.519,255.481,428.373,263.757,429.588,272.909z"/>
			<path d="M312.013,471.252c-0.445,7.393-0.895,12.614-1.131,14.805c0.423,1.861,1.545,3.488,3.134,4.545
				c0.718,0.644,1.482,1.235,2.286,1.768c5.352,3.384,11.208,5.896,17.348,7.442c2,0.563,4.197,1.138,6.393,1.549
				c5.055,1.023,10.162,1.77,15.298,2.238c-0.908-4.062-2.735-7.861-5.343-11.104c-3.429-3.648-3.314-9.368,0.259-12.875
				c3.548-3.491,9.247-3.469,12.768,0.049c6.067,6.92,9.919,15.5,11.061,24.632c1.522-0.043,3.123-0.049,4.564-0.141l4.991-0.277
				c6.394-0.545,12.74-1.555,18.987-3.022c0.978-6.156-1.225-12.388-5.853-16.563c-3.948-3.078-4.718-8.745-1.732-12.763
				c2.965-3.986,8.582-4.85,12.607-1.937c7.484,6.217,12.21,15.136,13.152,24.82c1.258-0.66,2.475-1.398,3.642-2.208
				c3.893-2.692,5.259-4.969,5.259-6.214c-0.055-22.518-3.214-44.922-9.387-66.577C389.111,445.469,351.876,463.289,312.013,471.252
				z"/>
			<path d="M91.662,419.417c-6.173,21.656-9.332,44.059-9.387,66.577c0,1.652,2.502,4.99,8.904,8.397
				c0.948-9.674,5.673-18.583,13.15-24.794c4.064-2.958,9.753-2.08,12.738,1.964c2.984,4.044,2.144,9.74-1.88,12.75
				c-4.614,4.174-6.81,10.396-5.837,16.541c6.333,1.484,12.766,2.505,19.247,3.052l4.295,0.232c1.76,0.11,3.395,0.177,4.991,0.223
				c1.134-9.154,4.991-17.756,11.072-24.691c3.552-3.555,9.309-3.576,12.887-0.047s3.637,9.285,0.131,12.886
				c-2.616,3.262-4.447,7.082-5.352,11.164c5.069-0.474,10.108-1.231,15.093-2.267c2.42-0.455,4.616-1.031,6.652-1.607
				c7.053-1.642,13.685-4.738,19.473-9.089c1.656-1.097,2.834-2.782,3.294-4.715c-0.263-2.142-0.719-7.352-1.166-14.742
				C160.103,463.29,122.869,445.469,91.662,419.417z"/>
		</g>
	</g>
</g>
<g>
</g>
<g>
</g>
<g>
</g>
<g>
</g>
<g>
</g>
<g>
</g>
<g>
</g>
<g>
</g>
<g>
</g>
<g>
</g>
<g>
</g>
<g>
</g>
<g>
</g>
<g>
</g>
<g>
</g>
</svg>
