<?xml version="1.0" encoding="iso-8859-1"?>
<!-- Generator: Adobe Illustrator 19.0.0, SVG Export Plug-In . SVG Version: 6.00 Build 0)  -->
<svg version="1.1" id="Capa_1" xmlns="http://www.w3.org/2000/svg" xmlns:xlink="http://www.w3.org/1999/xlink" x="0px" y="0px"
	 viewBox="0 0 512 512" style="enable-background:new 0 0 512 512;" xml:space="preserve">
<g>
	<g>
		<g>
			<path d="M82.286,411.406c-5.049,0-9.143,4.093-9.143,9.143c0,5.049,4.093,9.143,9.143,9.143c5.049,0,9.143-4.093,9.143-9.143
				C91.414,415.506,87.329,411.421,82.286,411.406z"/>
			<path d="M278.857,475.406c-17.665,0.019-31.981,14.335-32,32c0.027,1.5,0.15,2.996,0.366,4.48
				c3.109,0.091,6.034,0.091,8.777,0.091c14.446,0,34.103-0.64,54.674-1.554c0.091-1.006,0.183-2.011,0.183-3.017
				C310.838,489.741,296.522,475.425,278.857,475.406z"/>
			<path d="M296.229,91.954c-12.246,11.913-16.12,30.025-9.82,45.906c6.3,15.881,21.537,26.41,38.62,26.688
				c19.33-0.07,36.069-13.438,40.411-32.274C360.137,116.823,343.68,87.017,296.229,91.954z M329.143,137.12H320
				c-5.049,0-9.143-4.093-9.143-9.143c0-5.049,4.093-9.143,9.143-9.143h9.143c5.049,0,9.143,4.093,9.143,9.143
				C338.286,133.027,334.192,137.12,329.143,137.12z"/>
			<path d="M379.429,457.12c7.574,0,13.714-6.14,13.714-13.714s-6.14-13.714-13.714-13.714s-13.714,6.14-13.714,13.714
				c-0.005,3.639,1.438,7.13,4.011,9.703S375.79,457.125,379.429,457.12z"/>
			<path d="M288,338.263c-22.723,0-41.143,18.42-41.143,41.143s18.42,41.143,41.143,41.143c22.723,0,41.143-18.42,41.143-41.143
				C329.109,356.697,310.708,338.297,288,338.263z"/>
			<path d="M457.326,260.274c-0.057-0.171-0.15-0.327-0.274-0.457c-0.448-0.574-0.846-1.186-1.189-1.829
				c-0.091-0.274-0.274-0.549-0.366-0.823c-0.091-0.091-0.091-0.183-0.183-0.183c-3.017-6.857-6.4-13.806-9.874-20.937
				c-17.768-34.837-31.509-71.584-40.96-109.531v-0.183l-0.274-1.097c-0.091-0.366-0.183-0.823-0.274-1.28l-0.274-1.097
				c-0.366-1.554-0.731-3.109-1.097-4.754c-10.976-48.399-45.063-88.298-91.154-106.697c-35.41-15.177-75.493-15.177-110.903,0
				c-46.045,18.438-80.089,58.327-91.063,106.697c-0.366,1.646-0.731,3.2-1.097,4.754l-0.274,1.097
				c-9.357,38.915-23.322,76.576-41.6,112.183c-3.566,7.406-6.949,14.537-10.149,21.577c-0.406,0.959-0.996,1.829-1.737,2.56
				C21.394,295.292,0,325.92,0,338.263c0,24.32,7.68,33.371,28.434,33.371c11.229-0.401,22.357-2.276,33.097-5.577
				c12.435-3.657,25.326-6.309,37.76-8.869l1.28-0.274c2.286-0.457,5.211-0.914,8.32-1.28c6.218-0.914,17.92-2.469,20.663-5.76
				c0.582-1.125,0.806-2.401,0.64-3.657c-0.417-4.139-2.184-8.027-5.029-11.063c-11.611-13.166-34.011-14.994-52.114-15.177
				c-5.049-0.025-9.122-4.139-9.097-9.189c0.025-5.049,4.139-9.122,9.189-9.097h0.091c21.943,0.183,49.189,2.834,65.646,21.394
				c5.578,6.098,8.957,13.886,9.6,22.126c0.427,5.764-1.264,11.485-4.754,16.091c-7.314,9.052-21.211,10.88-32.366,12.434
				c-2.651,0.366-5.12,0.64-7.131,1.097l-1.28,0.274c-12.069,2.469-24.503,5.029-36.389,8.503c-9.297,2.725-18.81,4.652-28.434,5.76
				c1.291,23.607,5.029,47.016,11.154,69.851c7.465,25.803,30.334,44.135,57.143,45.806c21.76,1.371,79.726,5.12,122.514,6.4
				c-0.091-1.28-0.366-2.651-0.366-4.023c0.049-27.752,22.534-50.237,50.286-50.286c0.702-0.017,1.405,0.013,2.103,0.091
				c26.906,1.139,48.145,23.264,48.183,50.194c-0.016,0.704-0.077,1.407-0.183,2.103c31.451-1.554,62.08-3.566,76.709-4.48
				c26.748-1.699,49.563-19.98,57.051-45.714c6.117-22.868,9.855-46.307,11.154-69.943c-9.596-1.1-19.079-3.027-28.343-5.76
				c-11.977-3.474-24.411-6.034-36.48-8.503l-1.28-0.274c-2.011-0.457-4.48-0.731-7.131-1.097
				c-11.154-1.554-25.051-3.383-32.274-12.343c-0.785-1.009-1.488-2.079-2.103-3.2c-2.041-3.978-2.988-8.427-2.743-12.891
				c0.624-8.271,4.004-16.094,9.6-22.217c16.457-18.56,43.703-21.211,65.646-21.394h0.091c5.049-0.025,9.163,4.048,9.189,9.097
				c0.025,5.049-4.048,9.163-9.097,9.189c-18.103,0.183-40.503,2.011-52.114,15.177c-2.863,3.06-4.631,6.983-5.029,11.154
				c-0.171,1.266,0.086,2.554,0.731,3.657c2.651,3.2,14.354,4.754,20.571,5.669c3.109,0.366,6.034,0.823,8.32,1.28l1.28,0.274
				c12.434,2.56,25.326,5.211,37.851,8.869c10.708,3.307,21.806,5.182,33.006,5.577c20.754,0,28.434-9.051,28.434-33.371
				C512,325.92,490.514,295.292,457.326,260.274z M82.286,447.977c-15.148,0-27.429-12.28-27.429-27.429
				c0-15.148,12.28-27.429,27.429-27.429s27.429,12.28,27.429,27.429C109.67,435.679,97.416,447.933,82.286,447.977z
				 M329.143,228.549H182.857c-5.043,0.015-9.128,4.1-9.143,9.143v9.143c0,5.049-4.093,9.143-9.143,9.143
				c-5.049,0-9.143-4.093-9.143-9.143v-9.143c0.044-15.13,12.299-27.384,27.429-27.429h146.286
				c15.13,0.044,27.384,12.299,27.429,27.429v9.143c0,5.049-4.093,9.143-9.143,9.143s-9.143-4.093-9.143-9.143v-9.143
				C338.271,232.648,334.186,228.564,329.143,228.549z M274.286,255.977c-0.015,5.043-4.1,9.128-9.143,9.143h-18.286
				c-5.049,0-9.143-4.093-9.143-9.143c0-5.049,4.093-9.143,9.143-9.143h18.286C270.186,246.849,274.271,250.934,274.286,255.977z
				 M128.183,133.372c-0.261-1.428-0.199-2.896,0.183-4.297c0.111-0.47,0.264-0.929,0.457-1.371
				c5.394-16.457,26.331-61.989,92.069-53.577c1.752,0.237,3.401,0.966,4.754,2.103c20.545,16.924,27.528,45.337,17.168,69.857
				s-35.6,39.318-62.056,36.384C154.302,179.535,132.918,159.566,128.183,133.372z M169.143,484.549
				c-22.723,0-41.143-18.42-41.143-41.143s18.42-41.143,41.143-41.143c22.723,0,41.143,18.42,41.143,41.143
				C210.251,466.114,191.851,484.514,169.143,484.549z M192,338.263c-15.148,0-27.429-12.28-27.429-27.429
				s12.28-27.429,27.429-27.429s27.429,12.28,27.429,27.429C219.384,325.964,207.13,338.219,192,338.263z M288,438.834
				c-2.011,0-4.023-0.091-6.034-0.274c-31.956-3.202-55.611-31.174-53.46-63.218c2.15-32.043,29.331-56.605,61.428-55.508
				c32.097,1.097,57.537,27.456,57.496,59.571C347.365,412.201,320.795,438.771,288,438.834z M379.429,411.406
				c17.673,0,32,14.327,32,32s-14.327,32-32,32s-32-14.327-32-32C347.448,425.741,361.764,411.425,379.429,411.406z
				 M383.817,133.372c-5.015,25.82-26.29,45.345-52.445,48.131c-26.154,2.786-51.065-11.819-61.407-36.003
				c-10.342-24.184-3.693-52.285,16.389-69.271c1.354-1.137,3.002-1.866,4.754-2.103c65.646-8.411,86.674,37.12,92.068,53.577
				c0.193,0.442,0.346,0.901,0.457,1.371c0.091,0.366,0.183,0.823,0.274,1.28c0,0.457,0.091,0.823,0.091,1.28
				C383.984,132.217,383.923,132.798,383.817,133.372z"/>
			<path d="M192.056,164.245c21.114-2.566,36.878-20.669,36.515-41.936c0.018-11.434-4.6-22.386-12.8-30.354
				c-47.543-4.937-63.909,24.869-69.211,40.32C151.302,153.009,170.942,166.81,192.056,164.245z M173.714,127.977
				c0.015-5.043,4.1-9.128,9.143-9.143H192c5.049,0,9.143,4.093,9.143,9.143c0,5.049-4.093,9.143-9.143,9.143h-9.143
				C177.814,137.105,173.729,133.02,173.714,127.977z"/>
			<path d="M169.143,420.549c-12.624,0-22.857,10.233-22.857,22.857s10.234,22.857,22.857,22.857S192,456.03,192,443.406
				C191.995,430.784,181.765,420.553,169.143,420.549z"/>
			<path d="M192,301.692c-5.049,0-9.143,4.093-9.143,9.143c0,5.049,4.093,9.143,9.143,9.143s9.143-4.093,9.143-9.143
				C201.128,305.791,197.043,301.707,192,301.692z"/>
		</g>
	</g>
</g>
<g>
</g>
<g>
</g>
<g>
</g>
<g>
</g>
<g>
</g>
<g>
</g>
<g>
</g>
<g>
</g>
<g>
</g>
<g>
</g>
<g>
</g>
<g>
</g>
<g>
</g>
<g>
</g>
<g>
</g>
</svg>
