<?xml version="1.0" encoding="iso-8859-1"?>
<!-- Generator: Adobe Illustrator 19.0.0, SVG Export Plug-In . SVG Version: 6.00 Build 0)  -->
<svg version="1.1" id="Capa_1" xmlns="http://www.w3.org/2000/svg" xmlns:xlink="http://www.w3.org/1999/xlink" x="0px" y="0px"
	 viewBox="0 0 511.44 511.44" style="enable-background:new 0 0 511.44 511.44;" xml:space="preserve">
<g>
	<g>
		<g>
			<path d="M198.677,412.381c-18.113-4.928-35.619-11.866-52.19-20.685c-11.432-6.035-22.05-13.497-31.602-22.208
				c-19.477,34.108-30.709,72.297-32.8,111.518c8.265-10.225,20.957-15.833,34.082-15.057s25.068,7.839,32.071,18.966
				c7.071-6.677,16.529-10.233,26.248-9.869c9.719,0.365,18.884,4.619,25.435,11.808C198.14,462.072,197.724,437.21,198.677,412.381
				z"/>
			<circle cx="223.367" cy="50.089" r="13.714"/>
			<path d="M337.652,493.308c-6.703-0.02-12.871,3.654-16.047,9.556c3.691,1.674,7.507,3.059,11.413,4.14
				c1.996,0.558,4.192,1.134,6.384,1.54c5.438,1.094,10.935,1.87,16.463,2.326C355.487,501.079,347.451,493.33,337.652,493.308z"/>
			<circle cx="168.51" cy="123.232" r="22.857"/>
			<path d="M397.081,484.165c-6.856-0.066-13.372,2.978-17.721,8.278c-4.349,5.3-6.061,12.286-4.657,18.997
				c1.09-0.041,2.281-0.035,3.334-0.101l4.965-0.277c11.211-0.774,22.24-3.244,32.71-7.326c1.329-0.552,2.495-1.123,3.634-1.697
				C416.994,491.622,407.76,484.209,397.081,484.165z"/>
			<path d="M364.237,391.701c-16.568,8.817-34.071,15.754-52.181,20.68c0.933,24.824,0.521,49.681-1.232,74.461
				c6.552-7.183,15.716-11.432,25.431-11.794c9.716-0.362,19.17,3.194,26.239,9.869c7.003-11.127,18.946-18.19,32.071-18.966
				c13.125-0.776,25.817,4.832,34.082,15.057c-2.09-39.207-13.314-77.382-32.778-111.48
				C386.317,378.24,375.686,385.693,364.237,391.701z"/>
			<circle cx="278.224" cy="150.661" r="22.857"/>
			<path d="M173.081,493.308c-9.828,0.021-17.879,7.814-18.22,17.637c5.454-0.466,10.876-1.253,16.238-2.355
				c2.424-0.451,4.621-1.027,6.652-1.598c3.901-1.056,7.712-2.422,11.396-4.086C185.979,496.98,179.799,493.288,173.081,493.308z"/>
			<circle cx="255.367" cy="288.818" r="18.286"/>
			<path d="M504.277,240.129c-5.585-11.964-40.58-32.808-104.013-61.951l-4.254-1.96c-4.556-2.134-6.532-7.547-4.422-12.114
				c2.11-4.567,7.514-6.571,12.092-4.484l4.219,1.942c2.057,0.945,4.122,1.905,6.185,2.861
				c-9.103-49.182-21.763-96.848-46.854-126.642c-11.353-13.442-39.629-25.647-79.612-34.348
				c-21.267-4.579-43.265-4.577-64.531,0.004c-39.951,8.696-68.228,20.902-79.589,34.353
				c-25.141,29.843-37.821,77.625-46.931,126.933c2.29-1.063,4.578-2.121,6.864-3.175l4.197-1.929
				c2.967-1.381,6.445-1.071,9.121,0.813c2.676,1.884,4.141,5.054,3.841,8.312c-0.3,3.259-2.318,6.109-5.292,7.473l-4.232,1.946
				c-63.451,29.147-98.455,49.995-104.04,61.964c-4.705,8.507-7.101,18.097-6.951,27.817c0.554,5.25,2.862,12.96,16.46,19.303
				c10.343,4.349,21.278,7.127,32.442,8.241c13.121,1.607,26.089,4.353,38.625,7.009l1.263,0.263
				c2.384,0.509,5.201,1.321,8.255,2.214c6.46,1.888,17.272,5.058,21.375,2.79c1.457-1.118,2.553-2.639,3.152-4.375
				c1.745-4.638,2.033-9.698,0.826-14.504c-4.299-18.223-22.563-29.157-39.857-37.446c-4.554-2.182-6.477-7.643-4.295-12.196
				c2.182-4.554,7.643-6.477,12.196-4.295c19.955,9.567,43.647,23.862,49.754,49.754c2.066,8.5,1.477,17.43-1.688,25.585
				c-2.124,5.596-6.053,10.324-11.165,13.438c-4.046,2.143-8.575,3.211-13.152,3.103c-3.659-0.057-7.302-0.494-10.871-1.304
				c11.921,21.401,29.898,38.803,51.675,50.022c30.795,16.803,65.221,25.85,100.299,26.357c35.081-0.508,69.51-9.556,100.308-26.362
				c21.758-11.162,39.715-28.529,51.596-49.902c-3.372,0.74-6.81,1.141-10.262,1.197c-4.541,0.11-9.034-0.948-13.049-3.071
				c-5.132-3.101-9.082-7.827-11.223-13.429c-3.174-8.165-3.77-17.106-1.71-25.62c6.112-25.906,29.808-40.205,49.763-49.768
				c2.946-1.411,6.421-1.144,9.116,0.701c2.695,1.845,4.201,4.989,3.951,8.246s-2.22,6.133-5.165,7.544
				c-17.299,8.286-35.558,19.218-39.866,37.46c-1.205,4.821-0.909,9.896,0.848,14.545c0.61,1.743,1.73,3.263,3.214,4.361
				c4.031,2.219,14.835-0.942,21.295-2.83c3.054-0.893,5.871-1.705,8.245-2.21l1.241-0.263c12.553-2.656,25.531-5.406,38.71-7.022
				c11.147-1.116,22.066-3.891,32.393-8.232C513.38,278.567,516.045,265.357,504.277,240.129z M319.367,150.661
				c0,22.723-18.42,41.143-41.143,41.143s-41.143-18.42-41.143-41.143c0-22.723,18.42-41.143,41.143-41.143
				C300.936,109.542,319.342,127.948,319.367,150.661z M223.367,18.089c17.673,0,32,14.327,32,32s-14.327,32-32,32s-32-14.327-32-32
				C191.388,32.425,205.702,18.11,223.367,18.089z M127.367,123.232c0-22.723,18.42-41.143,41.143-41.143
				c22.723,0,41.143,18.42,41.143,41.143c0,22.723-18.42,41.143-41.143,41.143C145.797,164.35,127.392,145.944,127.367,123.232z
				 M361.35,211.652c-0.558,3.219-2.792,5.896-5.859,7.022c-6.859,2.485-13.847,4.602-20.932,6.342
				c22.17,38.426,13.556,87.222-20.43,115.735c-33.987,28.513-83.537,28.513-117.524,0.001s-42.602-77.308-20.432-115.734
				c-7.085-1.74-14.072-3.857-20.931-6.343c-3.067-1.126-5.3-3.803-5.859-7.022c-0.558-3.219,0.643-6.492,3.152-8.585
				c2.509-2.093,5.943-2.689,9.011-1.563c6.335,2.299,12.791,4.252,19.339,5.848c7.071,1.755,14.643,3.259,22.5,4.478
				c8.031,1.246,16.451,2.205,25.027,2.848c17.946,1.321,35.965,1.321,53.911,0c8.576-0.643,16.996-1.603,25.027-2.848
				c7.857-1.219,15.429-2.723,22.496-4.478c6.55-1.596,13.007-3.548,19.344-5.848c3.067-1.126,6.502-0.53,9.01,1.563
				C360.707,205.161,361.909,208.433,361.35,211.652z M328.51,109.518c-20.198,0-36.571-16.374-36.571-36.571
				c0-20.198,16.374-36.571,36.571-36.571s36.571,16.374,36.571,36.571C365.058,93.135,348.698,109.495,328.51,109.518z"/>
			<circle cx="328.51" cy="72.946" r="18.286"/>
			<path d="M113.652,484.165c-10.692,0.043-19.934,7.473-22.273,17.906c1.084,0.544,2.256,1.087,3.555,1.625
				c10.569,4.127,21.706,6.615,33.027,7.379l4.679,0.259c1.128,0.071,2.262,0.049,3.393,0.091c1.403-6.709-0.311-13.693-4.66-18.991
				C127.022,487.138,120.506,484.096,113.652,484.165z"/>
			<path d="M310.152,229.902c-8.505,1.317-17.411,2.33-26.464,3.009c-9.272,0.697-18.799,1.049-28.321,1.049
				c-9.522,0-19.049-0.353-28.321-1.049c-9.054-0.678-17.96-1.692-26.464-3.009c-1.798-0.279-3.521-0.628-5.29-0.936
				c-8.562,12.164-13.129,26.69-13.067,41.565c0,40.396,32.747,73.143,73.143,73.143s73.143-32.747,73.143-73.143
				c0.062-14.875-4.505-29.401-13.067-41.565C313.673,229.273,311.95,229.623,310.152,229.902z M255.367,325.388
				c-20.198,0-36.571-16.374-36.571-36.571c0-20.198,16.374-36.571,36.571-36.571c20.198,0,36.571,16.374,36.571,36.571
				C291.915,309.005,275.555,325.365,255.367,325.388z"/>
		</g>
	</g>
</g>
<g>
</g>
<g>
</g>
<g>
</g>
<g>
</g>
<g>
</g>
<g>
</g>
<g>
</g>
<g>
</g>
<g>
</g>
<g>
</g>
<g>
</g>
<g>
</g>
<g>
</g>
<g>
</g>
<g>
</g>
</svg>
