<?xml version="1.0" encoding="iso-8859-1"?>
<!-- Generator: Adobe Illustrator 19.0.0, SVG Export Plug-In . SVG Version: 6.00 Build 0)  -->
<svg version="1.1" id="Capa_1" xmlns="http://www.w3.org/2000/svg" xmlns:xlink="http://www.w3.org/1999/xlink" x="0px" y="0px"
	 viewBox="0 0 512.033 512.033" style="enable-background:new 0 0 512.033 512.033;" xml:space="preserve">
<g>
	<g>
		<g>
			<path d="M137.163,462.845c-24.503,0-45.44,29.897-45.714,37.211c1.006,3.2,16.64,11.977,45.714,11.977
				c28.8,0,44.434-8.686,45.714-12.069c-0.024-0.341-0.086-0.678-0.183-1.006C180.683,490.091,160.569,462.845,137.163,462.845z"/>
			<path d="M366.283,104.993c3.43-5.178,7.349-10.016,11.703-14.446c0.07-0.164,0.163-0.318,0.274-0.457
				c0.091-0.091,0.274-0.091,0.366-0.183c6.209-6.409,13.477-11.698,21.486-15.634c-3.605-2.76-7.026-5.753-10.24-8.96
				c-3.124-3.174-6.055-6.532-8.777-10.057c-6.959,13.812-17.507,25.497-30.537,33.829c2.027,3.197,4.386,6.169,7.04,8.869
				C360.252,100.582,363.161,102.941,366.283,104.993z"/>
			<path d="M106.809,52.422c19.109-19.2,23.863-41.234,16.183-48.914c-2.811-2.482-6.499-3.733-10.24-3.474
				C98.005,1.65,84.384,8.689,74.534,19.782c-19.109,19.2-23.863,41.234-16.183,48.914c2.775,2.481,6.435,3.734,10.149,3.474
				C83.268,70.538,96.912,63.505,106.809,52.422z"/>
			<path d="M109.552,74.273c13.813,7.006,25.472,17.621,33.737,30.72c3.168-2.028,6.11-4.388,8.777-7.04
				c2.653-2.699,5.013-5.672,7.04-8.869c-3.291-2.194-6.309-4.571-9.234-6.949c-0.377-0.255-0.716-0.563-1.006-0.914
				c-8.47-7.177-15.378-16.014-20.297-25.966c-2.722,3.525-5.653,6.883-8.777,10.057C116.557,68.498,113.138,71.49,109.552,74.273z"
				/>
			<path d="M176.477,386.411c-5.76-2.377-11.337-5.029-16.731-7.863L148.5,412.559c-1.624,4.995-1.845,10.339-0.64,15.451
				l4.754,18.926c7.922,2.547,15.301,6.547,21.76,11.794l-8.777-35.2c-0.442-1.688-0.379-3.468,0.183-5.12L176.477,386.411z"/>
			<path d="M41.437,311.256c-0.366-0.091-0.549-0.274-0.914-0.366c-0.598-0.158-1.18-0.372-1.737-0.64
				c-0.491-0.251-0.951-0.558-1.371-0.914c-0.469-0.347-0.899-0.746-1.28-1.189c-0.386-0.418-0.723-0.878-1.006-1.371
				c-0.298-0.491-0.543-1.012-0.731-1.554c-0.195-0.536-0.348-1.086-0.457-1.646c0-0.366-0.183-0.549-0.183-0.914l-2.377-45.257
				c-0.178-3.44,1.588-6.689,4.571-8.411l28.343-16.366c-0.091-1.646-0.274-3.291-0.274-4.937c0-5.486,0.366-10.971,0.914-16.457
				l-47.909,27.611c-2.988,1.663-4.737,4.91-4.48,8.32l4.48,86.674c0.037,0.781,0.191,1.551,0.457,2.286
				c0.091,0.274,0.091,0.549,0.183,0.823c0.05,0.286,0.142,0.564,0.274,0.823c0.602,3.831,1.904,7.52,3.84,10.88
				c5.924,12.549,20.809,18.04,33.463,12.343c5.252-3.133,8.862-8.415,9.874-14.446c1.301-7.155-0.065-14.539-3.84-20.754
				C57.176,318.22,49.895,312.884,41.437,311.256z"/>
			<path d="M337.666,458.731c6.459-5.248,13.838-9.247,21.76-11.794l4.754-18.926c1.205-5.112,0.984-10.457-0.64-15.452
				l-11.246-34.011c-5.394,2.834-10.971,5.486-16.731,7.863l10.697,32c0.562,1.652,0.625,3.432,0.183,5.12L337.666,458.731z"/>
			<path d="M374.877,462.845c-11.767,0.815-22.784,6.078-30.811,14.72c-6.514,5.881-11.556,13.209-14.72,21.394
				c-0.097,0.328-0.159,0.665-0.183,1.006c1.28,3.383,16.914,12.069,45.714,12.069c29.074,0,44.709-8.777,45.714-12.16
				C420.317,492.742,399.38,462.845,374.877,462.845z"/>
			<path d="M435.129,19.782C425.244,8.684,411.594,1.647,396.82,0.033c-3.711-0.243-7.365,1.008-10.149,3.474
				c-7.68,7.68-2.926,29.714,16.183,48.914c9.884,11.099,23.534,18.136,38.309,19.749c3.711,0.243,7.365-1.008,10.149-3.474
				C458.992,61.016,454.237,38.982,435.129,19.782z"/>
			<path d="M495.014,238.845l-47.909-27.611c0.549,5.486,0.914,10.971,0.914,16.457c0,1.646-0.183,3.292-0.274,4.937l28.343,16.366
				c2.953,1.751,4.709,4.981,4.571,8.411l-2.377,45.257c-0.091,0.366-0.183,0.549-0.274,0.914c-0.078,0.557-0.2,1.108-0.366,1.646
				c-0.274,0.549-0.457,1.097-0.731,1.554c-0.283,0.494-0.62,0.954-1.006,1.371c-0.381,0.443-0.811,0.841-1.28,1.189
				c-0.435,0.336-0.894,0.642-1.371,0.914c-0.558,0.268-1.139,0.482-1.737,0.64c-0.311,0.106-0.616,0.228-0.914,0.366
				c-8.472,1.648-15.774,6.974-19.931,14.537c-3.706,6.242-5.037,13.611-3.749,20.754c1.012,6.031,4.623,11.313,9.874,14.446
				c12.654,5.682,27.529,0.196,33.463-12.343c1.936-3.361,3.238-7.049,3.84-10.88c0.05-0.286,0.142-0.564,0.274-0.823
				c0.091-0.274,0-0.549,0.091-0.823c0.334-0.717,0.521-1.495,0.549-2.286l4.48-86.674
				C499.71,243.764,497.973,240.537,495.014,238.845z"/>
			<path d="M377.62,121.725c-0.234,0.289-0.448,0.595-0.64,0.914c-0.241,0.251-0.456,0.527-0.64,0.823
				c-0.353,0.383-0.752,0.721-1.188,1.006c-0.257,0.235-0.532,0.449-0.823,0.64c-0.439,0.25-0.898,0.464-1.371,0.64
				c-0.298,0.138-0.603,0.26-0.914,0.366c-0.655,0.181-1.332,0.273-2.011,0.274c-0.183,0-0.274,0.091-0.457,0.091
				c-1.135-0.023-2.253-0.272-3.291-0.731c-0.128,0.004-0.255-0.028-0.366-0.091l-0.549-0.274h-0.183v-0.091
				c-7.684-3.515-14.657-8.411-20.571-14.446c-5.951-5.945-10.783-12.913-14.263-20.571h-0.091v-0.091
				c-0.091-0.274-0.274-0.457-0.366-0.731c-0.126-0.419-0.217-0.847-0.274-1.28c-0.201-0.591-0.323-1.206-0.366-1.829
				c0.011-0.583,0.072-1.164,0.183-1.737c0.039-0.586,0.131-1.167,0.274-1.737c0.507-1.046,1.087-2.054,1.737-3.017
				c0.415-0.415,0.875-0.783,1.371-1.097c0.366-0.274,0.64-0.731,1.097-0.914c1.737-1.006,3.291-2.195,4.937-3.2
				c-51.87-29.272-115.338-28.994-166.949,0.731c1.371,0.731,2.469,1.646,3.84,2.469c0.457,0.183,0.731,0.64,1.098,0.914
				c0.479,0.337,0.937,0.704,1.371,1.097c0.651,0.963,1.231,1.971,1.737,3.017c0.143,0.57,0.235,1.151,0.274,1.737
				c0.111,0.573,0.172,1.154,0.183,1.737c-0.091,0.549-0.274,1.189-0.366,1.829c-0.183,0.366-0.091,0.823-0.274,1.28
				c-0.183,0.274-0.274,0.457-0.457,0.731v0.091c-3.49,7.653-8.32,14.619-14.263,20.571c-5.915,6.034-12.888,10.931-20.573,14.446
				c-0.024-0.001-0.048,0.009-0.065,0.026c-0.017,0.017-0.027,0.041-0.026,0.065h-0.091l-0.549,0.274
				c-0.14,0.074-0.299,0.106-0.457,0.091c-1.003,0.468-2.094,0.718-3.2,0.731c-0.154-0.021-0.307-0.052-0.457-0.091
				c-0.68,0.005-1.357-0.087-2.011-0.274c-0.311-0.106-0.616-0.228-0.914-0.366c-0.504-0.175-0.993-0.389-1.463-0.64
				c-0.274-0.183-0.549-0.457-0.823-0.64c-0.388-0.31-0.755-0.646-1.097-1.006c-0.264-0.266-0.48-0.575-0.64-0.914
				c-0.183-0.274-0.457-0.549-0.64-0.823c-1.78-3.124-3.734-6.146-5.851-9.051c-27.064,32.361-42.514,72.853-43.885,115.017
				c0,86.217,77.897,156.343,173.714,156.343s173.714-70.126,173.714-156.343c-1.398-42.899-17.36-84.044-45.257-116.663
				C381.92,114.412,379.628,117.988,377.62,121.725z M265.163,338.319h-18.286c-5.049,0-9.143-4.093-9.143-9.143
				s4.093-9.143,9.143-9.143h18.286c5.049,0,9.143,4.093,9.143,9.143S270.212,338.319,265.163,338.319z M301.734,301.748h-91.429
				c-5.049,0-9.143-4.093-9.143-9.143c0-5.049,4.093-9.143,9.143-9.143h91.429c5.049,0,9.143,4.093,9.143,9.143
				C310.877,297.654,306.784,301.748,301.734,301.748z M256.02,264.536c-50.495,0-91.429-40.934-91.429-91.429
				c0-50.495,40.934-91.429,91.429-91.429s91.429,40.934,91.429,91.429C347.366,223.568,306.48,264.453,256.02,264.536z"/>
			<path d="M256.02,99.965c-40.396,0-73.143,32.747-73.143,73.143s32.747,73.143,73.143,73.143s73.143-32.747,73.143-73.143
				C329.109,132.734,296.394,100.018,256.02,99.965z M256.02,219.005c-18.607,0.093-35.433-11.047-42.614-28.213
				c-7.181-17.166-3.298-36.969,9.833-50.152c13.131-13.184,32.918-17.145,50.113-10.033c17.195,7.112,28.401,23.894,28.383,42.501
				C301.772,198.4,281.313,218.942,256.02,219.005z"/>
			<path d="M256.02,145.405c-11.203-0.093-21.356,6.582-25.712,16.904c-4.356,10.322-2.055,22.252,5.828,30.214
				c7.883,7.961,19.789,10.381,30.154,6.128c10.365-4.253,17.14-14.339,17.159-25.542
				C283.491,157.897,271.23,145.514,256.02,145.405z"/>
		</g>
	</g>
</g>
<g>
</g>
<g>
</g>
<g>
</g>
<g>
</g>
<g>
</g>
<g>
</g>
<g>
</g>
<g>
</g>
<g>
</g>
<g>
</g>
<g>
</g>
<g>
</g>
<g>
</g>
<g>
</g>
<g>
</g>
</svg>
