<?xml version="1.0" encoding="iso-8859-1"?>
<!-- Generator: Adobe Illustrator 19.0.0, SVG Export Plug-In . SVG Version: 6.00 Build 0)  -->
<svg version="1.1" id="Capa_1" xmlns="http://www.w3.org/2000/svg" xmlns:xlink="http://www.w3.org/1999/xlink" x="0px" y="0px"
	 viewBox="0 0 512 512" style="enable-background:new 0 0 512 512;" xml:space="preserve">
<g>
	<g>
		<g>
			<path d="M201.143,146.286c13.654,1.269,25.828-8.586,27.429-22.205c0-12.598-17.83-32.652-32.652-32.652
				c-13.554,0-22.205,19.339-22.205,32.652C175.315,137.7,187.489,147.555,201.143,146.286z M192.183,117.027
				c0.098-0.573,0.282-1.129,0.545-1.647c0.202-0.582,0.48-1.134,0.826-1.643c0.366-0.46,0.732-0.915,1.098-1.371
				c0.888-0.808,1.907-1.459,3.013-1.924c3.406-1.433,7.341-0.674,9.969,1.924c0.394,0.433,0.759,0.89,1.094,1.371
				c0.346,0.509,0.624,1.061,0.826,1.643c0.263,0.519,0.448,1.074,0.549,1.647c0.101,0.606,0.162,1.217,0.183,1.831
				c0.024,2.432-0.932,4.771-2.652,6.491s-4.059,2.675-6.491,2.652c-1.196-0.014-2.378-0.263-3.478-0.732
				c-1.106-0.465-2.125-1.114-3.013-1.92c-1.67-1.752-2.617-4.07-2.652-6.491C192.019,118.244,192.08,117.632,192.183,117.027z"/>
			<path d="M356.572,466.286h-54.857c-10.095,0.01-18.276,8.191-18.286,18.286V512h9.143v-9.143c0-5.049,4.093-9.143,9.143-9.143
				s9.143,4.093,9.143,9.143V512H320v-9.143c0-5.049,4.093-9.143,9.143-9.143c5.049,0,9.143,4.093,9.143,9.143V512h9.143v-9.143
				c0-5.049,4.093-9.143,9.143-9.143c5.049,0,9.143,4.093,9.143,9.143V512h9.143v-27.429
				C374.847,474.477,366.666,466.296,356.572,466.286z"/>
			<path d="M320,325.244v46.046c0.001,0.58-0.055,1.159-0.165,1.728L305.406,448h47.474l-14.429-74.982
				c-0.111-0.569-0.166-1.148-0.165-1.728v-53.249C332.443,321.038,326.318,323.451,320,325.244z"/>
			<path d="M256,295.127c-3.907,5.867-8.611,11.161-13.978,15.73h27.956C264.611,306.288,259.907,300.994,256,295.127z"/>
			<path d="M210.286,466.286h-54.857c-10.095,0.01-18.276,8.191-18.286,18.286V512h9.143v-9.143c0-5.049,4.093-9.143,9.143-9.143
				c5.049,0,9.143,4.093,9.143,9.143V512h9.143v-9.143c0-5.049,4.093-9.143,9.143-9.143c5.049,0,9.143,4.093,9.143,9.143V512h9.143
				v-9.143c0-5.049,4.093-9.143,9.143-9.143s9.143,4.093,9.143,9.143V512h9.156l-0.013-27.429
				C228.562,474.477,220.381,466.296,210.286,466.286z"/>
			<path d="M173.715,318.041v53.249c0.001,0.58-0.055,1.159-0.165,1.728L159.12,448h47.474l-14.429-74.982
				c-0.111-0.569-0.166-1.148-0.165-1.728v-46.046C185.683,323.451,179.558,321.038,173.715,318.041z"/>
			<path d="M276.79,0h-41.579C243.8,9.033,250.825,19.432,256,30.772C261.175,19.432,268.201,9.033,276.79,0z"/>
			<path d="M329.143,0h-24.689c-24.117,16.629-38.749,43.854-39.311,73.143c0,5.049-4.093,9.143-9.143,9.143
				s-9.143-4.093-9.143-9.143C246.294,43.855,231.663,16.631,207.549,0h-24.691c-25.235,0.03-45.685,20.479-45.714,45.714v182.857
				c0.065,41.659,31.223,76.713,72.587,81.661c9.677-4.661,37.127-20.078,37.127-45.09c0-5.049,4.093-9.143,9.143-9.143
				s9.143,4.093,9.143,9.143c0,25.012,27.45,40.429,37.127,45.09c41.365-4.949,72.523-40.002,72.587-81.661V45.714
				C374.828,20.479,354.378,0.03,329.143,0z M307.964,37.04c27.652-9.219,43.25,4.946,47.643,13.728
				c2.244,4.488,0.452,9.945-4.015,12.23c-4.467,2.284-9.941,0.542-12.266-3.904c-0.705-1.259-6.902-10.933-25.576-4.705
				c-4.791,1.598-9.969-0.991-11.567-5.781S303.174,38.638,307.964,37.04z M156.393,50.768c4.393-8.781,19.991-22.937,47.643-13.728
				c3.099,1.034,5.411,3.642,6.066,6.842c0.654,3.201-0.448,6.507-2.893,8.674c-2.445,2.167-5.859,2.865-8.958,1.832
				c-19.665-6.571-25.451,4.446-25.5,4.558c-2.265,4.504-7.749,6.325-12.258,4.07C155.983,60.762,154.149,55.282,156.393,50.768z
				 M195.92,73.143c25.755,0,50.938,29.165,50.938,50.938c-1.554,23.75-21.95,41.816-45.714,40.491
				c-23.764,1.325-44.16-16.741-45.714-40.491C155.429,102.723,169.5,73.143,195.92,73.143z M265.143,237.714h-18.286
				c-5.049,0-9.143-4.093-9.143-9.143c0-5.049,4.093-9.143,9.143-9.143h18.286c5.049,0,9.143,4.093,9.143,9.143
				C274.286,233.621,270.193,237.714,265.143,237.714z M356.572,219.429c0,5.049-4.093,9.143-9.143,9.143
				c-5.049,0-9.143-4.093-9.143-9.143v-9.143c-0.007-5.047-4.096-9.136-9.143-9.143H182.857c-5.047,0.007-9.136,4.096-9.143,9.143
				v9.143c0,5.049-4.093,9.143-9.143,9.143s-9.143-4.093-9.143-9.143v-9.143c0.016-15.142,12.287-27.412,27.429-27.429h146.286
				c15.141,0.016,27.412,12.287,27.429,27.429V219.429z M310.857,164.571c-23.764,1.325-44.16-16.741-45.714-40.491
				c0-21.772,25.183-50.938,50.938-50.938c26.42,0,40.491,29.58,40.491,50.938C355.017,147.831,334.622,165.896,310.857,164.571z"/>
			<path d="M316.081,91.429c-14.821,0-32.652,20.054-32.652,32.652c1.601,13.619,13.774,23.475,27.429,22.205
				c13.654,1.269,25.828-8.586,27.429-22.205C338.286,110.768,329.634,91.429,316.081,91.429z M317.349,125.348L317.349,125.348
				c-1.754,1.669-4.071,2.616-6.491,2.652c-1.196-0.014-2.377-0.263-3.478-0.732c-1.117-0.443-2.14-1.094-3.013-1.92
				c-0.808-0.889-1.459-1.91-1.924-3.018c-0.467-1.099-0.714-2.279-0.728-3.473c0.034-2.421,0.981-4.739,2.651-6.491
				c0.872-0.828,1.895-1.481,3.013-1.924c3.407-1.433,7.341-0.674,9.969,1.924C320.885,115.971,320.885,121.743,317.349,125.348z"/>
			<path d="M452.567,286.299c-0.969-6.446-2.116-12.86-3.442-19.241l-0.616-2.946c-4.244-23.592-12.341-46.324-23.969-67.286
				c-8.701-14.417-19.257-27.629-31.397-39.298v31.092c18.004,22.513,25.667,51.581,21.103,80.045
				c-0.986,9.213-2.942,18.296-5.835,27.098c-1.058,3.156-2.362,6.223-3.674,9.286c-1.91,4.006-3.374,8.21-4.366,12.536
				c-0.673,7.054,0.835,14.144,4.321,20.313c0.676,1.48,1.597,3.484,2.665,5.653c6.591-10.554,11.135-22.256,13.393-34.492
				c0.994-4.951,5.813-8.159,10.763-7.165c4.951,0.994,8.159,5.813,7.165,10.763c-1.777,8.849-7.677,33.229-20.167,45.633
				c6.821-0.108,13.344-2.817,18.234-7.575C456.398,334.013,455.094,303.188,452.567,286.299z"/>
			<path d="M87.46,196.826c-11.56,20.806-19.621,43.37-23.862,66.79l-0.719,3.433c-1.33,6.388-2.479,12.805-3.447,19.25
				c-2.527,16.888-3.83,47.714,15.821,64.411c4.875,4.781,11.407,7.497,18.235,7.58c-12.49-12.403-18.391-36.785-20.168-45.634
				c-0.977-4.943,2.229-9.745,7.169-10.738c4.94-0.993,9.752,2.198,10.76,7.135c2.167,12.269,6.72,23.994,13.4,34.511
				c0.965-1.964,1.77-3.725,2.336-4.966c3.667-6.362,5.288-13.698,4.643-21.013c-0.992-4.326-2.456-8.53-4.366-12.536
				c-1.312-3.063-2.616-6.129-3.674-9.286c-2.893-8.802-4.849-17.885-5.835-27.098c-4.565-28.464,3.099-57.532,21.103-80.045
				v-31.092C106.717,169.197,96.161,182.409,87.46,196.826z"/>
		</g>
	</g>
</g>
<g>
</g>
<g>
</g>
<g>
</g>
<g>
</g>
<g>
</g>
<g>
</g>
<g>
</g>
<g>
</g>
<g>
</g>
<g>
</g>
<g>
</g>
<g>
</g>
<g>
</g>
<g>
</g>
<g>
</g>
</svg>
