<?xml version="1.0" encoding="iso-8859-1"?>
<!-- Generator: Adobe Illustrator 19.0.0, SVG Export Plug-In . SVG Version: 6.00 Build 0)  -->
<svg version="1.1" id="Capa_1" xmlns="http://www.w3.org/2000/svg" xmlns:xlink="http://www.w3.org/1999/xlink" x="0px" y="0px"
	 viewBox="0 0 511.992 511.992" style="enable-background:new 0 0 511.992 511.992;" xml:space="preserve">
<g>
	<g>
		<g>
			<path d="M457.862,0.723c-0.959-0.76-2.257-0.936-3.383-0.457c0,0-1.097,0.457-1.097,0.914
				c-0.366,33.28-14.72,56.229-40.229,65.554c35.657,26.789,58.149,62.446,61.623,101.303c19.209-12.3,32.427-32.045,36.48-54.491
				C517.199,70.118,480.353,24.22,457.862,0.723z"/>
			<path d="M351.896,265.135c-7.574,0-13.714,6.14-13.714,13.714c0,7.574,6.14,13.714,13.714,13.714
				c7.574,0,13.714-6.14,13.714-13.714c0.005-3.639-1.438-7.13-4.011-9.703C359.026,266.573,355.535,265.13,351.896,265.135z"/>
			<path d="M142.982,495.718c1.037,9.266,8.871,16.273,18.194,16.274h39.589c7.336,0.004,13.978-4.34,16.914-11.063l0.457-1.189
				c-28.266-4.275-55.099-15.247-78.263-32L142.982,495.718z"/>
			<path d="M294.113,500.838c2.896,6.77,9.551,11.159,16.914,11.154h39.589c9.324-0.001,17.157-7.009,18.194-16.274l3.109-27.977
				c-23.164,16.753-49.997,27.725-78.263,32L294.113,500.838z"/>
			<path d="M98.639,66.643c-25.326-9.417-39.68-32.274-40.046-65.554c0-0.366-1.097-0.823-1.097-0.823
				c-1.127-0.475-2.422-0.299-3.383,0.457C31.622,24.22-5.133,70.118,0.719,113.546c4.072,22.342,17.211,42.001,36.297,54.309
				C40.307,129.089,62.89,93.432,98.639,66.643z"/>
			<path d="M449.245,242.043c1.273-2.065,3.324-3.529,5.691-4.063c0.183-0.091,0.457,0,0.64-0.091
				c1.712-19.638,2.2-39.364,1.463-59.063c0-64.549-61.349-120.777-149.12-137.417c-0.183,0-0.366-0.183-0.549-0.183
				c-0.274-0.091-0.549-0.091-0.823-0.183c-0.335-0.128-0.644-0.313-0.914-0.549c-0.57-0.248-1.095-0.588-1.554-1.006
				c-0.469-0.348-0.899-0.746-1.28-1.189c-0.365-0.435-0.701-0.893-1.006-1.371c-0.268-0.526-0.483-1.077-0.64-1.646
				c-0.207-0.532-0.36-1.083-0.457-1.646c-0.092-0.606-0.092-1.222,0-1.829c-0.046-0.364-0.046-0.733,0-1.097
				c0-0.183,0.183-0.366,0.274-0.64s0-0.457,0.091-0.731c2.498-6.839,5.461-13.498,8.869-19.931
				c-16.784,1.632-32.685,8.292-45.623,19.109c1.463,12.983,5.12,24.229,12.8,26.789c4.767,1.65,7.33,6.818,5.76,11.611
				c-1.249,3.73-4.752,6.238-8.686,6.217c-0.991-0.025-1.974-0.179-2.926-0.457C245.93,64.175,244.285,25.5,245.473,3.74
				c-31.269,14.171-44.8,53.577-44.891,54.034c-1.033,3.119-3.656,5.446-6.876,6.1c-3.22,0.654-6.543-0.466-8.711-2.934
				c-2.168-2.469-2.849-5.909-1.784-9.018c0.183-0.457,1.006-2.834,2.469-6.4c-77.897,20.48-130.926,73.143-130.926,132.754
				c-0.736,19.882-0.248,39.79,1.463,59.611c0.274,0.091,0.458,0,0.64,0.091c2.366,0.534,4.417,1.998,5.691,4.063
				c1.273,2.065,1.661,4.555,1.075,6.909c-1.646,7.223-15.543,63.817-39.04,88.594c10.057,4.48,28.16,7.68,52.937-7.131
				c2.809-1.666,6.294-1.707,9.142-0.108c2.848,1.6,4.625,4.597,4.663,7.864c0.038,3.266-1.669,6.304-4.479,7.97
				c-11.074,6.956-23.516,11.446-36.48,13.166c2.825,14.001,3.197,28.386,1.097,42.514c11.435-1.84,21.805-7.789,29.166-16.731
				c4.666-5.27,8.602-11.144,11.703-17.463c1.46-2.925,4.374-4.845,7.637-5.032s6.378,1.388,8.162,4.127s1.965,6.224,0.475,9.133
				c-2.818,5.737-6.186,11.188-10.057,16.274c34.377,61.257,87.223,92.434,157.349,92.434s122.971-31.177,157.349-92.434
				c-3.859-5.095-7.226-10.544-10.057-16.274c-1.49-2.91-1.309-6.394,0.475-9.133s4.898-4.314,8.162-4.127
				c3.264,0.187,6.177,2.107,7.637,5.032c3.081,6.281,6.985,12.123,11.611,17.371c7.392,8.968,17.788,14.946,29.257,16.823
				c-2.099-14.128-1.728-28.513,1.097-42.514c-12.964-1.719-25.406-6.21-36.48-13.166c-4.342-2.576-5.774-8.183-3.199-12.525
				c2.575-4.342,8.182-5.775,12.525-3.201c24.686,14.811,42.789,11.611,52.937,7.131c-23.497-24.869-37.394-81.371-39.04-88.594
				C447.585,246.598,447.972,244.108,449.245,242.043z M402.182,146.278c-0.015,5.043-4.1,9.128-9.143,9.143
				c-0.274,0-33.829,1.097-75.794,43.063c-3.606,3.535-9.377,3.535-12.983,0c-3.565-3.593-3.565-9.39,0-12.983
				c47.909-47.817,87.131-48.366,88.777-48.366C398.082,137.15,402.167,141.234,402.182,146.278z M201.039,91.42h109.714
				c5.049,0,9.143,4.093,9.143,9.143c0,5.049-4.093,9.143-9.143,9.143H201.039c-5.049,0-9.143-4.093-9.143-9.143
				C191.896,95.514,195.989,91.42,201.039,91.42z M274.182,201.135c5.049,0,9.143,4.093,9.143,9.143
				c0,5.049-4.093,9.143-9.143,9.143c-6.771-0.017-13.291-2.56-18.286-7.131c-4.995,4.571-11.515,7.114-18.286,7.131
				c-5.049,0-9.143-4.093-9.143-9.143c0-5.049,4.093-9.143,9.143-9.143c5.043-0.015,9.128-4.1,9.143-9.143v-45.714h-18.286
				c-5.049,0-9.143-4.093-9.143-9.143c0-5.049,4.093-9.143,9.143-9.143h54.857c5.049,0,9.143,4.093,9.143,9.143
				c0,5.049-4.093,9.143-9.143,9.143h-18.286v45.714C265.054,197.035,269.138,201.12,274.182,201.135z M118.753,137.135
				c1.646,0,40.869,0.549,88.777,48.366c3.566,3.593,3.566,9.39,0,12.983c-3.606,3.535-9.377,3.535-12.983,0
				c-41.966-41.966-75.52-43.063-75.886-43.063c-5.049-0.025-9.122-4.139-9.097-9.189
				C109.59,141.182,113.704,137.109,118.753,137.135z M91.325,255.992c0-54.857,36.389-54.857,68.571-54.857
				c37.669,0,66.103,48.183,67.291,50.286c0.836,1.378,1.279,2.959,1.28,4.571c0,30.263-30.72,54.857-68.571,54.857
				S91.325,286.255,91.325,255.992z M255.896,447.901c-38.766,0-71.497-25.509-71.497-55.589c0-63.177,37.943-63.177,71.497-63.177
				c33.554,0,71.497,0,71.497,63.177C327.393,422.392,294.662,447.901,255.896,447.901z M351.896,310.849
				c-37.851,0-68.571-24.594-68.571-54.857c0.001-1.612,0.444-3.193,1.28-4.571c1.189-2.103,29.623-50.286,67.291-50.286
				c32.183,0,68.571,0,68.571,54.857C420.467,286.255,389.747,310.849,351.896,310.849z"/>
			<path d="M159.896,265.135c-7.574,0-13.714,6.14-13.714,13.714c0,7.574,6.14,13.714,13.714,13.714
				c7.574,0,13.714-6.14,13.714-13.714c0.005-3.639-1.438-7.13-4.011-9.703C167.026,266.573,163.535,265.13,159.896,265.135z"/>
			<path d="M291.462,388.106c-1.481,2.967-4.458,4.893-7.771,5.029h-0.366c-3.233,0.018-6.23-1.69-7.863-4.48l-19.566-32.64
				l-19.566,32.64c-1.729,2.873-4.877,4.587-8.229,4.48c-3.313-0.135-6.29-2.062-7.771-5.029l-12.617-25.143
				c-3.878,9.276-5.597,19.311-5.029,29.349c0,17.554,22.766,37.303,53.211,37.303c30.446,0,53.211-19.749,53.211-37.303
				c0.568-10.037-1.151-20.073-5.029-29.349L291.462,388.106z"/>
			<path d="M289.816,350.529c-5.712-1.8-11.657-2.754-17.646-2.834l10.423,17.28L289.816,350.529z"/>
			<path d="M239.622,347.695c-5.989,0.08-11.933,1.035-17.646,2.834l7.223,14.446L239.622,347.695z"/>
			<path d="M351.896,219.42c-21.303,0-42.24,26.331-50.194,38.949c1.661,11.185,8.65,20.867,18.743,25.966
				c-0.318-1.813-0.502-3.646-0.549-5.486c0-17.673,14.327-32,32-32s32,14.327,32,32c-0.042,1.9-0.226,3.795-0.549,5.669
				c10.914-5.471,18.09-16.34,18.834-28.526C402.182,220.792,387.645,219.42,351.896,219.42z"/>
			<path d="M159.896,219.42c-35.749,0-50.286,1.371-50.286,36.571c0.744,12.186,7.92,23.054,18.834,28.526
				c-0.323-1.873-0.506-3.768-0.549-5.669c0-17.673,14.327-32,32-32s32,14.327,32,32c-0.047,1.84-0.23,3.673-0.549,5.486
				c10.093-5.099,17.082-14.781,18.743-25.966C202.045,245.752,181.107,219.42,159.896,219.42z"/>
		</g>
	</g>
</g>
<g>
</g>
<g>
</g>
<g>
</g>
<g>
</g>
<g>
</g>
<g>
</g>
<g>
</g>
<g>
</g>
<g>
</g>
<g>
</g>
<g>
</g>
<g>
</g>
<g>
</g>
<g>
</g>
<g>
</g>
</svg>
