<?xml version="1.0" encoding="iso-8859-1"?>
<!-- Generator: Adobe Illustrator 19.0.0, SVG Export Plug-In . SVG Version: 6.00 Build 0)  -->
<svg version="1.1" id="Capa_1" xmlns="http://www.w3.org/2000/svg" xmlns:xlink="http://www.w3.org/1999/xlink" x="0px" y="0px"
	 viewBox="0 0 512.079 512.079" style="enable-background:new 0 0 512.079 512.079;" xml:space="preserve">
<g>
	<g>
		<g>
			<path d="M256.039,237.662c5.049,0,9.143-4.093,9.143-9.143c-0.015-5.043-4.1-9.128-9.143-9.143c-5.049,0-9.143,4.093-9.143,9.143
				C246.896,233.569,250.99,237.662,256.039,237.662z"/>
			<path d="M146.325,274.234c-5.049,0-9.143,4.093-9.143,9.143s4.093,9.143,9.143,9.143c5.049,0,9.143-4.093,9.143-9.143
				C155.453,278.333,151.368,274.249,146.325,274.234z"/>
			<path d="M356.611,210.234c0,10.099,8.187,18.286,18.286,18.286c10.099,0,18.286-8.187,18.286-18.286
				c-0.029-10.087-8.199-18.256-18.286-18.286C364.797,191.948,356.611,200.135,356.611,210.234z"/>
			<path d="M256.039,127.948c25.247,0,45.714-20.467,45.714-45.714c-0.009-25.244-20.471-45.705-45.714-45.714
				c-25.247,0-45.714,20.467-45.714,45.714S230.792,127.948,256.039,127.948z M256.039,54.805c15.148,0,27.429,12.28,27.429,27.429
				c-0.044,15.13-12.299,27.384-27.429,27.429c-15.148,0-27.429-12.28-27.429-27.429S240.891,54.805,256.039,54.805z"/>
			<path d="M256.039,274.234c25.247,0,45.714-20.467,45.714-45.714c-0.009-25.243-20.471-45.705-45.714-45.714
				c-25.247,0-45.714,20.467-45.714,45.714C210.325,253.767,230.792,274.234,256.039,274.234z M256.039,201.091
				c15.148,0,27.429,12.28,27.429,27.429c-0.044,15.13-12.299,27.384-27.429,27.429c-15.148,0-27.429-12.28-27.429-27.429
				C228.611,213.371,240.891,201.091,256.039,201.091z"/>
			<path d="M256.039,91.376c5.049,0,9.143-4.093,9.143-9.143c-0.015-5.043-4.1-9.128-9.143-9.143c-5.049,0-9.143,4.093-9.143,9.143
				C246.896,87.283,250.99,91.376,256.039,91.376z"/>
			<path d="M365.753,274.234c-5.049,0-9.143,4.093-9.143,9.143s4.093,9.143,9.143,9.143s9.143-4.093,9.143-9.143
				C374.881,278.333,370.797,274.249,365.753,274.234z"/>
			<circle cx="356.611" cy="137.091" r="9.143"/>
			<path d="M173.753,493.662c-9.838-0.005-17.898,7.812-18.194,17.646c5.435-0.484,10.838-1.277,16.183-2.377
				c2.469-0.457,4.662-1.006,6.674-1.554c3.919-1.046,7.742-2.422,11.429-4.114C186.663,497.338,180.478,493.648,173.753,493.662z"
				/>
			<path d="M383.948,356.519c-12.924-6.737-26.534-12.071-40.594-15.909l-8.046,22.126c-2.345,6.354-8.008,10.891-14.72,11.794
				c-7.151,1.196-14.39-1.566-18.926-7.223l-31.269-37.851c-4.754-0.183-9.509-0.366-14.354-0.366s-9.6,0.183-14.354,0.366
				l-31.36,38.034c-4.572,5.539-11.75,8.222-18.834,7.04c-6.685-0.899-12.337-5.393-14.72-11.703l-8.046-22.217
				c-14.061,3.838-27.67,9.171-40.594,15.909c8.337,7.615,17.617,14.129,27.611,19.383c30.802,16.783,65.224,25.82,100.297,26.331
				c35.073-0.512,69.496-9.549,100.297-26.331C366.331,370.649,375.611,364.134,383.948,356.519z"/>
			<path d="M199.353,412.748c-18.109-4.947-35.617-11.877-52.206-20.663c-11.442-6.039-22.071-13.504-31.634-22.217
				c-19.432,34.098-30.64,72.261-32.731,111.451c8.269-10.203,20.951-15.793,34.061-15.013c13.11,0.78,25.04,7.833,32.042,18.945
				c7.09-6.663,16.553-10.21,26.275-9.849c9.723,0.361,18.896,4.599,25.473,11.769C198.777,462.408,198.35,437.559,199.353,412.748z
				"/>
			<path d="M338.325,493.662c-6.724-0.014-12.91,3.676-16.091,9.6c3.713,1.626,7.531,3.001,11.429,4.114
				c2.011,0.549,4.206,1.097,6.4,1.554c5.44,1.062,10.934,1.825,16.457,2.286C356.152,501.429,348.119,493.679,338.325,493.662z"/>
			<path d="M397.753,484.519c-12.622,0.005-22.853,10.235-22.857,22.857c0.007,1.474,0.16,2.944,0.457,4.389
				c1.097,0,2.286,0,3.383-0.091l4.937-0.274c11.221-0.744,22.261-3.211,32.731-7.314c1.28-0.549,2.469-1.098,3.566-1.646
				C417.674,492.001,408.441,484.554,397.753,484.519z"/>
			<path d="M504.908,360.542c-1.92-5.394-4.297-11.154-7.314-18.194c-0.457-1.189-0.914-2.194-1.28-3.017
				c-8.935-22.12-21.478-42.604-37.12-60.617c-4.833-5.258-9.994-10.205-15.451-14.811c-0.501,8.725-1.631,17.403-3.383,25.966
				c13.74,17.633,21.92,38.958,23.497,61.257c0.854,9.187,0.793,18.436-0.183,27.611c-0.366,3.291-1.006,6.491-1.646,9.691
				c-1.133,4.36-1.716,8.844-1.737,13.349c0.825,6.997,3.722,13.587,8.32,18.926c1.006,1.371,2.286,3.109,3.84,5.029
				c4.265-11.678,6.312-24.051,6.034-36.48c-0.029-2.418,0.912-4.746,2.613-6.465c1.701-1.718,4.02-2.683,6.438-2.678h0.091
				c5.012,0.004,9.089,4.04,9.143,9.052c0,8.96-0.731,34.011-10.423,48.731c6.625-1.506,12.437-5.457,16.274-11.063
				C518.531,406.348,510.851,376.542,504.908,360.542z"/>
			<path d="M364.931,392.085c-16.589,8.786-34.097,15.716-52.206,20.663c0.966,24.811,0.569,49.656-1.189,74.423
				c6.884-7.509,16.602-11.787,26.789-11.794c9.236,0.05,18.114,3.575,24.869,9.874c7.002-11.112,18.931-18.165,32.042-18.945
				c13.11-0.78,25.792,4.81,34.061,15.013c-2.092-39.191-13.299-77.353-32.731-111.451
				C387.002,378.581,376.372,386.046,364.931,392.085z"/>
			<path d="M194.782,356.519h0.183c0.44-0.066,0.853-0.256,1.189-0.549l20.389-24.686c-10.331,1.189-20.297,2.926-29.897,4.937
				l7.314,20.297C193.959,356.428,194.233,356.519,194.782,356.519z"/>
			<path d="M171.285,320.954h0.183c55.569-13.531,113.574-13.531,169.143,0h0.183c19.495,4.771,38.277,12.088,55.863,21.76
				c25.874-32.549,35.017-78.171,25.783-133.303l-1.92-10.971c-8.96-54.309-20.206-121.874-52.571-160.274
				c-11.429-13.531-39.68-25.691-79.634-34.377c-8.333-1.815-16.806-2.916-25.326-3.291h-1.463
				c-0.576-0.079-1.157-0.109-1.737-0.091c-1.097-0.091-2.286-0.091-3.383-0.091h-0.366c-10.85,0.02-21.668,1.185-32.274,3.474
				c-39.954,8.686-68.206,20.846-79.634,34.377c-32.366,38.4-43.611,105.966-52.571,160.274l-1.92,10.971
				c-9.234,55.131-0.091,100.754,25.783,133.303C133.008,333.041,151.79,325.725,171.285,320.954z M146.325,310.805
				c-15.148,0-27.429-12.28-27.429-27.429s12.28-27.429,27.429-27.429s27.429,12.28,27.429,27.429
				C173.709,298.506,161.455,310.761,146.325,310.805z M365.753,310.805c-15.148,0-27.429-12.28-27.429-27.429
				s12.28-27.429,27.429-27.429s27.429,12.28,27.429,27.429C393.138,298.506,380.883,310.761,365.753,310.805z M411.468,210.234
				c0.003,9.7-3.85,19.004-10.709,25.863c-6.859,6.859-16.163,10.711-25.863,10.709c-20.198,0-36.571-16.374-36.571-36.571
				c0-20.198,16.374-36.571,36.571-36.571C395.094,173.662,411.468,190.036,411.468,210.234z M356.611,109.662
				c15.148,0,27.429,12.28,27.429,27.429s-12.28,27.429-27.429,27.429c-15.13-0.044-27.384-12.298-27.429-27.429
				C329.182,121.942,341.462,109.662,356.611,109.662z M256.039,18.234c1.097,0,2.194,0,3.291,0.091
				c0.545,0.076,1.096,0.106,1.646,0.091c0.523,0.01,1.043,0.072,1.554,0.183c33.904,3.45,59.153,32.868,57.422,66.903
				s-29.835,60.74-63.914,60.732c-35.346,0-64-28.654-64-64C192.039,46.887,220.693,18.234,256.039,18.234z M256.039,164.519
				c35.346,0,64,28.654,64,64c-0.039,35.33-28.67,63.961-64,64c-35.346,0-64-28.654-64-64
				C192.039,193.173,220.693,164.519,256.039,164.519z M155.468,109.662c15.148,0,27.429,12.28,27.429,27.429
				c-0.044,15.13-12.299,27.384-27.429,27.429c-15.148,0-27.429-12.28-27.429-27.429S140.319,109.662,155.468,109.662z
				 M100.61,210.234c0-20.198,16.374-36.571,36.571-36.571c20.198,0,36.571,16.374,36.571,36.571
				c0.003,9.7-3.85,19.004-10.709,25.863c-6.859,6.859-16.163,10.711-25.863,10.709C116.984,246.805,100.61,230.431,100.61,210.234z
				"/>
			<path d="M114.325,484.519c-10.699,0.059-19.944,7.486-22.309,17.92c1.097,0.549,2.286,1.097,3.566,1.646
				c10.563,4.111,21.695,6.578,33.006,7.314l4.754,0.274c1.097,0.091,2.194,0.091,3.383,0.091c0.297-1.444,0.45-2.914,0.457-4.389
				C137.177,494.755,126.947,484.524,114.325,484.519z"/>
			<path d="M155.468,210.234c-0.029-10.087-8.199-18.256-18.286-18.286c-10.099,0-18.286,8.187-18.286,18.286
				s8.187,18.286,18.286,18.286S155.468,220.332,155.468,210.234z"/>
			<path d="M317.113,356.519c0.416,0.057,0.839-0.04,1.189-0.274l7.131-20.023c-9.6-2.011-19.566-3.749-29.897-4.937l20.297,24.503
				C316.157,356.18,316.612,356.44,317.113,356.519z"/>
			<path d="M71.719,289.868c-1.751-8.562-2.882-17.24-3.383-25.966c-5.458,4.607-10.618,9.554-15.451,14.811
				c-15.598,17.977-28.138,38.393-37.12,60.434c-0.366,1.006-0.823,2.011-1.188,2.926c-3.109,7.314-5.486,13.074-7.406,18.377
				c-5.943,16.091-13.623,45.897,2.286,66.377c3.766,5.695,9.605,9.696,16.274,11.154c-9.691-14.72-10.423-39.771-10.423-48.823
				c0.054-5.012,4.13-9.048,9.143-9.052h0.091c2.418-0.005,4.737,0.96,6.438,2.678s2.642,4.047,2.613,6.465
				c-0.355,12.465,1.693,24.881,6.034,36.571c1.463-1.829,2.651-3.474,3.474-4.571c4.746-5.461,7.768-12.206,8.686-19.383
				c-0.015-4.535-0.598-9.05-1.737-13.44c-0.641-3.2-1.281-6.4-1.646-9.6c-0.976-9.236-1.037-18.546-0.183-27.794
				C49.816,328.766,57.995,307.475,71.719,289.868z"/>
			<path d="M155.468,146.234c5.049,0,9.143-4.093,9.143-9.143c-0.015-5.043-4.1-9.128-9.143-9.143c-5.049,0-9.143,4.093-9.143,9.143
				C146.325,142.14,150.418,146.234,155.468,146.234z"/>
		</g>
	</g>
</g>
<g>
</g>
<g>
</g>
<g>
</g>
<g>
</g>
<g>
</g>
<g>
</g>
<g>
</g>
<g>
</g>
<g>
</g>
<g>
</g>
<g>
</g>
<g>
</g>
<g>
</g>
<g>
</g>
<g>
</g>
</svg>
