<?xml version="1.0" encoding="iso-8859-1"?>
<!-- Generator: Adobe Illustrator 19.0.0, SVG Export Plug-In . SVG Version: 6.00 Build 0)  -->
<svg version="1.1" id="Capa_1" xmlns="http://www.w3.org/2000/svg" xmlns:xlink="http://www.w3.org/1999/xlink" x="0px" y="0px"
	 viewBox="0 0 504.491 504.491" style="enable-background:new 0 0 504.491 504.491;" xml:space="preserve">
<g>
	<g>
		<g>
			<path d="M192.211,352.528c9.415,3.242,18.159,8.179,25.798,14.566c9.302,8.489,21.674,12.797,34.237,11.921
				c12.562,0.876,24.935-3.432,34.237-11.921c7.64-6.387,16.383-11.324,25.798-14.566c10.61-4.502,18.032-14.299,19.491-25.732
				c-2.495-8.931-9.745-15.737-18.816-17.662c-8.999-2.273-17.594-5.918-25.482-10.807c-10.454-6.756-22.808-9.96-35.228-9.136
				c-12.42-0.824-24.774,2.38-35.228,9.136c-7.886,4.888-16.478,8.533-25.474,10.807c-9.075,1.922-16.329,8.728-18.825,17.662
				C174.179,338.229,181.6,348.026,192.211,352.528z M208.044,322.738c6.213-2.441,12.21-5.397,17.93-8.838
				c7.741-5.158,17.003-7.536,26.272-6.746c9.265-0.791,18.524,1.586,26.263,6.741c5.717,3.439,11.708,6.399,17.912,8.851
				c3.372,1.292,5.643,4.477,5.763,8.086c0.121,3.609-1.932,6.939-5.211,8.453c-7.646,3.656-14.833,8.202-21.412,13.544
				c-6.161,6.073-14.708,9.086-23.316,8.219c-8.596,0.868-17.132-2.136-23.289-8.197c-6.591-5.357-13.793-9.914-21.456-13.575
				c-3.277-1.514-5.329-4.842-5.211-8.45S204.675,324.034,208.044,322.738z"/>
			<path d="M131.333,320.247c4.409,21.779,14.242,42.093,28.588,59.061c23.149,26.019,55.558,41.951,90.298,44.39
				c1.348,0.132,2.705,0.132,4.053,0c34.738-2.438,67.143-18.369,90.289-44.386c14.345-16.96,24.181-37.265,28.597-59.035
				c1.656-10.959,1.662-22.105,0.018-33.066c-1.054-11.625-0.805-23.331,0.742-34.901c-17.97,6.202-36.791,9.586-55.795,10.032
				c-15.645,0.548-31.112-3.456-44.526-11.526c-9.255-6.087-16.654-14.608-21.382-24.626c-4.641,9.861-11.87,18.28-20.916,24.359
				c-13.5,8.276-29.14,12.388-44.965,11.825c-18.993-0.445-37.802-3.834-55.755-10.047c1.532,11.288,1.806,22.712,0.816,34.06
				C129.685,297.608,129.664,309.021,131.333,320.247z M154.772,324.357L154.772,324.357c3.531-16.269,16.185-29.01,32.43-32.653
				c7.374-1.879,14.409-4.898,20.851-8.947c13.177-8.337,28.622-12.367,44.193-11.531c15.571-0.836,31.016,3.194,44.193,11.531
				c6.444,4.051,13.483,7.07,20.86,8.947c16.242,3.646,28.891,16.386,32.421,32.653c0.168,0.691,0.253,1.399,0.254,2.11v0.092
				c0,0.561-0.053,1.12-0.158,1.671c-2.034,18.659-14.327,34.616-31.851,41.342c-7.514,2.626-14.479,6.617-20.544,11.772
				c-12.436,10.916-28.652,16.529-45.175,15.637c-16.523,0.893-32.739-4.72-45.175-15.636c-6.065-5.155-13.03-9.146-20.544-11.772
				c-17.523-6.726-29.817-22.683-31.851-41.342c-0.105-0.551-0.158-1.11-0.158-1.671
				C154.519,325.818,154.604,325.079,154.772,324.357z"/>
			<path d="M122.904,125.704c-12.228,9.201-27.912,26.499-24.307,33.714c0.831,1.661,3.981,3.006,8.206,4.147l0.152,0.044
				c10.297,2.256,20.733,3.817,31.239,4.673c22.038,0.991,43.743,5.749,64.176,14.066c16.088,8.044,28.842,10.5,35,6.68
				c4.868-3.009,5.895-10.693,5.895-16.61c0-4.961,4.022-8.982,8.982-8.982c4.961,0,8.982,4.022,8.982,8.982
				c0,5.917,1.026,13.601,5.895,16.61c6.158,3.82,18.912,1.364,35-6.68c20.432-8.317,42.138-13.074,64.176-14.066
				c10.5-0.856,20.93-2.415,31.221-4.668l0.184-0.053c4.217-1.141,7.362-2.484,8.192-4.143c3.623-7.25-12.07-24.535-24.298-33.711
				c-2.577-1.921-3.931-5.072-3.55-8.263c0.381-3.191,2.438-5.936,5.395-7.196c2.957-1.26,6.361-0.844,8.927,1.091
				c0.79,0.592,1.964,1.501,3.343,2.618c0.052-22.669-7.845-44.638-22.316-62.087c-7.421-8.045-15.694-15.258-24.675-21.513
				c-57.967-40.49-135.048-40.476-193,0.035c-8.964,6.249-17.223,13.454-24.632,21.487c-14.462,17.446-22.352,39.409-22.297,62.07
				c1.373-1.112,2.544-2.019,3.332-2.609c3.967-2.965,9.585-2.159,12.558,1.802C127.654,117.103,126.859,122.723,122.904,125.704z
				 M180.498,81.303c0.713-4.901,5.257-8.3,10.16-7.6h0c2.225,0.322,43.127,6.633,61.588,29.383
				c18.461-22.75,59.362-29.061,61.588-29.383c4.903-0.7,9.447,2.699,10.16,7.6c0.713,4.901-2.674,9.454-7.572,10.181
				c-0.552,0.079-55.193,8.855-55.193,36.022c0,4.961-4.022,8.982-8.982,8.982c-4.961,0-8.982-4.022-8.982-8.982
				c0-27.167-54.64-35.943-55.193-36.022C183.172,90.758,179.785,86.204,180.498,81.303z"/>
			<path d="M252.246,343.085c4.611,0.695,9.261-0.994,12.351-4.487c2.596-1.991,5.614-4.307,9.184-6.728
				c-1.526-0.846-2.921-1.645-4.184-2.377c-5.031-3.582-11.224-5.143-17.351-4.373c-6.107-0.773-12.282,0.779-17.298,4.346
				c-1.281,0.737-2.684,1.548-4.228,2.403c3.57,2.425,6.588,4.741,9.167,6.724C242.979,342.089,247.631,343.779,252.246,343.085z"/>
			<path d="M221.368,235.581c9.614-6.765,16.344-16.886,18.864-28.367c-3.349,1.026-6.834,1.54-10.337,1.525
				c-12.482-0.703-24.642-4.232-35.562-10.32c-18.531-7.248-38.13-11.395-58.009-12.272c-7.116-0.743-13.773-1.465-19.912-2.368
				c1.593,7.602,3.256,15.196,4.938,22.636c1.886,8.365,3.753,16.936,5.524,25.541C142.517,237.961,192.547,254.706,221.368,235.581
				z M180.386,217.331c0,4.961-4.022,8.982-8.982,8.982s-8.982-4.022-8.982-8.982v-8.982c0-4.961,4.022-8.982,8.982-8.982
				s8.982,4.022,8.982,8.982V217.331z"/>
			<path d="M127.263,425.505c-9.233,17.005-23.088,31.052-39.964,40.518c-22.991,11.417-50.023,11.308-72.921-0.294
				c-3.057-1.381-6.607-1.103-9.412,0.737c-2.674,1.741-4.27,4.731-4.228,7.921c-0.04,3.749,2.133,7.169,5.544,8.724
				c55.108,25.273,117.854,28.257,175.112,8.328C152.296,481.52,131.326,455.978,127.263,425.505z"/>
			<path d="M499.526,466.467c-2.813-1.845-6.376-2.12-9.439-0.728c-22.89,11.599-49.914,11.704-72.895,0.285
				c-16.876-9.467-30.731-23.513-39.964-40.518c-4.063,30.472-25.032,56.014-54.129,65.934
				c57.257,19.929,120.003,16.945,175.111-8.328c3.411-1.555,5.584-4.975,5.544-8.724
				C503.796,471.197,502.201,468.207,499.526,466.467z"/>
			<path d="M383.141,206.414c1.682-7.439,3.345-15.033,4.938-22.636c-6.139,0.903-12.795,1.624-19.912,2.368
				c-19.879,0.877-39.478,5.023-58.009,12.272c-10.92,6.086-23.08,9.615-35.562,10.32c-3.493,0.015-6.968-0.496-10.309-1.515
				c2.544,11.583,9.372,21.777,19.116,28.537c28.799,18.773,78.616,2.158,94.214-3.814
				C379.387,223.352,381.253,214.783,383.141,206.414z M342.07,217.331c0,4.961-4.022,8.982-8.982,8.982s-8.982-4.022-8.982-8.982
				v-8.982c0-4.961,4.022-8.982,8.982-8.982s8.982,4.022,8.982,8.982V217.331z"/>
			<path d="M360.035,414.945v-26.242c-0.603,0.739-1.163,1.51-1.781,2.237c-26.164,29.601-62.879,47.78-102.281,50.645
				c-1.219,0.114-2.474,0.175-3.728,0.175s-2.509-0.061-3.728-0.175c-39.405-2.866-76.122-21.047-102.289-50.649
				c-0.615-0.723-1.172-1.492-1.772-2.227v26.236c0.04,34.709,28.168,62.837,62.877,62.877h89.824
				C331.867,477.781,359.995,449.654,360.035,414.945z"/>
		</g>
	</g>
</g>
<g>
</g>
<g>
</g>
<g>
</g>
<g>
</g>
<g>
</g>
<g>
</g>
<g>
</g>
<g>
</g>
<g>
</g>
<g>
</g>
<g>
</g>
<g>
</g>
<g>
</g>
<g>
</g>
<g>
</g>
</svg>
